<?xml version="1.0" encoding="utf-8"?>
<!-- Generator: Adobe Illustrator 22.0.0, SVG Export Plug-In . SVG Version: 6.00 Build 0)  -->
<svg version="1.1" id="Capa_1" xmlns="http://www.w3.org/2000/svg" xmlns:xlink="http://www.w3.org/1999/xlink" x="0px" y="0px"
	 viewBox="0 0 133 108" style="enable-background:new 0 0 133 108;" xml:space="preserve">
<style type="text/css">
	.st0{fill:#7E7346;}
	.st1{opacity:0.4;}
	.st2{opacity:0.4;fill:#4A4122;enable-background:new    ;}
	.st3{fill:#4A272A;}
	.st4{fill:none;stroke:#FCF7EF;stroke-width:0.9005;stroke-miterlimit:10;}
	.st5{fill:#FCF7EF;}
	.st6{fill:none;stroke:#FCF7EF;stroke-miterlimit:10;}
	.st7{fill:#EFA278;}
	.st8{fill:#EF8964;}
	.st9{fill:#40221F;}
	.st10{fill:none;stroke:#4C2825;stroke-miterlimit:10;}
	.st11{fill:#4C2825;}
	.st12{fill:none;stroke:#643C39;stroke-miterlimit:10;}
	.st13{fill:#643C39;}
	.st14{fill:none;stroke:#3B1F1D;stroke-width:0.5;stroke-miterlimit:10;}
	.st15{fill:none;stroke:#3B1F1D;stroke-width:0.75;stroke-miterlimit:10;}
	.st16{fill:#3B1F1D;}
	.st17{fill:none;stroke:#3B1F1D;stroke-width:0.9527;stroke-miterlimit:10;}
	.st18{fill:#452420;}
	.st19{fill:#F3B264;}
	.st20{fill:#F3C58D;}
	.st21{fill:#291614;}
	.st22{fill:none;stroke:#3B1F1D;stroke-miterlimit:10;}
	.st23{fill:#EB6842;}
	.st24{fill:none;stroke:#C94D31;stroke-miterlimit:10;}
	.st25{fill:none;stroke:#EB7C5C;stroke-miterlimit:10;}
	.st26{fill:none;stroke:#FFFFFF;stroke-width:5;stroke-miterlimit:10;}
	.st27{fill:#4A4122;}
	.st28{fill:none;stroke:#2B2614;stroke-miterlimit:10;}
	.st29{fill:#2B2614;}
	.st30{fill:#7F7149;}
	.st31{fill:none;stroke:#4C2825;stroke-width:0.75;stroke-miterlimit:10;}
	.st32{fill:#804834;}
	.st33{fill:none;stroke:#6B3C2C;stroke-width:0.5;stroke-miterlimit:10;}
	.st34{fill:#9C5D46;}
	.st35{opacity:0.5;}
	.st36{opacity:0.5;fill:#452420;enable-background:new    ;}
	.st37{fill:none;stroke:#452420;stroke-width:1.5897;stroke-miterlimit:10;}
	.st38{fill:none;stroke:#452420;stroke-width:1.1113;stroke-miterlimit:10;}
	.st39{fill:#F1B04B;}
	.st40{fill:#E0A48D;}
	.st41{fill:none;stroke:#452420;stroke-width:0.5557;stroke-miterlimit:10;}
</style>
<path class="st0" d="M94,30.3c0,0,1.8,0.5,4.7-0.8c2.8-1.3,3.7-3.7,7.9-4.3c4.2-0.6,9.9,0.8,13.4-1.3v-7.7
	c-3.6,2.1-9.2,0.7-13.4,1.3c-4.2,0.6-5.1,3-7.9,4.3c-2.8,1.3-4.7,0.8-4.7,0.8V30.3z"/>
<g class="st1">
	<g class="st1">
		<path class="st2" d="M93.9,26.2c-0.1-0.2-0.2-0.3-0.4-0.2c-0.2,0.1-0.3,0.2-0.2,0.4c0.1,0.2,0.2,0.3,0.4,0.2
			C93.8,26.6,93.9,26.4,93.9,26.2z"/>
		<path class="st2" d="M96.5,25.5c-0.1-0.2-0.2-0.3-0.4-0.2c-0.2,0.1-0.3,0.2-0.2,0.4c0.1,0.2,0.2,0.3,0.4,0.2S96.6,25.7,96.5,25.5z
			"/>
		<path class="st2" d="M99.2,24.8c-0.1-0.2-0.2-0.3-0.4-0.2c-0.2,0.1-0.3,0.2-0.2,0.4c0.1,0.2,0.2,0.3,0.4,0.2
			C99.1,25.1,99.2,25,99.2,24.8z"/>
		<path class="st2" d="M101.8,24.1c-0.1-0.2-0.2-0.3-0.4-0.2c-0.2,0.1-0.3,0.2-0.2,0.4c0.1,0.2,0.2,0.3,0.4,0.2
			C101.8,24.4,101.8,24.3,101.8,24.1z"/>
		<path class="st2" d="M104.4,23.4c-0.1-0.2-0.2-0.3-0.4-0.2c-0.2,0.1-0.3,0.2-0.2,0.4s0.2,0.3,0.4,0.2S104.5,23.5,104.4,23.4z"/>
		<path class="st2" d="M107.1,22.6c-0.1-0.2-0.2-0.3-0.4-0.2c-0.2,0.1-0.3,0.2-0.2,0.4c0.1,0.2,0.2,0.3,0.4,0.2
			C107,23,107.2,22.8,107.1,22.6z"/>
		<path class="st2" d="M94.7,25.1c0.1,0,0.1-0.1,0.2-0.1c0.2-0.1,0.2-0.3,0.2-0.6c-0.1-0.3-0.4-0.4-0.6-0.4c-0.1,0-0.1,0.1-0.2,0.1
			c-0.2,0.1-0.2,0.3-0.2,0.6C94.1,25.1,94.4,25.2,94.7,25.1z"/>
		<path class="st2" d="M97.3,24.4c0.1,0,0.1-0.1,0.2-0.1c0.2-0.1,0.2-0.3,0.2-0.6c-0.1-0.3-0.4-0.4-0.6-0.4c-0.1,0-0.1,0.1-0.2,0.1
			c-0.2,0.1-0.2,0.3-0.2,0.6C96.8,24.3,97.1,24.5,97.3,24.4z"/>
		<path class="st2" d="M100,23.7c0.1,0,0.1-0.1,0.2-0.1c0.2-0.1,0.2-0.3,0.2-0.6c-0.1-0.3-0.4-0.4-0.6-0.4c-0.1,0-0.1,0.1-0.2,0.1
			c-0.2,0.1-0.2,0.3-0.2,0.6C99.4,23.6,99.7,23.8,100,23.7z"/>
		<path class="st2" d="M102.6,23c0.1,0,0.1-0.1,0.2-0.1c0.2-0.1,0.2-0.3,0.2-0.6c-0.1-0.3-0.4-0.4-0.6-0.4c-0.1,0-0.1,0.1-0.2,0.1
			c-0.2,0.1-0.2,0.3-0.2,0.6C102.1,22.9,102.3,23,102.6,23z"/>
		<path class="st2" d="M105.3,22.3c0.1,0,0.1-0.1,0.2-0.1c0.2-0.1,0.2-0.3,0.2-0.6c-0.1-0.3-0.4-0.4-0.6-0.4c-0.1,0-0.1,0.1-0.2,0.1
			c-0.2,0.1-0.2,0.3-0.2,0.6C104.7,22.2,105,22.3,105.3,22.3z"/>
		<path class="st2" d="M107.9,21.5c0.1,0,0.1-0.1,0.2-0.1c0.2-0.1,0.2-0.3,0.2-0.6c-0.1-0.2-0.2-0.3-0.4-0.4c-0.1,0-0.2,0-0.3,0
			c-0.1,0-0.1,0.1-0.2,0.1c-0.2,0.1-0.2,0.3-0.2,0.6c0.1,0.2,0.2,0.3,0.4,0.4C107.7,21.6,107.8,21.6,107.9,21.5z"/>
		<path class="st2" d="M91.3,23.2c0.3-0.1,0.4-0.4,0.4-0.6c-0.1-0.3-0.4-0.4-0.6-0.4c-0.3,0.1-0.4,0.4-0.4,0.6
			C90.8,23.1,91.1,23.2,91.3,23.2z"/>
		<path class="st2" d="M93.2,23.6c-0.1-0.2-0.2-0.3-0.4-0.2c-0.2,0.1-0.3,0.2-0.2,0.4c0.1,0.2,0.2,0.3,0.4,0.2
			C93.1,23.9,93.2,23.7,93.2,23.6z"/>
		<path class="st2" d="M95.8,22.8c-0.1-0.2-0.2-0.3-0.4-0.2c-0.2,0.1-0.3,0.2-0.2,0.4c0.1,0.2,0.2,0.3,0.4,0.2
			C95.8,23.2,95.9,23,95.8,22.8z"/>
		<path class="st2" d="M98.5,22.1c-0.1-0.2-0.2-0.3-0.4-0.2c-0.2,0.1-0.3,0.2-0.2,0.4c0.1,0.2,0.2,0.3,0.4,0.2
			C98.4,22.4,98.5,22.3,98.5,22.1z"/>
		<path class="st2" d="M101.1,21.4c-0.1-0.2-0.2-0.3-0.4-0.2c-0.2,0.1-0.3,0.2-0.2,0.4s0.2,0.3,0.4,0.2
			C101.1,21.7,101.2,21.6,101.1,21.4z"/>
		<path class="st2" d="M103.8,20.7c-0.1-0.2-0.2-0.3-0.4-0.2c-0.2,0.1-0.3,0.2-0.2,0.4s0.2,0.3,0.4,0.2S103.8,20.8,103.8,20.7z"/>
		<path class="st2" d="M106.4,19.9c-0.1-0.2-0.2-0.3-0.4-0.2c-0.2,0.1-0.3,0.2-0.2,0.4c0.1,0.2,0.2,0.3,0.4,0.2
			C106.4,20.3,106.5,20.1,106.4,19.9z"/>
		<path class="st2" d="M94,22.5c0.3-0.1,0.4-0.4,0.4-0.6c-0.1-0.3-0.4-0.4-0.6-0.4c-0.3,0.1-0.4,0.4-0.4,0.6
			C93.5,22.4,93.7,22.5,94,22.5z"/>
		<path class="st2" d="M96.6,21.7c0.3-0.1,0.4-0.4,0.4-0.6c-0.1-0.3-0.4-0.4-0.6-0.4c-0.3,0.1-0.4,0.4-0.4,0.6
			C96.1,21.6,96.4,21.8,96.6,21.7z"/>
		<path class="st2" d="M99.3,21c0.3-0.1,0.4-0.4,0.4-0.6c-0.1-0.3-0.4-0.4-0.6-0.4c-0.3,0.1-0.4,0.4-0.4,0.6
			C98.8,20.9,99,21.1,99.3,21z"/>
		<path class="st2" d="M102,20.3c0.3-0.1,0.4-0.4,0.4-0.6c-0.1-0.2-0.4-0.4-0.6-0.4c-0.3,0.1-0.4,0.4-0.4,0.6
			C101.4,20.2,101.7,20.3,102,20.3z"/>
		<path class="st2" d="M104.6,19.6c0.3-0.1,0.4-0.4,0.4-0.6c-0.1-0.3-0.4-0.4-0.6-0.4c-0.3,0.1-0.4,0.4-0.4,0.6
			C104.1,19.5,104.3,19.6,104.6,19.6z"/>
		<path class="st2" d="M92,25.9c0.1,0,0.1-0.1,0.2-0.1c0.2-0.1,0.2-0.3,0.2-0.6c-0.1-0.3-0.4-0.4-0.6-0.4c-0.1,0-0.1,0.1-0.2,0.1
			c-0.2,0.1-0.2,0.3-0.2,0.6C91.5,25.8,91.7,25.9,92,25.9z"/>
		<path class="st2" d="M92.7,28.5c0.3-0.1,0.4-0.4,0.4-0.6c-0.1-0.3-0.4-0.4-0.6-0.4c-0.3,0.1-0.4,0.4-0.4,0.6
			C92.2,28.5,92.5,28.6,92.7,28.5z"/>
		<path class="st2" d="M94.2,28.7c-0.2,0.1-0.3,0.2-0.2,0.4c0.1,0.2,0.2,0.3,0.4,0.2c0.2-0.1,0.3-0.2,0.2-0.4
			C94.5,28.8,94.3,28.6,94.2,28.7z"/>
		<path class="st2" d="M96.8,28c-0.2,0.1-0.3,0.2-0.2,0.4c0.1,0.2,0.2,0.3,0.4,0.2c0.2-0.1,0.3-0.2,0.2-0.4C97.2,28,97,27.9,96.8,28
			z"/>
		<path class="st2" d="M99.5,27.2c-0.2,0.1-0.3,0.2-0.2,0.4c0.1,0.2,0.2,0.3,0.4,0.2c0.2-0.1,0.3-0.2,0.2-0.4
			C99.8,27.3,99.7,27.2,99.5,27.2z"/>
		<path class="st2" d="M102.1,26.5c-0.2,0.1-0.3,0.2-0.2,0.4c0.1,0.2,0.2,0.3,0.4,0.2c0.2-0.1,0.3-0.2,0.2-0.4
			C102.5,26.6,102.3,26.5,102.1,26.5z"/>
		<path class="st2" d="M104.8,25.8c-0.2,0.1-0.3,0.2-0.2,0.4c0.1,0.2,0.2,0.3,0.4,0.2c0.2-0.1,0.3-0.2,0.2-0.4
			C105.1,25.9,105,25.8,104.8,25.8z"/>
		<path class="st2" d="M107.4,25.1c-0.2,0.1-0.3,0.2-0.2,0.4c0.1,0.2,0.2,0.3,0.4,0.2c0.2-0.1,0.3-0.2,0.2-0.4
			C107.8,25.1,107.6,25,107.4,25.1z"/>
		<path class="st2" d="M95.4,27.8c0.3-0.1,0.4-0.4,0.4-0.6c-0.1-0.3-0.4-0.4-0.6-0.4c-0.3,0.1-0.4,0.4-0.4,0.6
			C94.8,27.7,95.1,27.9,95.4,27.8z"/>
		<path class="st2" d="M98,27.1c0.3-0.1,0.4-0.4,0.4-0.6c-0.1-0.3-0.4-0.4-0.6-0.4c-0.3,0.1-0.4,0.4-0.4,0.6
			C97.5,27,97.8,27.2,98,27.1z"/>
		<path class="st2" d="M100.7,26.4c0.3-0.1,0.4-0.4,0.4-0.6c-0.1-0.3-0.4-0.4-0.6-0.4c-0.3,0.1-0.4,0.4-0.4,0.6
			C100.1,26.3,100.4,26.4,100.7,26.4z"/>
		<path class="st2" d="M103.3,25.6c0.3-0.1,0.4-0.4,0.4-0.6c-0.1-0.3-0.4-0.4-0.6-0.4c-0.3,0.1-0.4,0.4-0.4,0.6
			C102.8,25.6,103,25.7,103.3,25.6z"/>
		<path class="st2" d="M106,24.9c0.3-0.1,0.4-0.4,0.4-0.6c-0.1-0.3-0.4-0.4-0.6-0.4c-0.3,0.1-0.4,0.4-0.4,0.6
			C105.4,24.8,105.7,25,106,24.9z"/>
		<path class="st2" d="M108.6,24.2c0.3-0.1,0.4-0.4,0.4-0.6c-0.1-0.2-0.2-0.3-0.4-0.4c-0.1,0-0.2,0-0.3,0c-0.3,0.1-0.4,0.4-0.4,0.6
			c0.1,0.2,0.2,0.3,0.4,0.4C108.4,24.2,108.5,24.2,108.6,24.2z"/>
		<path class="st2" d="M93.2,30.2c-0.3,0.1-0.4,0.4-0.4,0.6c0.1,0.3,0.4,0.4,0.6,0.4c0.3-0.1,0.4-0.4,0.4-0.6
			C93.7,30.3,93.4,30.2,93.2,30.2z"/>
		<path class="st2" d="M95.8,29.5c-0.3,0.1-0.4,0.4-0.4,0.6c0.1,0.3,0.4,0.4,0.6,0.4c0.3-0.1,0.4-0.4,0.4-0.6
			C96.4,29.6,96.1,29.4,95.8,29.5z"/>
		<path class="st2" d="M98.5,28.8c-0.3,0.1-0.4,0.4-0.4,0.6c0.1,0.3,0.4,0.4,0.6,0.4c0.3-0.1,0.4-0.4,0.4-0.6
			C99,28.9,98.8,28.7,98.5,28.8z"/>
		<path class="st2" d="M101.1,28.1c-0.3,0.1-0.4,0.4-0.4,0.6c0.1,0.3,0.4,0.4,0.6,0.4c0.3-0.1,0.4-0.4,0.4-0.6
			C101.7,28.2,101.4,28,101.1,28.1z"/>
		<path class="st2" d="M103.8,27.4c-0.3,0.1-0.4,0.4-0.4,0.6c0.1,0.3,0.4,0.4,0.6,0.4c0.3-0.1,0.4-0.4,0.4-0.6
			C104.3,27.4,104,27.3,103.8,27.4z"/>
		<path class="st2" d="M106.4,26.6c-0.3,0.1-0.4,0.4-0.4,0.6c0.1,0.3,0.4,0.4,0.6,0.4c0.3-0.1,0.4-0.4,0.4-0.6
			C107,26.7,106.7,26.6,106.4,26.6z"/>
		<path class="st2" d="M109.3,25.9c-0.1,0-0.2,0-0.3,0c-0.3,0.1-0.4,0.4-0.4,0.6c0.1,0.2,0.2,0.3,0.4,0.4c0.1,0,0.2,0,0.3,0
			c0.3-0.1,0.4-0.4,0.4-0.6C109.6,26.1,109.5,25.9,109.3,25.9z"/>
		<path class="st2" d="M109.7,21.9c-0.1-0.2-0.2-0.3-0.4-0.2c-0.2,0.1-0.3,0.2-0.2,0.4c0.1,0.2,0.2,0.3,0.4,0.2
			C109.6,22.2,109.7,22.1,109.7,21.9z"/>
		<path class="st2" d="M112.4,21.2c-0.1-0.2-0.2-0.3-0.4-0.2c-0.2,0.1-0.3,0.2-0.2,0.4c0.1,0.2,0.2,0.3,0.4,0.2
			C112.3,21.5,112.4,21.3,112.4,21.2z"/>
		<path class="st2" d="M115,20.5c-0.1-0.2-0.2-0.3-0.4-0.2c-0.2,0.1-0.3,0.2-0.2,0.4c0.1,0.2,0.2,0.3,0.4,0.2
			C114.9,20.8,115,20.6,115,20.5z"/>
		<path class="st2" d="M117.6,19.7c-0.1-0.2-0.2-0.3-0.4-0.2c-0.2,0.1-0.3,0.2-0.2,0.4s0.2,0.3,0.4,0.2
			C117.6,20.1,117.7,19.9,117.6,19.7z"/>
		<path class="st2" d="M120.3,19c-0.1-0.2-0.2-0.3-0.4-0.2c-0.2,0.1-0.3,0.2-0.2,0.4c0.1,0.2,0.2,0.3,0.4,0.2
			C120.2,19.3,120.4,19.2,120.3,19z"/>
		<path class="st2" d="M123,18.3c-0.1-0.2-0.2-0.3-0.4-0.2s-0.3,0.2-0.2,0.4s0.2,0.3,0.4,0.2C122.9,18.6,123,18.4,123,18.3z"/>
		<path class="st2" d="M110.5,20.8c0.1,0,0.1-0.1,0.2-0.1c0.2-0.1,0.2-0.3,0.2-0.6c-0.1-0.3-0.4-0.4-0.6-0.4c-0.1,0-0.1,0.1-0.2,0.1
			c-0.2,0.1-0.2,0.3-0.2,0.6C109.9,20.7,110.2,20.9,110.5,20.8z"/>
		<path class="st2" d="M113.2,20.1c0.1,0,0.1-0.1,0.2-0.1c0.2-0.1,0.2-0.3,0.2-0.6c-0.1-0.3-0.4-0.4-0.6-0.4c-0.1,0-0.1,0.1-0.2,0.1
			c-0.2,0.1-0.2,0.3-0.2,0.6C112.6,20,112.9,20.1,113.2,20.1z"/>
		<path class="st2" d="M115.8,19.3c0.1,0,0.1-0.1,0.2-0.1c0.2-0.1,0.2-0.3,0.2-0.6c-0.1-0.3-0.4-0.4-0.6-0.4c-0.1,0-0.1,0.1-0.2,0.1
			c-0.2,0.1-0.2,0.3-0.2,0.6C115.3,19.3,115.5,19.4,115.8,19.3z"/>
		<path class="st2" d="M118.5,18.6c0.1,0,0.1-0.1,0.2-0.1c0.2-0.1,0.2-0.3,0.2-0.6c-0.1-0.3-0.4-0.4-0.6-0.4c-0.1,0-0.1,0.1-0.2,0.1
			c-0.2,0.1-0.2,0.3-0.2,0.6C117.9,18.5,118.2,18.7,118.5,18.6z"/>
		<path class="st2" d="M121.1,17.9c0.1,0,0.1-0.1,0.2-0.1c0.2-0.1,0.2-0.3,0.2-0.6c-0.1-0.3-0.4-0.4-0.6-0.4c-0.1,0-0.1,0.1-0.2,0.1
			c-0.2,0.1-0.2,0.3-0.2,0.6C120.6,17.8,120.8,18,121.1,17.9z"/>
		<path class="st2" d="M123.7,17.2c0.1,0,0.1-0.1,0.2-0.1c0.2-0.1,0.2-0.3,0.2-0.6c-0.1-0.3-0.4-0.4-0.6-0.4c-0.1,0-0.1,0.1-0.2,0.1
			c-0.2,0.1-0.2,0.3-0.2,0.6C123.2,17.1,123.5,17.3,123.7,17.2z"/>
		<path class="st2" d="M106.9,18.8c0.1,0,0.2,0,0.3,0c0.3-0.1,0.4-0.4,0.4-0.6c-0.1-0.2-0.2-0.3-0.4-0.4c-0.1,0-0.2,0-0.3,0
			c-0.3,0.1-0.4,0.4-0.4,0.6C106.6,18.7,106.8,18.8,106.9,18.8z"/>
		<path class="st2" d="M108.8,19.6c0.2-0.1,0.3-0.2,0.2-0.4s-0.2-0.3-0.4-0.2c-0.2,0.1-0.3,0.2-0.2,0.4
			C108.5,19.5,108.6,19.6,108.8,19.6z"/>
		<path class="st2" d="M111.7,18.5c-0.1-0.2-0.2-0.3-0.4-0.2c-0.2,0.1-0.3,0.2-0.2,0.4c0.1,0.2,0.2,0.3,0.4,0.2
			C111.6,18.8,111.7,18.6,111.7,18.5z"/>
		<path class="st2" d="M114.3,17.7c-0.1-0.2-0.2-0.3-0.4-0.2c-0.2,0.1-0.3,0.2-0.2,0.4s0.2,0.3,0.4,0.2
			C114.3,18.1,114.4,17.9,114.3,17.7z"/>
		<path class="st2" d="M117,17c-0.1-0.2-0.2-0.3-0.4-0.2c-0.2,0.1-0.3,0.2-0.2,0.4c0.1,0.2,0.2,0.3,0.4,0.2S117,17.2,117,17z"/>
		<path class="st2" d="M119.6,16.3c-0.1-0.2-0.2-0.3-0.4-0.2c-0.2,0.1-0.3,0.2-0.2,0.4c0.1,0.2,0.2,0.3,0.4,0.2
			C119.6,16.6,119.7,16.5,119.6,16.3z"/>
		<path class="st2" d="M122.3,15.6c-0.1-0.2-0.2-0.3-0.4-0.2c-0.2,0.1-0.3,0.2-0.2,0.4c0.1,0.2,0.2,0.3,0.4,0.2
			C122.2,15.9,122.3,15.8,122.3,15.6z"/>
		<path class="st2" d="M109.8,18.1c0.3-0.1,0.4-0.4,0.4-0.6c-0.1-0.3-0.4-0.4-0.6-0.4c-0.3,0.1-0.4,0.4-0.4,0.6
			C109.3,18,109.6,18.2,109.8,18.1z"/>
		<path class="st2" d="M112.5,17.4c0.3-0.1,0.4-0.4,0.4-0.6c-0.1-0.3-0.4-0.4-0.6-0.4c-0.3,0.1-0.4,0.4-0.4,0.6
			C111.9,17.3,112.2,17.4,112.5,17.4z"/>
		<path class="st2" d="M115.1,16.6c0.3-0.1,0.4-0.4,0.4-0.6c-0.1-0.3-0.4-0.4-0.6-0.4c-0.3,0.1-0.4,0.4-0.4,0.6
			C114.6,16.6,114.9,16.7,115.1,16.6z"/>
		<path class="st2" d="M117.8,15.9c0.3-0.1,0.4-0.4,0.4-0.6c-0.1-0.3-0.4-0.4-0.6-0.4c-0.3,0.1-0.4,0.4-0.4,0.6
			C117.3,15.8,117.5,16,117.8,15.9z"/>
		<path class="st2" d="M120.4,15.2c0.3-0.1,0.4-0.4,0.4-0.6c-0.1-0.3-0.4-0.4-0.6-0.4c-0.3,0.1-0.4,0.4-0.4,0.6
			C119.9,15.1,120.2,15.3,120.4,15.2z"/>
		<path class="st2" d="M123.1,14.5c0.3-0.1,0.4-0.4,0.4-0.6c-0.1-0.3-0.4-0.4-0.6-0.4c-0.3,0.1-0.4,0.4-0.4,0.6
			S122.8,14.5,123.1,14.5z"/>
		<path class="st2" d="M110,24.3c-0.2,0.1-0.3,0.2-0.2,0.4c0.1,0.2,0.2,0.3,0.4,0.2c0.2-0.1,0.3-0.2,0.2-0.4
			C110.4,24.4,110.2,24.3,110,24.3z"/>
		<path class="st2" d="M112.7,23.6c-0.2,0.1-0.3,0.2-0.2,0.4s0.2,0.3,0.4,0.2s0.3-0.2,0.2-0.4S112.8,23.6,112.7,23.6z"/>
		<path class="st2" d="M115.3,22.9c-0.2,0.1-0.3,0.2-0.2,0.4c0.1,0.2,0.2,0.3,0.4,0.2c0.2-0.1,0.3-0.2,0.2-0.4
			S115.5,22.9,115.3,22.9z"/>
		<path class="st2" d="M118,22.2c-0.2,0.1-0.3,0.2-0.2,0.4c0.1,0.2,0.2,0.3,0.4,0.2c0.2-0.1,0.3-0.2,0.2-0.4
			C118.3,22.2,118.1,22.1,118,22.2z"/>
		<path class="st2" d="M120.6,21.4c-0.2,0.1-0.3,0.2-0.2,0.4c0.1,0.2,0.2,0.3,0.4,0.2c0.2-0.1,0.3-0.2,0.2-0.4
			C121,21.5,120.8,21.4,120.6,21.4z"/>
		<path class="st2" d="M123.3,20.7c-0.2,0.1-0.3,0.2-0.2,0.4c0.1,0.2,0.2,0.3,0.4,0.2c0.2-0.1,0.3-0.2,0.2-0.4
			S123.4,20.7,123.3,20.7z"/>
		<path class="st2" d="M111.2,23.5c0.3-0.1,0.4-0.4,0.4-0.6c-0.1-0.3-0.4-0.4-0.6-0.4c-0.3,0.1-0.4,0.4-0.4,0.6
			C110.7,23.4,111,23.5,111.2,23.5z"/>
		<path class="st2" d="M113.9,22.7c0.3-0.1,0.4-0.4,0.4-0.6c-0.1-0.3-0.4-0.4-0.6-0.4c-0.3,0.1-0.4,0.4-0.4,0.6
			C113.3,22.7,113.6,22.8,113.9,22.7z"/>
		<path class="st2" d="M116.5,22c0.3-0.1,0.4-0.4,0.4-0.6c-0.1-0.3-0.4-0.4-0.6-0.4c-0.3,0.1-0.4,0.4-0.4,0.6
			C116,21.9,116.2,22.1,116.5,22z"/>
		<path class="st2" d="M119.2,21.3c0.3-0.1,0.4-0.4,0.4-0.6c-0.1-0.3-0.4-0.4-0.6-0.4c-0.3,0.1-0.4,0.4-0.4,0.6
			C118.6,21.2,118.9,21.4,119.2,21.3z"/>
		<path class="st2" d="M121.8,20.6c0.3-0.1,0.4-0.4,0.4-0.6c-0.1-0.3-0.4-0.4-0.6-0.4c-0.3,0.1-0.4,0.4-0.4,0.6
			C121.3,20.5,121.6,20.6,121.8,20.6z"/>
		<path class="st2" d="M124.5,19.8c0.3-0.1,0.4-0.4,0.4-0.6s-0.4-0.4-0.6-0.4c-0.3,0.1-0.4,0.4-0.4,0.6
			C123.9,19.8,124.2,19.9,124.5,19.8z"/>
		<path class="st2" d="M111.7,25.1c-0.3,0.1-0.4,0.4-0.4,0.6c0.1,0.3,0.4,0.4,0.6,0.4c0.3-0.1,0.4-0.4,0.4-0.6
			S111.9,25.1,111.7,25.1z"/>
		<path class="st2" d="M114.3,24.4c-0.3,0.1-0.4,0.4-0.4,0.6c0.1,0.3,0.4,0.4,0.6,0.4c0.3-0.1,0.4-0.4,0.4-0.6
			C114.8,24.5,114.6,24.3,114.3,24.4z"/>
		<path class="st2" d="M117,23.7c-0.3,0.1-0.4,0.4-0.4,0.6c0.1,0.3,0.4,0.4,0.6,0.4c0.3-0.1,0.4-0.4,0.4-0.6
			C117.5,23.8,117.2,23.6,117,23.7z"/>
		<path class="st2" d="M119.6,23c-0.3,0.1-0.4,0.4-0.4,0.6c0.1,0.3,0.4,0.4,0.6,0.4c0.3-0.1,0.4-0.4,0.4-0.6
			C120.2,23.1,119.9,22.9,119.6,23z"/>
		<path class="st2" d="M122.3,22.2c-0.3,0.1-0.4,0.4-0.4,0.6c0.1,0.3,0.4,0.4,0.6,0.4c0.3-0.1,0.4-0.4,0.4-0.6
			C122.8,22.4,122.5,22.2,122.3,22.2z"/>
		<path class="st2" d="M125.5,21.9c-0.1-0.3-0.4-0.4-0.6-0.4c-0.3,0.1-0.4,0.4-0.4,0.6c0.1,0.3,0.4,0.4,0.6,0.4
			C125.4,22.4,125.6,22.2,125.5,21.9z"/>
	</g>
</g>
<path class="st3" d="M85.2,108L99,97c-0.7-2.7-3.4-4.1-3.4-4.1l-7.1,5.6c0,0-1.8,2.3-3.2,4.7c-0.2,0.3-0.3,0.5-0.5,0.8
	c-0.8,1.5-0.6,2.5-0.2,3.2C84.8,107.7,85.2,108,85.2,108z"/>
<path class="st4" d="M98.6,96.1l-14,11.1"/>
<path class="st4" d="M96.3,93.4c0,0-2.4,2.6-0.7,5"/>
<path class="st5" d="M84.5,107.2l4.4-3.5c0,0-1.8-1.8-3.6-0.5l0,0c-0.2,0.3-0.3,0.5-0.5,0.8C83.9,105.5,84.2,106.5,84.5,107.2z"/>
<path class="st6" d="M86.9,100.8l1.3-0.3"/>
<path class="st6" d="M87.6,99.7l1.2-0.2"/>
<path class="st7" d="M92.8,89.4l2.8,3.6c0,0-2.4,4.3-7.1,5.6l-3.3-4.2L92.8,89.4z"/>
<path class="st8" d="M93.3,90c-0.8,1.6-3,5.2-5.9,7.1l-2.2-2.8l7.6-5L93.3,90z"/>
<path class="st9" d="M76.1,57.2c0,0-7.3,26.2,9.6,39.7c0,0,7.1-1.7,10-6.5c0,0-13.5-17.6-9.2-32.3L76.1,57.2z"/>
<path class="st10" d="M84.6,95.7c0,0,8.5-2.8,10.1-6.7"/>
<path class="st3" d="M60,101.8l17,4.6c1.8-2.2,1.2-5.2,1.2-5.2l-8.7-2.4c0,0-2.9,0-5.7,0.2c-0.3,0-0.6,0.1-0.9,0.1
	c-1.6,0.2-2.4,1-2.7,1.7C60,101.3,60,101.8,60,101.8z"/>
<path class="st4" d="M77.6,105.5l-17.2-4.6"/>
<path class="st4" d="M78.3,102c0,0-3.4-0.3-4.4,2.5"/>
<path class="st5" d="M60.3,100.8l5.4,1.4c0,0,0.4-2.5-1.8-3.2l0,0c-0.3,0-0.6,0.1-0.9,0.1C61.3,99.3,60.6,100.1,60.3,100.8z"/>
<path class="st6" d="M66.4,98.8c0,0,1,1.1,1.1,1.4"/>
<path class="st6" d="M68,98.7c0,0,1,1.1,1.1,1.4"/>
<path class="st7" d="M79.4,96.7l-1.1,4.4c0,0-4.8,0.7-8.7-2.4l1.3-5.1L79.4,96.7z"/>
<path class="st8" d="M79.2,97.5c-1.8,0.3-5.9,0.7-9.2-0.5l0.9-3.5l8.5,3.1L79.2,97.5z"/>
<path class="st11" d="M84.8,57.2c0,0-9,15.8-11.4,21.8c-2.4,6-3.8,16.1-3.8,16.1s6.3,4.1,11.4,2.5c0,0,3.8-13.9,6.5-17.1
	c2.7-3.2,11.9-9.6,10.7-22.5L84.8,57.2z"/>
<path class="st12" d="M78.1,98c0,0,1.6-13.2,5.6-17.4c4.1-4.2,11.5-9.2,12.3-19"/>
<path class="st13" d="M78.1,76.3c1.4-2.3,0.5-5.8,0.1-6.9c-1.9,3.6-3.7,7.2-4.6,9.5C75.3,78.4,77.2,77.7,78.1,76.3z"/>
<path class="st12" d="M69.9,93.5c0,0,5.7,4.1,11.4,2.6"/>
<path class="st7" d="M83.4,16.3c0,0-1.1-1.7-2.1-0.7c-0.9,1.1,0.6,3.6,1.9,2.8L83.4,16.3z"/>
<path class="st14" d="M82.1,15.8c0,0-0.9,0.5-0.2,1.7"/>
<path class="st14" d="M82.1,16.7c0,0-0.4,0-0.4-0.4"/>
<path class="st7" d="M92.6,24.2c0,0,0.2-2.5,0.2-5.3c0.1-4.1-0.5-9.2-4.7-9.6c-7.1-0.7-7.2,12.6-2.9,14.2v1.6
	C85.3,25.1,89.7,27.2,92.6,24.2z"/>
<path class="st8" d="M83.1,17.6c0.7,0,1.3,0.4,1.3,0.9s-0.6,0.9-1.3,0.9c-0.2,0-0.3,0-0.4-0.1c-0.1-0.6-0.2-1.1-0.2-1.7
	C82.6,17.6,82.8,17.6,83.1,17.6z"/>
<path class="st8" d="M88.8,17.6c0.7,0,1.3,0.4,1.3,0.9s-0.6,0.9-1.3,0.9c-0.7,0-1.3-0.4-1.3-0.9S88,17.6,88.8,17.6z"/>
<path class="st8" d="M85.4,16.2c0,0.4-0.4,1.9-0.4,1.9s0.4,0.4,0.9,0.1"/>
<path class="st15" d="M85.4,16.2c0,0.4-0.4,1.9-0.4,1.9s0.4,0.4,0.9,0.1"/>
<path class="st16" d="M87,17.1c0.1,0,0.2-0.1,0.2-0.2c0-0.1-0.1-0.2-0.2-0.2c-0.1,0-0.2,0.1-0.2,0.2C86.7,17,86.8,17.1,87,17.1z"/>
<path class="st17" d="M87.7,16.3c0,0-0.3-0.3-0.9-0.3"/>
<path class="st16" d="M84.2,17.1c0.1,0,0.2-0.1,0.2-0.2c0-0.1-0.1-0.2-0.2-0.2c-0.1,0-0.2,0.1-0.2,0.2C84,17,84.1,17.1,84.2,17.1z"
	/>
<path class="st17" d="M83.6,16.3c0,0,0.3-0.3,0.9-0.3"/>
<path class="st15" d="M85.9,19.2c0.2,0,0.5-0.1,0.7-0.4"/>
<path class="st8" d="M85.3,23.5c1,0.1,2.3,0.2,3-0.2c0,0-1.5,1.2-3,1V23.5z"/>
<path class="st14" d="M88.9,22.9c0,0-1.3,1.2-3.6,0.6"/>
<path class="st15" d="M82.4,15.7c0,0-0.1,2.3,0.2,3.5"/>
<path class="st7" d="M92.4,16.3c0,0,1.1-1.7,2.1-0.7c0.9,1.1-0.6,3.6-1.9,2.8L92.4,16.3z"/>
<path class="st14" d="M92.9,15.8c0.8-1,1.4-0.4,1.4-0.4"/>
<path class="st14" d="M92.5,18c0,0,0.1,0.8,1.3,0.3"/>
<path class="st14" d="M94,17.5c0,0,0.8-1.7-0.5-1.6"/>
<path class="st14" d="M93.8,16.7c0,0,0.2-0.5,0.1-0.8"/>
<path class="st18" d="M82.4,17.8c0,0,0.7,0.3,0.7-0.1c0-0.4-0.2-1.4,0.2-1.8c0.4-0.4,1-0.5,0.8-1.7c0,0,2,1.2,4.2-0.1
	c0,0,0.2,0.7,0.7,0.8c0.5,0.1,1-0.4,1-0.4s0.6,0,0.5,1.3c-0.1,1.3-0.3,2.7,0.5,2.9c0.8,0.2,1-0.2,1-0.8c0.1-0.6,0.8-2.6,1.9-2.6
	c0,0,0.8-0.9,0.4-2.4c-0.4-1.6-1.3-2.1-2-2c0,0-0.2-1.2-1.1-1.7c-1-0.4-1.3-0.1-2.1-0.6c-0.8-0.5-2-2.2-2.8-1.7
	c-0.8,0.4-0.5,1.5,0.1,1.6c0,0-1.9-1.1-2.6-0.7c-0.7,0.4-0.1,1.5,0.3,1.7c0,0-2.6-0.9-3-0.3c-0.4,0.6-0.4,3.1,1.5,3.6
	c0,0-0.8,0.8-0.8,3C81.7,15.6,82.6,15.7,82.4,17.8z"/>
<path class="st19" d="M76.4,29.8c0,0,3.2-5.2,10.3-5.1c7,0.1,5.7-1,5.7-1s4.8,2.8,5.8,4.6l-3.6,30.2l-18.4-0.8L76.4,29.8z"/>
<path class="st20" d="M89.7,32.9c2.6,0,5.4-0.7,8.2-2.1l0.1-0.7c-3.5,1.8-6.9,2.5-10.2,2.1c-4.1-0.6-7.1-3-8.6-4.5
	c0-0.2,0-0.5-0.1-0.8c-0.3,0.2-0.6,0.4-0.8,0.6c0,0,0,0,0.1,0.1c0.1,0.6,0.1,1.2,0.1,1.7c0,0.3,0.1,0.6,0.1,0.9
	c-0.7-0.7-1.1-1.3-1.1-1.3L77,29.2c0,0,0.6,0.8,1.6,1.8c0.1,0.8,0.1,1.7,0.2,2.5c-1.3-1.1-1.9-2.1-1.9-2.1l-0.4,0.3
	c0,0,0.8,1.2,2.4,2.5c0,0.6,0.1,1.3,0.1,1.9c0,0.2,0,0.4,0,0.5c-1.7-1.4-2.7-2.7-2.7-2.7v0.9c0.5,0.6,1.4,1.6,2.7,2.5
	c0,0.8,0,1.5,0,2.3c-1.3-0.9-2.2-1.8-2.7-2.5V38c0.6,0.7,1.5,1.5,2.7,2.3c0,0.7-0.1,1.5-0.2,2.2c-1.1-0.7-1.9-1.5-2.5-2.2v0.8
	c0.6,0.6,1.5,1.3,2.5,2c-0.1,0.7-0.2,1.4-0.3,2.1c-0.9-0.6-1.6-1.2-2.2-1.7v0.7c0.6,0.5,1.3,1.1,2.1,1.6c-0.1,0.7-0.3,1.3-0.4,2
	c-0.6-0.4-1.2-0.9-1.7-1.3v0.7c0.5,0.4,1,0.8,1.6,1.1c0,0.2-0.1,0.3-0.1,0.5c-0.1,0.5-0.3,1-0.4,1.5c-0.4-0.2-0.7-0.5-1.1-0.8v0.7
	c0.3,0.2,0.6,0.4,0.9,0.6c-0.2,0.6-0.4,1.2-0.6,1.8c-0.1-0.1-0.2-0.1-0.3-0.2v0.7c0,0,0.1,0.1,0.1,0.1c0,0.1-0.1,0.2-0.1,0.3l0,2.2
	c0.3-0.7,0.5-1.3,0.8-2c1.5,0.9,3.4,1.7,5.6,2.1c0.7,0.1,1.3,0.1,2,0.1c3.4,0,7-1.2,10.6-3.5l0.1-0.7c-4.4,2.9-8.7,4.1-12.7,3.6
	c-2.2-0.3-4.1-1.1-5.5-2c0.2-0.6,0.4-1.2,0.6-1.9c1.5,0.9,3.3,1.6,5.4,1.9c0.7,0.1,1.3,0.1,2,0.1c3.3,0,6.8-1.1,10.4-3.4l0.1-0.7
	c-4.4,2.8-8.5,4-12.4,3.4c-2.1-0.3-3.9-1-5.3-1.9c0.2-0.6,0.4-1.3,0.5-1.9c1.5,0.8,3.2,1.5,5.2,1.8c0.7,0.1,1.3,0.1,2,0.1
	c3.3,0,6.6-1.1,10.1-3.2l0.1-0.7c-4.2,2.6-8.3,3.7-12.1,3.2c-2-0.3-3.8-1-5.2-1.8c0.2-0.7,0.3-1.3,0.4-2c1.5,0.8,3.2,1.5,5.2,1.8
	c0.7,0.1,1.3,0.1,2,0.1c3.1,0,6.4-1,9.8-3l0.1-0.7c-4.1,2.5-8.1,3.6-11.8,3c-2.1-0.3-3.8-1-5.2-1.8c0.1-0.7,0.2-1.3,0.3-2
	c0,0,0-0.1,0-0.1c1.5,0.9,3.3,1.6,5.4,1.9c0.7,0.1,1.3,0.1,2,0.1c3.1,0,6.3-1,9.5-2.8l0.1-0.7c-4,2.4-7.9,3.4-11.6,2.8
	c-2.1-0.3-3.9-1.1-5.4-2c0.1-0.7,0.1-1.4,0.2-2.2c1.5,0.9,3.4,1.8,5.7,2.1c0.7,0.1,1.3,0.1,2,0.1c3,0,6.1-0.9,9.3-2.7l0.1-0.7
	c-3.9,2.3-7.7,3.2-11.3,2.7c-2.3-0.3-4.2-1.2-5.7-2.2c0-0.7,0.1-1.5,0.1-2.2c1.6,1.1,3.7,2,6.2,2.4c0.7,0.1,1.3,0.1,2,0.1
	c2.9,0,5.9-0.9,9-2.5l0.1-0.7c-3.8,2.2-7.5,3-11,2.5c-2.6-0.4-4.7-1.4-6.2-2.5c0,0,0,0,0-0.1c0-0.8-0.1-1.5-0.1-2.3
	c1.7,1.2,4,2.5,6.8,2.9c0.7,0.1,1.3,0.1,2,0.1c2.8,0,5.7-0.8,8.7-2.4l0.1-0.7c-3.7,2-7.3,2.8-10.7,2.4c-3-0.4-5.3-1.7-7-3
	c-0.1-0.8-0.1-1.6-0.2-2.5c1.7,1.4,4.3,3,7.6,3.5c0.7,0.1,1.3,0.1,2,0.1c2.7,0,5.5-0.7,8.4-2.3l0.1-0.7c-3.6,1.9-7.1,2.7-10.4,2.2
	c-3.5-0.5-6.1-2.2-7.7-3.7c0-0.2,0-0.4-0.1-0.7l-0.1-1.8c1.7,1.6,4.5,3.6,8.4,4.2C88.3,32.9,89,32.9,89.7,32.9z"/>
<path class="st20" d="M97.9,27.9c-3.3,1.6-6.5,2.2-9.6,1.8c-3.4-0.5-6-2.2-7.7-3.6c-0.2,0.1-0.4,0.2-0.5,0.3
	c1.7,1.5,4.4,3.4,8.1,3.9c0.7,0.1,1.3,0.1,2,0.1c2.5,0,5.2-0.7,7.9-2v-0.1C98.1,28.2,98,28,97.9,27.9z"/>
<path class="st7" d="M56.4,39.9c0,0-4.5-6-3.9-7c0.6-1,2.3,1.2,2.3,1.2s-2.4-2.9-1.6-3.7C54.1,29.7,56,33,56,33s-2.3-3.3-1.4-4
	c0.9-0.7,2.8,3.2,2.8,3.2s-1.8-3.5-0.8-4.1c1-0.7,5.3,7.6,5.3,7.6L56.4,39.9z"/>
<path class="st9" d="M58.5,33.9l-3.6,1.8c-0.3,0.1-0.6,0-0.8-0.2L50.4,28c-0.1-0.3,0-0.6,0.2-0.8l3.6-1.8c0.3-0.1,0.6,0,0.8,0.2
	l3.8,7.5C58.9,33.4,58.8,33.8,58.5,33.9z"/>
<path class="st21" d="M54.7,35.2l-3.8-7.6l3.5-1.8l3.7,7.6L54.7,35.2z"/>
<path class="st7" d="M59.4,31.8c0,0-0.7-1.8-1.8-1.5c-1,0.3,0.4,3.7,0.4,3.7s-1.2,0.6-0.8,2.3c0.2,0.9,0.5,1.3,0.8,1.6"/>
<path class="st22" d="M59.4,31.8c0,0-0.7-1.8-1.8-1.5c-1,0.3,0.4,3.7,0.4,3.7s-1.2,0.6-0.8,2.3c0.2,0.9,0.5,1.3,0.8,1.6"/>
<path class="st23" d="M57.6,38.2c0.3-0.2,0.6-0.4,0.8-0.6c1-0.9,3.6-3.1,4.6-2.4c1.1,0.9,5.1,8.1,5.1,8.1S75,28,81.4,25.7
	c0,0,2.4,17.1-6.3,40.9c0,0-5.4-0.7-5.9-1.4c-0.4-0.6,2.7-9.7,2.7-9.7s-10.5,4.3-16.3-14.1C55.6,41.4,55.1,39.9,57.6,38.2z"/>
<path class="st24" d="M81.4,25.7c0,0,2.1,20.2-6.3,40.9"/>
<path class="st25" d="M68.1,43.7c0,0,7.5-15,12.6-17"/>
<path class="st10" d="M68.4,44.3l-1.3-2.5"/>
<path class="st10" d="M76.3,38.8l-4.8,18.2"/>
<path class="st23" d="M95.8,25.7c0,0-4.9,9.1-5,21.9c0,0-5.6,3.6-5.3,5.1c0.2,1.5,2.7,8.8,4,8.1c1.5-0.9,2.6-1.6,2.6-1.6
	s-0.4,6.7,1,8.9c0,0,7.3,0.2,9.3-1.6c0,0-1.6-7.1-1-13.6c0,0,3.9-1.9,4.4-6.5C106.4,41.8,101.6,28.2,95.8,25.7z"/>
<path class="st24" d="M95.4,26.2c0,0-5.1,11.3-4.7,21.4"/>
<path class="st26" d="M76.6,44l-1.2-0.2c-1.7-0.4-2.8-2-2.4-3.7c0.4-1.7,2.1-2.7,3.8-2.2l10.6,3"/>
<path class="st27" d="M83.3,43.3l2.5-3.7l-0.2-0.9l2.2-1.1l0.6,0.4l1.5-1l0.4,0.6l1.3-0.7l3.1,4c0,0,8,1.7,10.8,2.9
	c2.8,1.2,16.7,12.4,16.7,12.4l-0.2,0.9c0,0-21.4-6.4-28.9-12L83.3,43.3z"/>
<path class="st28" d="M117.2,53.9l-12.5-8.1"/>
<path class="st28" d="M117.8,55l-15.3-7.3"/>
<path class="st28" d="M90.3,39.9l-2.5-2.3l-2.2,1.1l0.2,1.3"/>
<path class="st28" d="M91.9,39.5l-2-2.4l-1.5,1"/>
<path class="st28" d="M93.1,43.4l-6.9-2.5"/>
<path class="st29" d="M94.3,40.4L92.5,45l0.7,0.1c1,0.8,2.3,1.6,3.8,2.3l0.2-6c-1.4-0.3-2.4-0.6-2.4-0.6L94.3,40.4z"/>
<path class="st29" d="M118.5,56.1c2.2,0.7,3.5,1.1,3.5,1.1l0.2-0.9c0,0-1.1-0.9-2.7-2.2L118.5,56.1z"/>
<path class="st23" d="M95.7,44.6l-0.7-4.7c0,0,8.2,1.3,8.8,3.5C104.5,45.6,95.7,44.6,95.7,44.6z"/>
<path class="st7" d="M85.7,52.9c0,0-5.7,0.7-6.3,2.1c-0.4,0.9,0.8,1.5,0.8,1.5s-0.6,0.7-0.4,1.3c0.2,0.6,1.3,0.9,1.3,0.9
	s-0.5,0.5-0.2,1.1c0.3,0.6,1,0.6,1,0.6s-0.1,0.9,0.5,1.3c0.6,0.3,4.5-0.5,5.7-2.3C89.3,57.8,85.7,52.9,85.7,52.9z"/>
<path class="st15" d="M79.4,55.3c0,0,0.4,1.3,1.3,1.2"/>
<path class="st15" d="M79.9,57.2c0,0-0.5,1.4,1.6,1.6"/>
<path class="st15" d="M80.8,59.7c0,0,0.3,0.9,1.4,0.8"/>
<path class="st23" d="M96.6,43.7c-4,1.6-9.2,6.4-10.5,7.6c-0.1,0.1-0.3,0.2-0.4,0.3c-0.2,0.1-0.4,0.4-0.4,1c0.1,1,2.6,8,3.7,8
	s13.7-8.8,13.7-8.8s4.5-3.1,2.7-9.2"/>
<path class="st10" d="M96.6,43.7c-4,1.6-9.2,6.4-10.5,7.6c-0.1,0.1-0.3,0.2-0.4,0.3c-0.2,0.1-0.4,0.4-0.4,1c0.1,1,2.6,8,3.7,8
	s13.7-8.8,13.7-8.8s4.5-3.1,2.7-9.2"/>
<path class="st10" d="M95.7,44.1L94,34.1"/>
<path class="st23" d="M93.3,35.6c0,0,0.5,1.4,1.3,1.6L93.3,35.6z"/>
<path class="st10" d="M93.3,35.6c0,0,0.5,1.4,1.3,1.6"/>
<path class="st25" d="M96.3,26.8c0,0,8.6,6.3,8.6,19.8"/>
<path class="st30" d="M96.1,26.1c0-1.7-1.3-2-1.3-2c0-1.5-1.3-1.8-1.3-1.8c-5,3.2-8.8,1.1-8.8,1.1c-0.7,0.3-1.7,2-1.7,2
	S88.9,30,96.1,26.1z"/>
<g class="st1">
	<g class="st1">
		<path class="st2" d="M84.4,28.1C84.3,28,84.2,27.9,84,28c-0.1,0.1-0.2,0.2-0.1,0.4c0.1,0.1,0.2,0.2,0.4,0.1
			C84.4,28.4,84.4,28.3,84.4,28.1z"/>
		<path class="st2" d="M86.5,27.1c-0.1-0.1-0.2-0.2-0.4-0.1C86,27,85.9,27.2,86,27.3c0.1,0.1,0.2,0.2,0.4,0.1
			C86.5,27.4,86.5,27.2,86.5,27.1z"/>
		<path class="st2" d="M88.6,26.1c-0.1-0.1-0.2-0.2-0.4-0.1c-0.1,0.1-0.2,0.2-0.1,0.4c0.1,0.1,0.2,0.2,0.4,0.1
			C88.6,26.3,88.6,26.2,88.6,26.1z"/>
		<path class="st2" d="M90.6,25c-0.1-0.1-0.2-0.2-0.4-0.1c-0.1,0.1-0.2,0.2-0.1,0.4c0.1,0.1,0.2,0.2,0.4,0.1
			C90.7,25.3,90.7,25.1,90.6,25z"/>
		<path class="st2" d="M92.8,24c-0.1-0.1-0.2-0.2-0.4-0.1c-0.1,0.1-0.2,0.2-0.1,0.4c0.1,0.1,0.2,0.2,0.4,0.1
			C92.8,24.3,92.8,24.1,92.8,24z"/>
		<path class="st2" d="M94.8,22.9c-0.1-0.1-0.2-0.2-0.4-0.1c-0.1,0.1-0.2,0.2-0.1,0.4c0.1,0.1,0.2,0.2,0.4,0.1
			C94.9,23.2,94.9,23,94.8,22.9z"/>
		<path class="st2" d="M84.9,27.1c0.1,0,0.1-0.1,0.2-0.1c0.1-0.1,0.2-0.3,0.1-0.5c-0.1-0.2-0.4-0.3-0.6-0.2c-0.1,0-0.1,0.1-0.2,0.1
			c-0.1,0.1-0.2,0.3-0.1,0.5C84.4,27.1,84.7,27.2,84.9,27.1z"/>
		<path class="st2" d="M87,26c0.1,0,0.1-0.1,0.2-0.1c0.1-0.1,0.2-0.3,0.1-0.5c-0.1-0.2-0.4-0.3-0.6-0.2c-0.1,0-0.1,0.1-0.2,0.1
			c-0.1,0.1-0.2,0.3-0.1,0.5C86.5,26.1,86.8,26.1,87,26z"/>
		<path class="st2" d="M89.1,25c0.1,0,0.1-0.1,0.2-0.1c0.1-0.1,0.2-0.3,0.1-0.5c-0.1-0.2-0.4-0.3-0.6-0.2c-0.1,0-0.1,0.1-0.2,0.1
			c-0.1,0.1-0.2,0.3-0.1,0.5C88.6,25,88.8,25.1,89.1,25z"/>
		<path class="st2" d="M91.1,24c0.1,0,0.1-0.1,0.2-0.1c0.1-0.1,0.2-0.3,0.1-0.5c-0.1-0.2-0.4-0.3-0.6-0.2c-0.1,0-0.1,0.1-0.2,0.1
			c-0.1,0.1-0.2,0.3-0.1,0.5C90.7,24,90.9,24.1,91.1,24z"/>
		<path class="st2" d="M93.2,22.9c0.1,0,0.1-0.1,0.2-0.1c0.1-0.1,0.2-0.3,0.1-0.5c-0.1-0.2-0.4-0.3-0.6-0.2c-0.1,0-0.1,0.1-0.2,0.1
			c-0.1,0.1-0.2,0.3-0.1,0.5C92.8,22.9,93,23,93.2,22.9z"/>
		<path class="st2" d="M95.3,21.9c0.1,0,0.1-0.1,0.2-0.1c0.1-0.1,0.2-0.3,0.1-0.5c-0.1-0.2-0.4-0.3-0.6-0.2c-0.1,0-0.1,0.1-0.2,0.1
			c-0.1,0.1-0.2,0.3-0.1,0.5C94.9,21.9,95.1,22,95.3,21.9z"/>
		<path class="st2" d="M81.4,25.2c-0.2,0.1-0.3,0.4-0.2,0.6c0.1,0.2,0.4,0.3,0.6,0.2c0.2-0.1,0.3-0.4,0.2-0.6
			C81.9,25.2,81.6,25.1,81.4,25.2z"/>
		<path class="st2" d="M83.4,26c-0.1-0.1-0.2-0.2-0.4-0.1c-0.1,0.1-0.2,0.2-0.1,0.4c0.1,0.1,0.2,0.2,0.4,0.1
			C83.4,26.3,83.4,26.1,83.4,26z"/>
		<path class="st2" d="M85.4,25.3c0.1-0.1,0.2-0.2,0.1-0.4c-0.1-0.1-0.2-0.2-0.4-0.1c-0.1,0.1-0.2,0.2-0.1,0.4
			C85.1,25.3,85.2,25.4,85.4,25.3z"/>
		<path class="st2" d="M87.4,24.3c0.1-0.1,0.2-0.2,0.1-0.4c-0.1-0.1-0.2-0.2-0.4-0.1c-0.1,0.1-0.2,0.2-0.1,0.4
			C87.2,24.3,87.3,24.3,87.4,24.3z"/>
		<path class="st2" d="M89.6,23.2c0.1-0.1,0.2-0.2,0.1-0.4c-0.1-0.1-0.2-0.2-0.4-0.1c-0.1,0.1-0.2,0.2-0.1,0.4
			C89.3,23.2,89.4,23.3,89.6,23.2z"/>
		<path class="st2" d="M91.6,22.2c0.1-0.1,0.2-0.2,0.1-0.4c-0.1-0.1-0.2-0.2-0.4-0.1c-0.1,0.1-0.2,0.2-0.1,0.4
			C91.4,22.2,91.5,22.2,91.6,22.2z"/>
		<path class="st2" d="M93.7,21.1c0.1-0.1,0.2-0.2,0.1-0.4c-0.1-0.1-0.2-0.2-0.4-0.1s-0.2,0.2-0.1,0.4
			C93.4,21.1,93.6,21.2,93.7,21.1z"/>
		<path class="st2" d="M83.9,24.9c0.2-0.1,0.3-0.4,0.2-0.6c-0.1-0.2-0.4-0.3-0.6-0.2c-0.2,0.1-0.3,0.4-0.2,0.6S83.7,25,83.9,24.9z"
			/>
		<path class="st2" d="M86,23.9c0.2-0.1,0.3-0.4,0.2-0.6c-0.1-0.2-0.4-0.3-0.6-0.2c-0.2,0.1-0.3,0.4-0.2,0.6
			C85.5,23.9,85.7,24,86,23.9z"/>
		<path class="st2" d="M88.1,22.9c0.2-0.1,0.3-0.4,0.2-0.6c-0.1-0.2-0.4-0.3-0.6-0.2s-0.3,0.4-0.2,0.6C87.6,22.9,87.9,23,88.1,22.9z
			"/>
		<path class="st2" d="M90.2,21.8c0.2-0.1,0.3-0.4,0.2-0.6C90.2,21,90,20.9,89.8,21c-0.2,0.1-0.3,0.4-0.2,0.6
			C89.7,21.8,89.9,21.9,90.2,21.8z"/>
		<path class="st2" d="M92.2,20.8c0.2-0.1,0.3-0.4,0.2-0.6c-0.1-0.2-0.4-0.3-0.6-0.2c-0.2,0.1-0.3,0.4-0.2,0.6
			C91.8,20.8,92,20.9,92.2,20.8z"/>
		<path class="st2" d="M94.3,19.7c0.2-0.1,0.3-0.4,0.2-0.6S94.2,18.9,94,19c-0.2,0.1-0.3,0.4-0.2,0.6C93.9,19.7,94.1,19.8,94.3,19.7
			z"/>
		<path class="st2" d="M82.4,27.3c-0.1,0-0.1,0.1-0.2,0.1c-0.1,0.1-0.2,0.3-0.1,0.5c0.1,0.2,0.4,0.3,0.6,0.2c0.1,0,0.1-0.1,0.2-0.1
			c0.1-0.1,0.2-0.3,0.1-0.5C82.9,27.3,82.7,27.2,82.4,27.3z"/>
		<path class="st2" d="M83.4,29.4c-0.2,0.1-0.3,0.4-0.2,0.6s0.4,0.3,0.6,0.2c0.2-0.1,0.3-0.4,0.2-0.6C83.9,29.4,83.6,29.3,83.4,29.4
			z"/>
		<path class="st2" d="M85.1,30.1c-0.1,0.1-0.2,0.2-0.1,0.4c0.1,0.1,0.2,0.2,0.4,0.1c0.1-0.1,0.2-0.2,0.1-0.4
			C85.3,30.1,85.2,30.1,85.1,30.1z"/>
		<path class="st2" d="M87.1,29.1C87,29.1,87,29.3,87,29.4c0.1,0.1,0.2,0.2,0.4,0.1c0.1-0.1,0.2-0.2,0.1-0.4
			C87.4,29.1,87.3,29,87.1,29.1z"/>
		<path class="st2" d="M89.3,28c-0.1,0.1-0.2,0.2-0.1,0.4c0.1,0.1,0.2,0.2,0.4,0.1c0.1-0.1,0.2-0.2,0.1-0.4S89.4,28,89.3,28z"/>
		<path class="st2" d="M91.3,27c-0.1,0.1-0.2,0.2-0.1,0.4c0.1,0.1,0.2,0.2,0.4,0.1c0.1-0.1,0.2-0.2,0.1-0.4
			C91.6,27,91.5,26.9,91.3,27z"/>
		<path class="st2" d="M93.4,25.9c-0.1,0.1-0.2,0.2-0.1,0.4c0.1,0.1,0.2,0.2,0.4,0.1c0.1-0.1,0.2-0.2,0.1-0.4
			C93.7,25.9,93.5,25.9,93.4,25.9z"/>
		<path class="st2" d="M95.5,24.9c-0.1,0.1-0.2,0.2-0.1,0.4c0.1,0.1,0.2,0.2,0.4,0.1c0.1-0.1,0.2-0.2,0.1-0.4
			C95.8,24.9,95.7,24.8,95.5,24.9z"/>
		<path class="st2" d="M85.5,28.4c-0.2,0.1-0.3,0.4-0.2,0.6c0.1,0.2,0.4,0.3,0.6,0.2c0.2-0.1,0.3-0.4,0.2-0.6
			C86,28.4,85.7,28.3,85.5,28.4z"/>
		<path class="st2" d="M87.6,27.4c-0.2,0.1-0.3,0.4-0.2,0.6c0.1,0.2,0.4,0.3,0.6,0.2c0.2-0.1,0.3-0.4,0.2-0.6
			C88.1,27.4,87.8,27.3,87.6,27.4z"/>
		<path class="st2" d="M89.7,26.3c-0.2,0.1-0.3,0.4-0.2,0.6c0.1,0.2,0.4,0.3,0.6,0.2c0.2-0.1,0.3-0.4,0.2-0.6
			C90.2,26.3,89.9,26.2,89.7,26.3z"/>
		<path class="st2" d="M91.8,25.3c-0.2,0.1-0.3,0.4-0.2,0.6c0.1,0.2,0.4,0.3,0.6,0.2c0.2-0.1,0.3-0.4,0.2-0.6
			C92.3,25.3,92,25.2,91.8,25.3z"/>
		<path class="st2" d="M93.9,24.3c-0.2,0.1-0.3,0.4-0.2,0.6c0.1,0.2,0.4,0.3,0.6,0.2c0.2-0.1,0.3-0.4,0.2-0.6
			C94.4,24.2,94.1,24.2,93.9,24.3z"/>
		<path class="st2" d="M96,23.2c-0.2,0.1-0.3,0.4-0.2,0.6s0.4,0.3,0.6,0.2c0.2-0.1,0.3-0.4,0.2-0.6C96.5,23.2,96.2,23.1,96,23.2z"/>
		<path class="st2" d="M84.5,31.5c-0.2,0.1-0.3,0.4-0.2,0.6c0.1,0.2,0.4,0.3,0.6,0.2c0.2-0.1,0.3-0.4,0.2-0.6
			C84.9,31.5,84.7,31.5,84.5,31.5z"/>
		<path class="st2" d="M86.5,30.5c-0.2,0.1-0.3,0.4-0.2,0.6c0.1,0.2,0.4,0.3,0.6,0.2c0.2-0.1,0.3-0.4,0.2-0.6
			C87,30.5,86.8,30.4,86.5,30.5z"/>
		<path class="st2" d="M88.6,29.5c-0.2,0.1-0.3,0.4-0.2,0.6c0.1,0.2,0.4,0.3,0.6,0.2c0.2-0.1,0.3-0.4,0.2-0.6
			C89.1,29.4,88.8,29.4,88.6,29.5z"/>
		<path class="st2" d="M90.7,28.4c-0.2,0.1-0.3,0.4-0.2,0.6s0.4,0.3,0.6,0.2c0.2-0.1,0.3-0.4,0.2-0.6C91.2,28.4,90.9,28.3,90.7,28.4
			z"/>
		<path class="st2" d="M92.8,27.4c-0.2,0.1-0.3,0.4-0.2,0.6s0.4,0.3,0.6,0.2c0.2-0.1,0.3-0.4,0.2-0.6C93.3,27.4,93,27.3,92.8,27.4z"
			/>
		<path class="st2" d="M94.9,26.4c-0.2,0.1-0.3,0.4-0.2,0.6c0.1,0.2,0.4,0.3,0.6,0.2c0.2-0.1,0.3-0.4,0.2-0.6
			C95.4,26.3,95.1,26.2,94.9,26.4z"/>
		<path class="st2" d="M97.6,25.5c-0.1-0.2-0.4-0.3-0.6-0.2c-0.2,0.1-0.3,0.4-0.2,0.6c0.1,0.2,0.4,0.3,0.6,0.2
			C97.6,26,97.7,25.7,97.6,25.5z"/>
	</g>
</g>
<path class="st31" d="M94.5,24.1c0,0,0.9,0.1,1.3,0.7c0.3,0.7,0.4,1.3,0.4,1.3c-7.4,3.8-13-0.7-13-0.7"/>
<path class="st31" d="M93.9,22.5c0,0,0.9,0.6,1,1.7"/>
<path class="st32" d="M56,63.2c0,0,0.2-2.2,0.7-2.2c0.5,0,2.2,3.3,2.2,3.3l-2.6,1L56,63.2z"/>
<path class="st32" d="M60.6,75c0,0,5.2-0.4,6.1,0.9c0.4,0.5,0.6,1.7,0.7,2.3c0.2,1-0.5,1.9-1.5,2c-0.3,0-0.5,0-0.5,0
	C65.3,80,65,77.9,65,77.9L60.5,80C60.5,80,58.8,75.8,60.6,75z"/>
<path class="st33" d="M65.5,77.4c0,0-0.7,0.6-1.8,1"/>
<path class="st33" d="M65,77.9l0.2,1.5"/>
<path class="st32" d="M50.5,86.8c0,0,1,4.7-1.5,6.7c-2.5,2-3.9,2.3-3.9,2.3l0.1,3.1c0,0,0.7,0.4,0.5,0.9c-0.1,0.5-2.8,0.9-3.6,0.4
	c-0.8-0.5-1.1-8.4-0.8-9.4C41.6,89.6,50.5,86.8,50.5,86.8z"/>
<path class="st33" d="M44.4,98.8c0,0,1.2-0.4,1.4,0.5"/>
<path class="st33" d="M45.2,95.7l0.1,3.1"/>
<path class="st34" d="M52.3,71.7c0,0,1.1-5,1.9-6c0,0-0.3-4,0.4-4.2c0.7-0.2,2.1,3,2.1,3s1.6-1,2.9-0.3c1.3,0.7,1.5,2.7,3.5,1.7
	c0,0,1,1,0.6,3c-0.4,2-2.4,2.6-2.4,2.6v6.6c0,0,2.8,0.7,2.8,4.3c0.1,1.6,0.1,2.8,0.1,3.7c0,1.1-0.9,2-1.9,1.9
	c-0.2,0-0.3-0.1-0.3-0.1c-0.2-0.3-0.1-3.6-0.1-3.6l-2.4-1.8l-10.6,7.1c0,0,0.1,2.6-2.7,4.3c-2.8,1.7-3.6,1.8-3.6,1.8l-0.1,3.7
	c0,0,0.6,0.2,0.6,0.6c0,0.4-2.1,1.2-3.4,0.2c-1.3-1-0.9-6.5-0.9-6.5s-2.7-3-2.5-6.2c0,0-2.2-0.6-2.2-2.9c0,0-3.1,0.7-3.5-1.5
	s1.5-2.4,1.5-2.4s-2.6-7.9,2.8-9.2c0,0-2.2,4.6-0.7,7.5c1.6,2.9,4,3.9,4,3.9L52.3,71.7z"/>
<g class="st35">
	<path class="st36" d="M59.1,79.2c-2,0.2-1.7,4-1.7,4c0.1,0.1,0.1,0.2,0.2,0.3l1.8-1.2l1.4,1C61.2,81.1,61.1,79,59.1,79.2z"/>
	<path class="st36" d="M53.7,66.8c-0.6,1.5-1.2,4-1.3,4.7c1-0.2,2.2-0.7,2.4-1.9C54.9,68.3,54.2,67.3,53.7,66.8z"/>
	<path class="st36" d="M37.9,82.7c-1.5,1.4-1.9,3.6-2,4.6c0.1,0,0.1,0.1,0.1,0.1c-0.1,1.2,0.3,2.5,0.8,3.5c4,0.4,4-6.6,3.8-10.2
		L37.9,82.7z"/>
	<path class="st36" d="M50.8,77.2c-1.4-0.6-4.2,2.8-4.2,4.1c0.1,1.9,2.8,1.5,3.9,0.8C51.8,81.4,52.2,77.9,50.8,77.2z"/>
</g>
<path class="st18" d="M63.8,65.9c0,0.5-0.5,0.9-1.1,0.9s-1.1-0.4-1.1-0.9c0-0.5,0.5-0.9,1.1-0.9S63.8,65.4,63.8,65.9z"/>
<path class="st18" d="M60.2,66.3c0,0.2-0.2,0.4-0.4,0.4c-0.2,0-0.4-0.2-0.4-0.4s0.2-0.4,0.4-0.4C60,66,60.2,66.1,60.2,66.3z"/>
<path class="st37" d="M58.3,66.1c0,0,0.5-1,1-1.1"/>
<path class="st38" d="M62.1,68.2c0,0,1.2,0.1,1.6-0.4"/>
<path class="st39" d="M61.1,74.7c-4.2,0-9.2-3.9-9.5-4.1l0.9-1.2c0.1,0.1,5.4,4.1,9,3.7l0.2,1.5C61.6,74.7,61.3,74.7,61.1,74.7z"/>
<path class="st40" d="M54.2,65.6c0.5-0.5,1.3-1,1.3-1s-0.4-2-0.7-2.5c-0.1-0.2-0.3-0.3-0.5-0.2C54,62.9,54.2,65.6,54.2,65.6z"/>
<path class="st41" d="M58.6,81.9l3.1,2.3"/>
<path class="st41" d="M61.8,83.6c0,0-0.1,1.6,0,2.5"/>
<path class="st41" d="M48.6,87.9c0,0,0.5,3.1-1.3,4.7c-1.9,1.6-5.4,3.1-5.4,3.1"/>
<path class="st41" d="M42.3,99.3l0.1-3.7"/>
<path class="st41" d="M41.5,99.2c0,0,1.3-0.2,1.4,0.7"/>
<path class="st41" d="M33.8,83.6c0,0-0.3,3.2,2.3,3.8"/>
<path class="st41" d="M30.3,82.9c0,0,0.4,2.2,3.5,1.5"/>
<path class="st41" d="M36.7,84.2c0,0-1.1,2-0.5,4.9"/>
</svg>
