<svg xmlns="http://www.w3.org/2000/svg" xmlns:xlink="http://www.w3.org/1999/xlink" viewBox="0 0 186.78 126.78"><defs><style>.cls-1,.cls-2{opacity:0.53;}.cls-2,.cls-4,.cls-5{fill:#eac286;}.cls-11,.cls-14,.cls-2,.cls-20,.cls-23,.cls-26,.cls-4,.cls-48,.cls-5,.cls-51,.cls-55,.cls-8{isolation:isolate;}.cls-3,.cls-4{opacity:0.57;}.cls-14,.cls-26,.cls-5{opacity:0.61;}.cls-6{fill:#3a0a00;}.cls-7{fill:#ffaa8b;}.cls-19,.cls-20,.cls-8{fill:#ff2439;}.cls-8{opacity:0.27;}.cls-9{fill:#ff9a00;}.cls-10,.cls-17,.cls-24,.cls-50,.cls-52,.cls-57,.cls-62{fill:none;}.cls-10{stroke:#fff;}.cls-10,.cls-17,.cls-24,.cls-50,.cls-52,.cls-57,.cls-61,.cls-62{stroke-miterlimit:10;}.cls-10,.cls-17{stroke-width:1.09px;}.cls-11,.cls-51{fill:#ec7700;}.cls-11{opacity:0.73;}.cls-12,.cls-55{fill:#fcefec;}.cls-13{fill:#480d0b;}.cls-14{fill:#b77539;}.cls-15{fill:#f99475;}.cls-16{fill:#ff00d5;}.cls-17{stroke:#ff00d5;}.cls-18{fill:#fff;}.cls-20{opacity:0.15;}.cls-21,.cls-23{fill:#fa9e00;}.cls-22,.cls-23{opacity:0.44;}.cls-24,.cls-50,.cls-52,.cls-57{stroke:#3a0a00;}.cls-24{stroke-width:0.66px;}.cls-25{fill:#724afc;}.cls-26,.cls-48{fill:#4c30df;}.cls-27{fill:url(#Degradado_sin_nombre_21);}.cls-28{fill:url(#Degradado_sin_nombre_21-2);}.cls-29{fill:url(#Degradado_sin_nombre_21-3);}.cls-30{fill:url(#Degradado_sin_nombre_21-4);}.cls-31{fill:url(#Degradado_sin_nombre_21-5);}.cls-32{fill:url(#Degradado_sin_nombre_21-6);}.cls-33{fill:url(#Degradado_sin_nombre_21-7);}.cls-34{fill:url(#Degradado_sin_nombre_21-8);}.cls-35{fill:url(#Degradado_sin_nombre_21-9);}.cls-36{fill:url(#Degradado_sin_nombre_21-10);}.cls-37{fill:url(#Degradado_sin_nombre_21-11);}.cls-38{fill:url(#Degradado_sin_nombre_21-12);}.cls-39{fill:url(#Degradado_sin_nombre_21-13);}.cls-40{fill:url(#Degradado_sin_nombre_21-14);}.cls-41{fill:url(#Degradado_sin_nombre_21-15);}.cls-42{fill:url(#Degradado_sin_nombre_21-16);}.cls-43{fill:url(#Degradado_sin_nombre_21-17);}.cls-44{fill:url(#Degradado_sin_nombre_21-18);}.cls-45{fill:url(#Degradado_sin_nombre_21-19);}.cls-46{fill:url(#Degradado_sin_nombre_21-20);}.cls-47,.cls-48{opacity:0.72;}.cls-49,.cls-61{fill:#ff53cc;}.cls-50{stroke-width:0.75px;}.cls-51{opacity:0.45;}.cls-52{stroke-width:0.7px;}.cls-53{fill:#8e9903;}.cls-54,.cls-55{opacity:0.49;}.cls-56{fill:#7ca1d8;}.cls-57{stroke-width:0.87px;}.cls-58{fill:#4f2df8;}.cls-59{fill:#687fa9;}.cls-60{fill:#ededed;}.cls-61{stroke:#ff53cc;stroke-width:0.08px;}.cls-62{stroke:#fcefec;stroke-width:0.25px;}</style><linearGradient id="Degradado_sin_nombre_21" x1="6.33" y1="10852.22" x2="10.89" y2="10852.22" gradientTransform="matrix(1, 0, 0, -1, 0, 10889.51)" gradientUnits="userSpaceOnUse"><stop offset="0" stop-color="#ffffe0" stop-opacity="0.5"/><stop offset="0.82" stop-color="#ffffe0" stop-opacity="0"/></linearGradient><linearGradient id="Degradado_sin_nombre_21-2" x1="6.4" y1="10851.15" x2="13.88" y2="10851.15" xlink:href="#Degradado_sin_nombre_21"/><linearGradient id="Degradado_sin_nombre_21-3" x1="7.09" y1="10850" x2="16.51" y2="10850" xlink:href="#Degradado_sin_nombre_21"/><linearGradient id="Degradado_sin_nombre_21-4" x1="8.56" y1="10849.14" x2="19.16" y2="10849.14" xlink:href="#Degradado_sin_nombre_21"/><linearGradient id="Degradado_sin_nombre_21-5" x1="10.18" y1="10848.02" x2="21.76" y2="10848.02" xlink:href="#Degradado_sin_nombre_21"/><linearGradient id="Degradado_sin_nombre_21-6" x1="11.75" y1="10847.22" x2="24.14" y2="10847.22" xlink:href="#Degradado_sin_nombre_21"/><linearGradient id="Degradado_sin_nombre_21-7" x1="13.87" y1="10845.73" x2="24.92" y2="10845.73" xlink:href="#Degradado_sin_nombre_21"/><linearGradient id="Degradado_sin_nombre_21-8" x1="15.82" y1="10845.08" x2="26.27" y2="10845.08" xlink:href="#Degradado_sin_nombre_21"/><linearGradient id="Degradado_sin_nombre_21-9" x1="7.2" y1="10839.48" x2="14.93" y2="10839.48" xlink:href="#Degradado_sin_nombre_21"/><linearGradient id="Degradado_sin_nombre_21-10" x1="6.46" y1="10843.9" x2="20.23" y2="10843.9" xlink:href="#Degradado_sin_nombre_21"/><linearGradient id="Degradado_sin_nombre_21-11" x1="6.65" y1="10845.53" x2="21.13" y2="10845.53" xlink:href="#Degradado_sin_nombre_21"/><linearGradient id="Degradado_sin_nombre_21-12" x1="7.08" y1="10846.93" x2="21.93" y2="10846.93" xlink:href="#Degradado_sin_nombre_21"/><linearGradient id="Degradado_sin_nombre_21-13" x1="7.76" y1="10848.49" x2="22.8" y2="10848.49" xlink:href="#Degradado_sin_nombre_21"/><linearGradient id="Degradado_sin_nombre_21-14" x1="8.77" y1="10849.91" x2="23.81" y2="10849.91" xlink:href="#Degradado_sin_nombre_21"/><linearGradient id="Degradado_sin_nombre_21-15" x1="10.22" y1="10851.4" x2="24.89" y2="10851.4" xlink:href="#Degradado_sin_nombre_21"/><linearGradient id="Degradado_sin_nombre_21-16" x1="11.98" y1="10852.69" x2="25.76" y2="10852.69" xlink:href="#Degradado_sin_nombre_21"/><linearGradient id="Degradado_sin_nombre_21-17" x1="14.08" y1="10853.8" x2="26.56" y2="10853.8" xlink:href="#Degradado_sin_nombre_21"/><linearGradient id="Degradado_sin_nombre_21-18" x1="16.7" y1="10854.71" x2="27.56" y2="10854.71" xlink:href="#Degradado_sin_nombre_21"/><linearGradient id="Degradado_sin_nombre_21-19" x1="6.34" y1="10842.19" x2="19.19" y2="10842.19" xlink:href="#Degradado_sin_nombre_21"/><linearGradient id="Degradado_sin_nombre_21-20" x1="6.68" y1="10840.68" x2="17.54" y2="10840.68" xlink:href="#Degradado_sin_nombre_21"/></defs><title>Recurso 32</title><g id="Capa_2" data-name="Capa 2"><g id="Capa_1-2" data-name="Capa 1"><g class="cls-1"><g class="cls-1"><path class="cls-2" d="M32.69,63.42a.92.92,0,0,0,0-1.84A.92.92,0,0,0,32.69,63.42Z"/></g><g class="cls-1"><path class="cls-2" d="M37.25,44.42a.46.46,0,0,0,0-.92A.46.46,0,0,0,37.25,44.42Z"/></g><g class="cls-3"><path class="cls-4" d="M42.4,53a3.1,3.1,0,0,0,2-1.91,3,3,0,0,0,2,1.94,3.91,3.91,0,0,0-1.26.74A4.56,4.56,0,0,0,44.4,55,3,3,0,0,0,42.4,53Z"/></g><g class="cls-1"><path class="cls-2" d="M65.91,11.54a.57.57,0,0,0,0-1.14A.57.57,0,0,0,65.91,11.54Z"/></g><g class="cls-1"><path class="cls-2" d="M87.3,11a1,1,0,0,0,0-2A1,1,0,0,0,87.3,11Z"/></g><g class="cls-3"><path class="cls-4" d="M73,19.6a2.25,2.25,0,0,0,1.39-1.45,2,2,0,0,0,1.44,1.35,3.27,3.27,0,0,0-.86.56,2.61,2.61,0,0,0-.52.89A2.11,2.11,0,0,0,73,19.6Z"/></g><g class="cls-1"><path class="cls-2" d="M165.26,79a.93.93,0,0,0,0-1.85A.93.93,0,0,0,165.26,79Z"/></g><g class="cls-1"><path class="cls-2" d="M162.28,69.33a.46.46,0,0,0,0-.92A.46.46,0,0,0,162.28,69.33Z"/></g><g class="cls-3"><path class="cls-4" d="M156.73,74.71A2.48,2.48,0,0,1,155,73.2,2.46,2.46,0,0,1,153.46,75a4,4,0,0,1,1,.52,4.61,4.61,0,0,1,.71,1A2.5,2.5,0,0,1,156.73,74.71Z"/></g><g class="cls-1"><g class="cls-1"><path class="cls-2" d="M157.74,26.61a.46.46,0,0,0,0-.92A.46.46,0,0,0,157.74,26.61Z"/></g><g class="cls-1"><path class="cls-2" d="M145,25.63a.93.93,0,0,0,0-1.85A.93.93,0,0,0,145,25.63Z"/></g><g class="cls-3"><path class="cls-4" d="M154.14,20.15A1.68,1.68,0,0,0,153,21.32a1.72,1.72,0,0,0-1.17-1.14,2.69,2.69,0,0,0,.71-.43A2.59,2.59,0,0,0,153,19,1.84,1.84,0,0,0,154.14,20.15Z"/></g></g></g><g class="cls-1"><path class="cls-5" d="M67.64,76.07s-5.18-13-23.21-17.6C46,73,66.46,84.4,66.46,84.4Z"/><path class="cls-2" d="M128.62,34s-7.15-.74-14.91,6.49c-8,9.44-7.12,10.83-7.12,10.83s14-4.22,17.69-7.32S128.62,34,128.62,34Z"/><path class="cls-5" d="M48.87,102.05c.4-1.35.89-2.7.43-4C48.93,97,50.59,96.3,51,97.38c.56,1.66.1,3.17-.3,4.71a35.31,35.31,0,0,0,6.87-.71A44.93,44.93,0,0,0,41.47,74C26.37,62.19,23.1,62.81,23.1,62.81s.28,2.55.9,6.3a10.34,10.34,0,0,1,2.16.19c1.11.28.89,2-.25,1.78a7.47,7.47,0,0,0-1.6-.18c.27,1.57.61,3.29,1,5.07,1.39-.21,2.78-.33,4.16-.52a.9.9,0,0,1,.22,1.78c-1.33.16-2.65.28-4,.5.53,2.18,1.15,4.42,1.85,6.58,1.08-.49,2.19-1,3.33-1.35s1.76,1.29.68,1.66A33.93,33.93,0,0,0,28.16,86a42.48,42.48,0,0,0,2.77,6.27l3.33-3.53c.8-.83,2.22.27,1.42,1.1l-3.79,4a17.14,17.14,0,0,0,2.16,2.71,10.71,10.71,0,0,0,1.14,1,13.29,13.29,0,0,0,2.34-4.64c.24-1.14,2-.89,1.79.25a15.29,15.29,0,0,1-2.75,5.44A19.42,19.42,0,0,0,41,100.73c.83-1.54,1.69-3.14,1.63-4.8,0-1.13,1.76-1.38,1.79-.21a11.14,11.14,0,0,1-1.73,5.54A38.83,38.83,0,0,0,48.87,102.05Z"/><path class="cls-2" d="M150.6,41.28c-1-1.66-6.38.52-9,1.72l0,0c1.84-1.32,7.39-5.5,6.65-7.32-1.45-3.53-6.44,5.2-7.39,6.92l-.41.43c.53-2.77,1.76-10.18-.64-9.38-1.57.53-1.94,10.52-2,12.12l-2.07,2.15c.06-2.33.09-9.19-1.91-8.92s-1.11,9.29-.8,11.75l-1.85,1.94c.06-2.37.06-9.13-1.91-8.89s-1.14,9.2-.83,11.72l-1.85,1.91c0-.65.43-10-1.88-9.66s-.74,12.36-.74,12.36l.37-.4-3.67,3.79.74.7,3.51-3.66c2.9.62,15.13,3,15.13-.55s-10.56-1.72-13.43-1.2l3.08-3.17c2,.43,15.47,3.2,15.47-.46s-12.3-1.41-14-1.08l2.47-2.52c2.62-.06,13.74-.46,14.2-3.72.43-3.11-9.06.4-12.14,1.57l2.84-2.92C140.7,45.92,151.83,43.28,150.6,41.28Z"/><path class="cls-2" d="M124.86,70.1c4.63-3,14.4-8.21,28.88-2.86-2.81,2.61-1.73,4.92-4.25,9.87-2.41,4.74-5.27,4.52-7,3.72s-2.49-.92-2.4.62,4.22.61,5.14,1.57c1.55,1.63-.43,8.64-2.74,9.44s-10.91-3.75-10.63-1.32S141,92,141.29,95s-2.47,9.78-8,9-9.31-5.44-9.13-2.37,7.68,2.19,7.71,3.85-2,7.56-5.36,9.47-24.38-3.38-27.15-7.53C102.77,92.55,107.76,81.26,124.86,70.1Z"/><path class="cls-2" d="M94.17,65c-1-1.6-11.34,6.52-13.07,7.91-.4-1.42-.83-2.8-1.32-4.18,3.48-1.24,14.54-5.3,13.9-6.92C93,60,80.83,66.47,79.28,67.3c-.46-1.26-1-2.49-1.48-3.72,9.41-1.72,15.38-4,14.61-5.35S78.54,62,77.34,62.53c-.49-1.14-1-2.24-1.54-3.35,2.56-.77,17-5.26,15.5-7.41-1.69-2.34-15.81,6.64-15.81,6.64v.12c-.52-1-1-2.06-1.57-3,2.53-1.75,14.39-10,12.85-11.26S75,53.28,73.52,54.78c-.58-1.11-1.2-2.15-1.79-3.2,1.82-2,11.93-13,9.68-14S72.44,48,71.06,50.42c-.56-.9-1.08-1.79-1.64-2.65,1.18-1.6,10.3-13.9,7.74-14.92s-7.49,11.44-8.41,13.81c-.62-1-1.24-1.9-1.85-2.8.89-2.12,6.19-15,4.4-15.65s-4.87,11.84-5.42,14.18c-.65-.92-1.26-1.79-1.88-2.62.52-2.76,2.4-13.87-.28-15.13S62.4,34.85,62.83,38.2c-2.62-3.47-4.56-5.65-4.93-6.08-2.37-3.7-6.69-9.78-9-9-2.74.93,6.13,8.24,8.78,10.37.62.71,1.61,1.87,2.87,3.47-3.7-1.07-13.72-3.87-14-2.21S59.07,38.39,62,38.79c.86,1.14,1.78,2.37,2.74,3.75-3.51-1-13.93-4-14.24-2.27S63.11,44,66,44.36c.53.76,1.08,1.6,1.64,2.43-2.81-.62-10.94-2.31-12-.8s9.92,1.81,12.69,1.84c.68,1.05,1.36,2.15,2,3.29-3.27-.64-14.55-2.67-14.67-.92S68,52.63,71.33,52.75c.47.77.9,1.57,1.33,2.4-1.88-.18-15.41-1.44-15.38.46s13.5,1.14,16.15,1c.37.7.74,1.44,1.11,2.18-2.84-.4-15-1.94-15-.12S72,60.35,75.28,60.29c.55,1.14,1.08,2.3,1.57,3.5-.8-.24-15-4.58-15.35-2.61s14.61,4,16,4.18c.4,1,.77,2,1.14,3-2.59-.77-14.55-4.28-14.89-2.46S76.17,69.58,79.19,70c.28.83.53,1.69.77,2.52-2.68-.8-14.51-4.25-14.82-2.46s12,3.6,15.28,4.06A55,55,0,0,1,82,82.4l1-.09a56.6,56.6,0,0,0-1.48-8.09C84.43,72.71,95.12,66.5,94.17,65Z"/></g><path class="cls-6" d="M100.55,19.9s-5.12-7.84-10.76-2.3c-2,2.46-3.57,6.64-6.56,8.27-2.47,1.29-5,4.43-3.08,7.94,1.2,2.55-3.33,5.1-5.55,6.55s-3.42,5.19-1.36,9.87-4.77,4.09-6.9,9.2,1.11,6,1.88,8.85-.92,4.09-1.35,8.52S72,87.11,78.39,84,94.69,78.5,104,82.92s10.23,3.23,12.82.77,5,.43,7.18.1,4.62-3.23,9.46-3.85,3-5.29.68-8.7.25-6.89,1-9,.58-4.95-3.76-7.22c-2.41-1.79-1.73-7.72-3.15-9.29-3.42-3.75-6.41-1.79-8.53-4.61s.58-5.3-1.45-7.51-3.92-1.2-3.33-4.67,1.45-7.75-2.47-10.15S104.22,15.91,100.55,19.9Z"/><path class="cls-7" d="M119.69,107.59c0,.59,3.91,5.87,3.91,5.87l13,.1,7.77,2.12-5.73-6.31-11.34-1-1.36-6.12Z"/><path class="cls-6" d="M134.36,110.3c2.09.18,4.37.06,5.94,1.63,1.14,1.14,2.22,2.33,3.33,3.47.09.09.28-.06.16-.15a32.07,32.07,0,0,0-4.2-4.28c-1.41-1-3.6-.76-5.27-.92C134.2,110.05,134.2,110.3,134.36,110.3Z"/><path class="cls-6" d="M143.54,115.16a22.38,22.38,0,0,0-5.18-2.46,27.08,27.08,0,0,0-5.48-.53.11.11,0,1,0,0,.22,26.56,26.56,0,0,1,5.42.52,23.8,23.8,0,0,1,5.12,2.43C143.54,115.43,143.66,115.22,143.54,115.16Z"/><path class="cls-7" d="M93.34,43.5s0,.27.06.7a22.8,22.8,0,0,1-.16,4.86,11.16,11.16,0,0,0,9.84-.18,12.08,12.08,0,0,1-.31-6.12C100.73,44.36,95.46,44.66,93.34,43.5Z"/><path class="cls-8" d="M93.24,43.71s1.51,3.17,4.57,3,4.46-1.72,5-4C100.76,42,93.24,43.71,93.24,43.71Z"/><path class="cls-9" d="M125.39,104.85l-.19-33.92c-.58-25.22-14.39-20-17.75-19.56-2.43.34-3.63-.46-4.13-.95.28-1.45.62-3.79,0-3.79-.86,0-.8,1-1.35,1s-.25-.93-.93-.77-.43.67-1.11.77-.52-.8-1.08-.68-.77.68-1.35.58-.59-.46-1.3-.3-.64.52-1.11.18a1.2,1.2,0,0,0-1.41,0c-.53.31-1.08-.74-1.08-.74a37.48,37.48,0,0,0,.24,4c-.06,0-8.28.06-11.71,3.2s-5.45,33.56-5.45,33.56l38.34,12s-3.12-11.19-3.24-15.75c-.09-3.9,2.47-15.41,2.47-15.41l5.45,39.31Z"/><path class="cls-10" d="M111.7,51.83s10.14-2.28,11.5,17,1.26,33.86,1.26,33.86"/><path class="cls-10" d="M109.42,53.92s10.14-2.28,11.5,17,1.26,33.86,1.26,33.86"/><path class="cls-10" d="M106.77,57.06s10.14-2.28,11.5,17S120.09,105,120.09,105"/><path class="cls-10" d="M86.9,52.29s-5-.25-7,14.83-2.22,20.6-2.22,20.6"/><path class="cls-10" d="M88,55.34s-4.53,2.21-5.74,14S80,90.43,80,90.43"/><path class="cls-10" d="M90,59.86S85.42,65.24,84,77.66s-1.11,19-1.11,19"/><path class="cls-10" d="M103.35,46.14s-1.69,13.19-1.54,19.16"/><path class="cls-10" d="M94,46.79l-.52,18.36"/><path class="cls-10" d="M96.48,46.57l0,18.15"/><path class="cls-10" d="M99.69,46.75c0,.25-.77,18-.77,18"/><path class="cls-10" d="M105.33,50.66l-.93,14"/><path class="cls-10" d="M107.05,62.93l.68-12.24"/><path class="cls-10" d="M91.49,50.42l-.34,13.19"/><path class="cls-10" d="M89.21,50.75c-.09.25-.59,10.31-.59,10.31"/><path class="cls-11" d="M87.91,51.28s5.64,9.65,19.17,5.9c-4.84,5.17-16.21,5.51-18.61.19S87.91,51.28,87.91,51.28Z"/><path class="cls-11" d="M85,60.07c-.34.74-4.32,2.56-3.76,16.49S79.72,93,79.72,93l6.1.28s2.22-18,.18-22S85,60.07,85,60.07Z"/><path class="cls-11" d="M97.07,47.52s2.4,3.23,6.1,3.17.74-5.1.74-5.1S98.67,46.26,97.07,47.52Z"/><path class="cls-11" d="M117.34,51.21c-.18.19-6.25,13.63-4.62,22.49-3.17-13.87-2.49-22.27-.74-24S117.34,51.21,117.34,51.21Z"/><path class="cls-9" d="M117.28,105.62s8.26-6.49,8.88-6.36,1.48,2.49,1.26,3.9-8,5.51-9.21,4.89S116.6,106.3,117.28,105.62Z"/><path class="cls-9" d="M23,125.58l.13,1.2,20.15-4-.15-1.66Z"/><path class="cls-7" d="M36.88,110.82c-.28.49-1.54,6.61-1.54,6.61s3.82,4.09,6.78,1.57c.18.15,1.11-2.15,1.11-2.15l2-4Z"/><path class="cls-6" d="M35.59,116.42S25.57,120,23,125.74c6.75-1.29,20.22-3.94,20.22-3.94l0-4.92s-2.81,1.87-5.27,1.26S35.59,116.42,35.59,116.42Z"/><path class="cls-12" d="M32.41,117.89a2.78,2.78,0,0,1,2.16,1.45c.06.12.28,0,.18-.12a2.92,2.92,0,0,0-2.34-1.57C32.26,117.65,32.26,117.86,32.41,117.89Z"/><path class="cls-12" d="M40.61,122.29a3.2,3.2,0,0,1,2.5-3.11c.15,0,.09-.24-.07-.21a3.43,3.43,0,0,0-2.68,3.35A.13.13,0,0,0,40.61,122.29Z"/><path class="cls-12" d="M27.42,120.85c.52.12,1.6.06,1.66.8,0,.15.25.15.22,0-.09-.93-1.17-.83-1.85-1C27.36,120.6,27.3,120.82,27.42,120.85Z"/><path class="cls-12" d="M29.92,119.06a2,2,0,0,1,2,1.51c0,.15.25.09.21-.06a2.17,2.17,0,0,0-2.18-1.69C29.76,118.85,29.76,119.06,29.92,119.06Z"/><path class="cls-9" d="M2,113.9,1.63,115l19.93,5,.56-1.6Z"/><path class="cls-7" d="M20.89,106.48c-.47.34-4.23,5.35-4.23,5.35s1.7,5.36,5.46,4.31c.12.22,1.94-1.48,1.94-1.48l3.55-2.83Z"/><path class="cls-6" d="M17.31,111s-10.6-1-15.38,3.08c6.66,1.69,20,5,20,5L24,114.63s-3.33.53-5.3-1.1S17.31,111,17.31,111Z"/><path class="cls-12" d="M9.18,111.5a2.07,2.07,0,0,1,.55,1.66c0,.15.22.15.22,0a2.29,2.29,0,0,0-.62-1.85C9.24,111.22,9.08,111.37,9.18,111.5Z"/><path class="cls-12" d="M11.86,111.1a3,3,0,0,1,.71,2.06.11.11,0,1,0,.21,0,3.32,3.32,0,0,0-.77-2.25C11.92,110.82,11.76,111,11.86,111.1Z"/><path class="cls-12" d="M14.57,110.88a3.88,3.88,0,0,1,.4,2.49c0,.16.18.22.22.06a4.11,4.11,0,0,0-.44-2.64C14.72,110.64,14.51,110.76,14.57,110.88Z"/><path class="cls-12" d="M19.59,118.57a4,4,0,0,1,3.51-2c.16,0,.16-.25,0-.21a4.44,4.44,0,0,0-2.09.46,4.55,4.55,0,0,0-1.63,1.63C19.31,118.6,19.53,118.72,19.59,118.57Z"/><path class="cls-13" d="M114.39,99.16c.09,0-2.53-26.91-.87-31.21,0,0-4.1-9.66-1.2-17.38-.22-.55-3-.55-3.33.34,0,0,.25,5.16-4,7.78-5,3.07-11.9,2.27-14.64-1.42s-2.28-6-2.28-6a2.32,2.32,0,0,0-3,.58c0,3.81,1.11,6.89-2.81,14.27-1,2.22,3,8,2.9,10.33s.74,6.74-3.36,13.48c-1.6-2.06-13.16-16.77-17.07-17.23S52,75.14,46.8,83.39c-4.19,1.26-10.41,5.25-21.66,15-8.88,7.51-9,8.31-9,8.31l11.62,10.67,21-16.7s40.19,21.59,54.77,16.12C116.57,111.93,114.88,101.32,114.39,99.16Z"/><path class="cls-14" d="M86.31,50.48s-.46,11.93,9,13.16S110,54.32,109.55,50C107.39,52,86.31,50.48,86.31,50.48Z"/><path class="cls-14" d="M24.06,115c.46-.46,26.2-21.34,26.2-21.34s45.17,28.72,65,10.33c-2.41,8.64-9.68,23.87-44,11.14C52,105.34,51,102.52,51,102.52l-22.52,18Z"/><path class="cls-14" d="M84.34,73.08s4.68,10.64.25,17.63c-1.21,1.35-1.7,1.44-1.7,1.44L81.1,88.31S84.59,83,84.34,73.08Z"/><path class="cls-14" d="M82.12,92.06S51,76.37,50.72,76.31,43.81,83,43.81,83A14,14,0,0,1,49.12,82C51.21,82.28,82.12,92.06,82.12,92.06Z"/><path class="cls-13" d="M49.58,99.9l-1.73,14.46L32.26,114Z"/><path d="M45.69,83.75c4-1.5,8.11-.33,12,.83S65.6,87,69.52,88.24Q81.58,92.13,93.68,96c.15.07.21-.18.06-.24-8.45-2.71-16.86-5.44-25.3-8.12-4.07-1.29-8.17-2.61-12.27-3.75-3.45-1-7.09-1.66-10.54-.34C45.48,83.57,45.54,83.79,45.69,83.75Z"/><path d="M48.38,101.16c1.17-1.63.52-3.75.15-5.56,0-.19-.31-.1-.28.06.37,1.72,1,3.78-.12,5.35C48,101.16,48.25,101.29,48.38,101.16Z"/><path d="M33.21,113.59a201.87,201.87,0,0,1,16.21-13.26c.13-.09,0-.31-.12-.21A198.33,198.33,0,0,0,33.06,113.4C32.9,113.5,33.09,113.68,33.21,113.59Z"/><path class="cls-15" d="M89.33,32.51a1.66,1.66,0,0,0-2.9,0c-1.29,1.9,1.54,4.39,3.24,3Z"/><path class="cls-6" d="M88.1,33.19a3.92,3.92,0,0,1,1.32,2.62c0,.15.28.15.25,0A4.26,4.26,0,0,0,88.28,33C88.16,32.88,88,33.07,88.1,33.19Z"/><path class="cls-6" d="M88.78,33.81a2.84,2.84,0,0,0-.87.06c-.15,0-.09.28.06.25a3.17,3.17,0,0,1,.81-.07C88.93,34.08,88.93,33.84,88.78,33.81Z"/><path class="cls-15" d="M107.89,33.44a1.66,1.66,0,0,1,2.83.67c.83,2.13-2.5,4-3.85,2.22C107.15,35.59,107.89,33.44,107.89,33.44Z"/><path class="cls-6" d="M108.81,34.15a4.21,4.21,0,0,0-2,2.39c-.06.16.19.22.25.07A3.89,3.89,0,0,1,109,34.36C109.08,34.3,109,34.08,108.81,34.15Z"/><path class="cls-6" d="M108.1,35.1a3.24,3.24,0,0,1,.77.21c.16.07.28-.15.12-.21a2.83,2.83,0,0,0-.83-.25C108,34.82,108,35.07,108.1,35.1Z"/><path class="cls-7" d="M89.61,27.69s-3,16,6.44,17.4c8.63,1.3,12.76-10.85,13.22-15.28-1.6-2.83-4.78-9.44-16.52-6.37A5.52,5.52,0,0,0,89.61,27.69Z"/><path class="cls-16" d="M88.28,35.65c0,.52-.18.92-.4.92s-.4-.43-.4-.92.19-.92.4-.92S88.28,35.13,88.28,35.65Z"/><path class="cls-17" d="M91.67,41.08a3.91,3.91,0,1,0-4.48,3.24A3.91,3.91,0,0,0,91.67,41.08Z"/><path class="cls-16" d="M108.53,36.91c-.09.53-.37.89-.59.83s-.3-.49-.21-1,.37-.89.58-.83S108.62,36.39,108.53,36.91Z"/><path class="cls-17" d="M110.93,42.3a3.91,3.91,0,1,1-3.08-4.59A3.87,3.87,0,0,1,110.93,42.3Z"/><path class="cls-6" d="M100.86,29.93a3.48,3.48,0,0,1,4.74.71c.13.15.31-.06.19-.19a3.78,3.78,0,0,0-5.09-.76C100.58,29.81,100.7,30.05,100.86,29.93Z"/><path class="cls-6" d="M98.51,30.15a32.12,32.12,0,0,0-1.69,5.75c-.12,1,0,1.47,1,1.66.12,0,.18-.16.06-.19-1.6-.3-.56-2.73-.25-3.75s.71-2.27,1.11-3.41C98.73,30.09,98.55,30,98.51,30.15Z"/><path class="cls-18" d="M100.89,32.3s.09,1.08,1.6,1.29a2.63,2.63,0,0,0,2.16-.58,2.3,2.3,0,0,0-3.18-1Z"/><path class="cls-6" d="M104.74,32.92a2.45,2.45,0,0,0-1.54-1.27,2.58,2.58,0,0,0-2.25.5c-.12.09,0,.15.15.06a2.32,2.32,0,0,1,2-.31A2.26,2.26,0,0,1,104.49,33C104.59,33.16,104.8,33.07,104.74,32.92Z"/><path class="cls-6" d="M103.88,32.05s0,0,0-.06h0v0a0,0,0,0,1,0,0l.09-.12c.06-.09.16-.19.22-.28a.14.14,0,0,0,0-.18.13.13,0,0,0-.19,0c-.06.09-.15.18-.21.27a1.39,1.39,0,0,0-.19.28c0,.06,0,.15.06.15S103.85,32.12,103.88,32.05Z"/><path class="cls-6" d="M104.77,33a3.19,3.19,0,0,1,.43-.34s0,0,.06-.1a.11.11,0,0,0,0-.09c0-.06-.12-.06-.18,0s-.28.25-.43.34-.07.12,0,.19A.14.14,0,0,0,104.77,33Z"/><path class="cls-6" d="M102.67,31.68c0-.27.07-.55.13-.83a.16.16,0,0,0-.09-.15.17.17,0,0,0-.16.09,7.54,7.54,0,0,1-.12.83.18.18,0,0,0,.09.16A.11.11,0,0,0,102.67,31.68Z"/><path class="cls-6" d="M103.32,32.58a.89.89,0,0,1-1.78.18.89.89,0,1,1,1.78-.18Z"/><path class="cls-6" d="M104.22,33.25a3,3,0,0,1-1.27.37c-.15,0-.18.06.19.06a2.16,2.16,0,0,0,1.14-.3,2.93,2.93,0,0,0,.43-.34c.12-.13-.06-.22-.19-.09A.85.85,0,0,1,104.22,33.25Z"/><path class="cls-6" d="M91.49,29.44a3.47,3.47,0,0,1,4.78.18c.12.13.3-.06.18-.18a3.74,3.74,0,0,0-5.15-.19C91.18,29.38,91.37,29.53,91.49,29.44Z"/><path class="cls-18" d="M92,31.07s0,1.08,1.54,1.38A2.71,2.71,0,0,0,95.68,32a2.32,2.32,0,0,0-3.11-1.23C92.11,31,92,31.07,92,31.07Z"/><path class="cls-6" d="M91.92,30.85a2.42,2.42,0,0,1,1.94-.39,2.68,2.68,0,0,1,1.79,1.47c.06.15-.12.12-.19,0A2.38,2.38,0,0,0,92.07,31C92,31.13,91.8,31,91.92,30.85Z"/><path class="cls-6" d="M93.06,30.46v-.07h0v-.06c0-.06,0-.09,0-.15s-.06-.22-.09-.34a.11.11,0,0,1,.09-.15c.06,0,.12,0,.15.09s.06.21.1.34a1.28,1.28,0,0,1,.06.34.13.13,0,0,1-.13.12C93.12,30.58,93.06,30.55,93.06,30.46Z"/><path class="cls-6" d="M91.89,30.92a3.89,3.89,0,0,1-.25-.5s0-.06,0-.09,0-.06.06-.09.16,0,.19,0,.15.34.25.49,0,.16,0,.19S91.92,31,91.89,30.92Z"/><path class="cls-6" d="M94.32,30.61c.1-.28.16-.56.25-.83,0-.06.09-.13.15-.09s.13.09.1.15c-.1.28-.16.55-.25.83,0,.06-.09.12-.15.09S94.29,30.7,94.32,30.61Z"/><path class="cls-6" d="M94.35,31.47a.86.86,0,0,1-.86.92.89.89,0,1,1-.06-1.78A.89.89,0,0,1,94.35,31.47Z"/><path class="cls-6" d="M92.26,31.53a1.53,1.53,0,0,0,.58.62c.13.09.37.27,0,.12a1.55,1.55,0,0,1-.77-.68,1.53,1.53,0,0,1-.18-.52c0-.15.15-.15.21,0A.78.78,0,0,0,92.26,31.53Z"/><path class="cls-18" d="M93.4,38a12.6,12.6,0,0,0,7.77.58,4,4,0,0,1-6,1.94A6,6,0,0,1,93.4,38Z"/><path class="cls-19" d="M93.4,38a16.43,16.43,0,0,1,3.54.52c.56.34.34.68.34.68S93.89,38.51,93.4,38Z"/><path class="cls-19" d="M101.2,38.6a14.59,14.59,0,0,0-3.46,0c-.58.28-.43.62-.43.62S100.64,39,101.2,38.6Z"/><path class="cls-19" d="M93.37,38s2.62,4.12,7.8.61c-.71,2.07-3.67,3.76-6,2A6.26,6.26,0,0,1,93.37,38Z"/><path class="cls-20" d="M93.09,36.48a1.66,1.66,0,1,0-1.69-1.66A1.68,1.68,0,0,0,93.09,36.48Z"/><path class="cls-20" d="M103.91,35.77a1.7,1.7,0,1,1-1.7-1.66A1.68,1.68,0,0,1,103.91,35.77Z"/><path class="cls-6" d="M107.73,20.77c-2.65-1.08-6.13-1.51-8.75.27-8.54-6.43-12.76,2.71-13,5.26s2,6.8,3.3,8c.25-3.6,2-6.74,3.82-7.29.34,0,.65,0,1,0a8.47,8.47,0,0,0,2.18-.19,3.7,3.7,0,0,0,2.1-2.21,3.93,3.93,0,0,0,2,2.92,5.6,5.6,0,0,0,2.35.49c.58,0,1.17,0,1.75,0a3.13,3.13,0,0,1,2.5,2.4,30.18,30.18,0,0,1,.58,5.32s3.67-4.24,3.7-7.1S110.41,21.87,107.73,20.77ZM95.86,26.61a8.88,8.88,0,0,1-1.78.12l1.48-.27A4.4,4.4,0,0,0,98,24.52,3.33,3.33,0,0,1,95.86,26.61Zm7.25,1.14a6.06,6.06,0,0,1-2.47-.37,3.7,3.7,0,0,1-2.13-2.8,3.39,3.39,0,0,0,1.76,2.18,14.46,14.46,0,0,0,3.18,1Z"/><path class="cls-21" d="M114,22.34c.09,0,.12-.16,0-.16S113.92,22.34,114,22.34Z"/><path class="cls-21" d="M109.73,21.75h.06c.1,0,.13-.15,0-.15h-.06C109.61,21.6,109.61,21.75,109.73,21.75Z"/><g class="cls-22"><g class="cls-22"><g class="cls-22"><path class="cls-23" d="M124.62,56c.09,0,.12-.15,0-.15S124.49,56,124.62,56Z"/></g></g><g class="cls-22"><g class="cls-22"><g class="cls-22"><path class="cls-23" d="M101.84,25h-.09c-.09,0-.12.15,0,.15h.09A.07.07,0,1,0,101.84,25Z"/></g></g><g class="cls-22"><g class="cls-22"><path class="cls-23" d="M116.7,34.48c.09,0,.12-.15,0-.15S116.57,34.48,116.7,34.48Z"/></g></g><g class="cls-22"><g class="cls-22"><path class="cls-23" d="M105.42,49.55c.09,0,.12-.15,0-.15S105.29,49.55,105.42,49.55Z"/></g></g><g class="cls-22"><g class="cls-22"><path class="cls-23" d="M107.2,42.48c.1,0,.13-.15,0-.15A.08.08,0,0,0,107.2,42.48Z"/></g></g><g class="cls-22"><g class="cls-22"><path class="cls-23" d="M117.68,46.88c.1,0,.13-.16,0-.16A.08.08,0,1,0,117.68,46.88Z"/></g></g><g class="cls-22"><g class="cls-22"><path class="cls-23" d="M127.88,50.57h.1c.09,0,.12-.15,0-.15h-.1C127.76,50.42,127.76,50.57,127.88,50.57Z"/></g></g><g class="cls-22"><g class="cls-22"><path class="cls-23" d="M134.2,61.39h-.09c-.09,0-.12.16,0,.16h.09C134.29,61.58,134.29,61.39,134.2,61.39Z"/></g></g><g class="cls-22"><g class="cls-22"><g class="cls-22"><path class="cls-23" d="M100.52,20.09a15.7,15.7,0,0,0-2.41,4.18.08.08,0,1,0,.16,0,14.53,14.53,0,0,1,2.37-4.09C100.7,20.12,100.58,20,100.52,20.09Z"/></g></g><g class="cls-22"><g class="cls-22"><path class="cls-23" d="M99.9,21.23a9.56,9.56,0,0,1,8.82-1.63c3.14,1.07,4.34,3.38,4.22,6.64-.1,2.43-.68,5.26.86,7.41.86,1.23,2.5,1.72,2.93,3.29s-.1,3,0,4.49a4.43,4.43,0,0,0,3.14,4.13c1.26.4,2.65.24,3.91.58,2.25.61,2.75,2.64,2.65,4.71s-.77,4.42.62,6.15a4.68,4.68,0,0,0,2.34,1.32,6.17,6.17,0,0,1,1.7.68c1.45,1,.49,2.86-.22,4a6.49,6.49,0,0,0-.28,6.46c.68,1.29,1.82,1.73,2.72,2.77,1.35,1.57-.31,5.2-.8,7a.08.08,0,1,0,.15,0c.46-1.69,1.33-3.63,1.45-5.35a2.32,2.32,0,0,0-1.17-2.15c-3.08-2.43-3.76-5.66-1.7-9,1.11-1.82,1.2-3.36-1-4.22-1.67-.67-3.27-1-3.82-3-.41-1.54,0-3.14.06-4.68.12-2.39-.62-4.45-3.18-5-1.48-.3-3.08-.12-4.43-.89-2.07-1.2-2.16-3.29-2-5.41a7.11,7.11,0,0,0-.21-3.11c-.65-1.57-2.47-2.09-3.21-3.66-1.45-3.1.31-6.55-.71-9.72-.61-2-2.55-3.2-4.43-3.75a9.77,9.77,0,0,0-8.57,1.75C99.75,21.14,99.81,21.29,99.9,21.23Z"/></g></g><g class="cls-22"><g class="cls-22"><path class="cls-23" d="M98.67,23.07c0,2.16,2.46,2.74,4.16,3.05,1.08.21,2.22.27,3.3.55,2.77.74,4.65,3.38,3.29,6.15-.06.09.1.19.16.09,1.39-2.82-.5-5.62-3.39-6.39-2.1-.56-7.4-.28-7.34-3.42C98.85,23,98.67,23,98.67,23.07Z"/></g></g><g class="cls-22"><g class="cls-22"><path class="cls-23" d="M99.19,22.21c1.57,2.31,4,2.37,6.47,2.8a6.42,6.42,0,0,1,4.6,2.55,5.12,5.12,0,0,1-.31,5.51c-.06.09.09.18.15.09,1.42-2.31,1.39-5.23-.92-7-3-2.28-7.49-.59-9.86-4C99.28,22.06,99.13,22.12,99.19,22.21Z"/></g></g><g class="cls-22"><g class="cls-22"><path class="cls-23" d="M128,81.6a20.68,20.68,0,0,1,1.26-5.81,1.74,1.74,0,0,0-.58-2.22c-1.14-.86-2.22-1.23-3-2.58a5.37,5.37,0,0,1,.12-5.32c.59-1,1.48-1.91,1.39-3.14a3.5,3.5,0,0,0-1.45-2.24c-1.39-1.23-2.68-2.4-2.65-4.4,0-1.42.77-2.68.06-4-1.33-2.58-4.75-2.37-7-3.66s-2.61-3.48-2.31-5.81a7.51,7.51,0,0,0-.37-3.91,28,28,0,0,1-2-7.69c-.12-1.81.34-3.5-.31-5.29-1.78-4.8-7.73-4.3-11.83-3.72-.09,0-.06.19,0,.15,4.62-.64,11.34-.83,12,5.23.18,1.73-.16,3.42.12,5.17.37,2.43,1.42,4.58,2.1,6.92.8,2.77-.93,5.44,1.11,7.94,1.78,2.18,4.87,1.84,7,3.38a3.31,3.31,0,0,1,1.57,2.83c0,.83-.36,1.66-.4,2.49a4.79,4.79,0,0,0,.9,2.8c.8,1.11,2.15,1.69,2.83,2.86,1.11,1.81-.74,3.29-1.38,4.83a5.59,5.59,0,0,0,1.23,6,7,7,0,0,0,1.32.92A2.06,2.06,0,0,1,129,76.16a17.12,17.12,0,0,0-1.11,5.44C127.88,81.69,128,81.69,128,81.6Z"/></g></g><g class="cls-22"><g class="cls-22"><path class="cls-23" d="M107.54,37.31a33.86,33.86,0,0,0,2.07,3.45,7,7,0,0,1,1,4.61c-.15,2.06.22,4,2,5.26.09.06.18-.09.09-.15a4.87,4.87,0,0,1-1.94-4.22,15.25,15.25,0,0,0,.09-3.16c-.43-2.22-2.19-3.88-3.11-5.88C107.64,37.13,107.51,37.19,107.54,37.31Z"/></g></g><g class="cls-22"><g class="cls-22"><path class="cls-23" d="M104.86,41.34c1.51,3.14,1.73,6.55,1.76,10,0,.09.15.12.15,0,0-3.48-.21-6.89-1.75-10.09C105,41.16,104.83,41.25,104.86,41.34Z"/></g></g></g><g class="cls-22"><g class="cls-22"><path class="cls-23" d="M115.25,37.93l-.06.06c-.06.06,0,.18.12.12l.06-.06C115.43,38,115.31,37.87,115.25,37.93Z"/></g></g><g class="cls-22"><g class="cls-22"><path class="cls-23" d="M128.53,62.26c.09,0,.12-.16,0-.16S128.44,62.26,128.53,62.26Z"/></g></g><g class="cls-22"><g class="cls-22"><path class="cls-23" d="M131.52,75.08c.09,0,.12-.15,0-.15A.08.08,0,0,0,131.52,75.08Z"/></g></g><g class="cls-22"><g class="cls-22"><path class="cls-23" d="M123.85,44.91c.09,0,.12-.15,0-.15S123.75,44.91,123.85,44.91Z"/></g></g><g class="cls-22"><g class="cls-22"><path class="cls-23" d="M129.42,56.47c.1,0,.13-.15,0-.15A.08.08,0,0,0,129.42,56.47Z"/></g></g><g class="cls-22"><g class="cls-22"><path class="cls-23" d="M131.83,67.88c.09,0,.12-.15,0-.15S131.74,67.88,131.83,67.88Z"/></g></g><g class="cls-22"><g class="cls-22"><path class="cls-23" d="M127.36,69.42l-.12.13c-.07.06,0,.18.12.12l.12-.12C127.54,69.48,127.42,69.36,127.36,69.42Z"/></g></g><g class="cls-22"><g class="cls-22"><path class="cls-23" d="M127.14,77.67c.1,0,.13-.16,0-.16S127.05,77.67,127.14,77.67Z"/></g></g><g class="cls-22"><g class="cls-22"><path class="cls-23" d="M113.09,48.14c.09,0,.12-.15,0-.15S113,48.14,113.09,48.14Z"/></g></g><g class="cls-22"><g class="cls-22"><path class="cls-23" d="M111.73,38.33c.1,0,.13-.16,0-.16S111.64,38.33,111.73,38.33Z"/></g></g><g class="cls-22"><g class="cls-22"><path class="cls-23" d="M109,48.82c.09,0,.13-.16,0-.16A.08.08,0,1,0,109,48.82Z"/></g></g><g class="cls-22"><g class="cls-22"><path class="cls-23" d="M104.46,46.05c.09,0,.13-.16,0-.16S104.34,46.05,104.46,46.05Z"/></g></g><g class="cls-22"><g class="cls-22"><path class="cls-23" d="M106.16,23.07c.09,0,.12-.15,0-.15A.08.08,0,0,0,106.16,23.07Z"/></g></g><g class="cls-22"><g class="cls-22"><path class="cls-23" d="M114.17,28.27c.09,0,.12-.15,0-.15S114.05,28.27,114.17,28.27Z"/></g></g><g class="cls-22"><g class="cls-22"><path class="cls-23" d="M103.2,20.7h-.06c-.1,0-.13.16,0,.16h.06C103.29,20.86,103.29,20.7,103.2,20.7Z"/></g></g><g class="cls-22"><g class="cls-22"><path class="cls-23" d="M108.07,29.72c.09,0,.12-.16,0-.16S108,29.72,108.07,29.72Z"/></g></g><g class="cls-22"><g class="cls-22"><path class="cls-23" d="M107.82,18.24h-.06c-.09,0-.12.16,0,.16h.06C107.91,18.4,107.91,18.24,107.82,18.24Z"/></g></g></g></g><g class="cls-22"><g class="cls-22"><g class="cls-22"><path class="cls-23" d="M98.61,23.07c-2,2-5.09,2-7.55,3.11a5.43,5.43,0,0,0-3.33,5.41c0,.09.18.13.15,0-.34-6.7,7.46-5,10.85-8.39C98.79,23.1,98.67,23,98.61,23.07Z"/></g></g><g class="cls-22"><g class="cls-22"><path class="cls-23" d="M99,21.9a14.45,14.45,0,0,1-5.67,1.91,10.35,10.35,0,0,0-4.53,1.6c-2.28,1.75-2.65,4.34-2.47,7,0,.1.19.1.16,0-.25-3.56.83-6.79,4.56-8,2.74-.89,5.48-.83,8-2.43C99.19,22,99.13,21.84,99,21.9Z"/></g></g><g class="cls-22"><g class="cls-22"><path class="cls-23" d="M100,21a6.72,6.72,0,0,0-5-3.05c-2.25-.18-3.91,1-5.21,2.77a36.67,36.67,0,0,1-2.62,3.72c-1.11,1.14-2.59,1.82-3.7,3-2.21,2.21-1.41,4.27-1.1,7.07.55,5-7.34,5.35-6.88,10.15a13.36,13.36,0,0,0,1,3,13.5,13.5,0,0,1,.89,4.25c0,3.66-3.48,5-5.61,7.35a6.8,6.8,0,0,0-1.51,7c.68,1.76,2,3,2.19,5a11,11,0,0,1-1.66,6.28c-.06.09.09.18.15.09a10.76,10.76,0,0,0,1.6-6.86A8,8,0,0,0,71,67.39a6.53,6.53,0,0,1-.89-5c.74-3.2,3.64-4.58,5.79-6.7a5.56,5.56,0,0,0,1.51-4.93,16.77,16.77,0,0,0-.83-3.26c-.4-1.13-1.08-2.36-1-3.59.21-2.22,2.49-3.45,4.1-4.65,1.35-1,2.62-2.15,2.83-3.94.15-1.26-.46-2.61-.55-3.87-.16-2.31,1.23-3.91,3-5.2a12.73,12.73,0,0,0,3-2.52c1-1.26,1.7-2.74,2.78-3.91,2.74-2.92,7-1.84,9.15,1.23C99.87,21.14,100,21,100,21Z"/></g></g><g class="cls-22"><g class="cls-22"><path class="cls-23" d="M79.28,58.2a8.56,8.56,0,0,0-4.59,7.56c0,4.62.9,9.2-1.45,13.44-.06.09.1.19.16.09C75.19,76,75.13,72.47,75,68.84c-.09-1.91-.34-4,.31-5.85a8.91,8.91,0,0,1,4.1-4.64C79.47,58.29,79.38,58.17,79.28,58.2Z"/></g></g><g class="cls-22"><g class="cls-22"><path class="cls-23" d="M99.25,22a5,5,0,0,0-4.4-1.7c-2.07.25-3.48,1.73-5,3S86.13,25.66,85,27.47a7.76,7.76,0,0,0-1,4.83,45,45,0,0,0,1.17,5.44c.46,2.46-1,4.46-2.5,6.25-1,1.2-2.43,2.61-2.74,4.18-.37,1.91,1,3.69,1.32,5.5,0,.1.19.07.16,0-.31-1.9-1.88-3.87-1.2-5.84.55-1.63,2.06-3,3.11-4.34a10.11,10.11,0,0,0,1.94-3.41,7.11,7.11,0,0,0-.37-4,16,16,0,0,1-.74-5.23,7,7,0,0,1,.8-2.92,8.06,8.06,0,0,1,2.71-2.55c1.7-1.2,3.15-2.8,4.87-4a5,5,0,0,1,6.66.71C99.19,22.15,99.32,22,99.25,22Z"/></g></g><g class="cls-22"><g class="cls-22"><path class="cls-23" d="M88.25,36.18c.53,3.16,1.27,6-.28,9-1,1.87-2.06,3.53-2.28,5.72,0,.09.16.09.16,0,.28-2.86,2.34-4.83,3.05-7.51.62-2.37-.09-4.92-.49-7.26C88.41,36,88.25,36.05,88.25,36.18Z"/></g></g><g class="cls-22"><g class="cls-22"><path class="cls-23" d="M92.17,43.46c.18,2.83-2.16,4.77-2.65,7.42,0,.09.15.15.15,0,.52-2.68,2.83-4.62,2.65-7.48C92.32,43.34,92.17,43.34,92.17,43.46Z"/></g></g><g class="cls-22"><g class="cls-22"><g class="cls-22"><path class="cls-23" d="M92.85,17.32v-.09a.25.25,0,0,0-.5,0v.09A.25.25,0,1,0,92.85,17.32Z"/></g></g><g class="cls-22"><g class="cls-22"><g class="cls-22"><path class="cls-23" d="M68,59.3a.12.12,0,0,0,0-.24A.12.12,0,1,0,68,59.3Z"/></g></g><g class="cls-22"><g class="cls-22"><path class="cls-23" d="M73.58,68.44a.28.28,0,0,0,0-.56A.28.28,0,0,0,73.58,68.44Z"/></g></g><g class="cls-22"><g class="cls-22"><path class="cls-23" d="M95.68,21a.12.12,0,0,0,0-.24C95.53,20.74,95.53,21,95.68,21Z"/></g></g><g class="cls-22"><g class="cls-22"><path class="cls-23" d="M87.08,29.1H87a.26.26,0,0,0,0,.52h.09A.26.26,0,0,0,87.08,29.1Z"/></g></g><g class="cls-22"><g class="cls-22"><path class="cls-23" d="M82,29.29a.25.25,0,0,0,0-.5C81.69,28.76,81.69,29.29,82,29.29Z"/></g></g><g class="cls-22"><g class="cls-22"><path class="cls-23" d="M84.83,50.42a.25.25,0,0,0,0-.5C84.52,49.89,84.52,50.42,84.83,50.42Z"/></g></g><g class="cls-22"><g class="cls-22"><path class="cls-23" d="M73.58,75a.25.25,0,0,0,0-.49A.25.25,0,1,0,73.58,75Z"/></g></g><g class="cls-22"><g class="cls-22"><path class="cls-23" d="M75.46,53.4a.25.25,0,0,0,0-.49C75.13,52.88,75.13,53.4,75.46,53.4Z"/></g></g><g class="cls-22"><g class="cls-22"><path class="cls-23" d="M87.58,41.53a.25.25,0,0,0,0-.5A.25.25,0,0,0,87.58,41.53Z"/></g></g><g class="cls-22"><g class="cls-22"><path class="cls-23" d="M79.69,43a.25.25,0,0,0,0-.49A.25.25,0,1,0,79.69,43Z"/></g></g><g class="cls-22"><g class="cls-22"><path class="cls-23" d="M74,61.64a.25.25,0,0,0,0-.49A.25.25,0,0,0,74,61.64Z"/></g></g><g class="cls-22"><g class="cls-22"><path class="cls-23" d="M69.08,72.53a.25.25,0,0,0,0-.49A.25.25,0,0,0,69.08,72.53Z"/></g></g><g class="cls-22"><g class="cls-22"><path class="cls-23" d="M78.45,47.49a.14.14,0,1,0,0-.27C78.3,47.22,78.3,47.49,78.45,47.49Z"/></g></g><g class="cls-22"><g class="cls-22"><path class="cls-23" d="M91.09,21.17a.14.14,0,0,0,0-.28A.14.14,0,1,0,91.09,21.17Z"/></g></g><g class="cls-22"><g class="cls-22"><path class="cls-23" d="M97.62,17.29v.06a.14.14,0,1,0,.28,0v-.06A.14.14,0,0,0,97.62,17.29Z"/></g></g><g class="cls-22"><g class="cls-22"><path class="cls-23" d="M82.21,39.47a.14.14,0,1,0,0-.28A.14.14,0,0,0,82.21,39.47Z"/></g></g><g class="cls-22"><g class="cls-22"><path class="cls-23" d="M73.89,43.65a.14.14,0,1,0,0-.28C73.71,43.34,73.71,43.65,73.89,43.65Z"/></g></g><g class="cls-22"><g class="cls-22"><path class="cls-23" d="M89.36,48a.14.14,0,1,0,0-.28A.14.14,0,0,0,89.36,48Z"/></g></g><g class="cls-22"><g class="cls-22"><path class="cls-23" d="M82,48.88H82a.14.14,0,0,0,0-.28H82A.14.14,0,1,0,82,48.88Z"/></g></g><g class="cls-22"><g class="cls-22"><path class="cls-23" d="M76.76,66.72a.14.14,0,0,0,0-.28A.14.14,0,1,0,76.76,66.72Z"/></g></g><g class="cls-22"><g class="cls-22"><path class="cls-23" d="M91.89,22.89h-.06a.26.26,0,0,0,0,.52h.06A.26.26,0,0,0,91.89,22.89Z"/></g></g></g></g></g><path class="cls-24" d="M15.59,56.75A15.23,15.23,0,1,0,.33,41.53,15.24,15.24,0,0,0,15.59,56.75Z"/><path class="cls-25" d="M23.17,33.5A11.1,11.1,0,0,0,12,33.35c-3.54,2-5,5.25-5.24,9.1,0,.55,0,1,.09,1.38.4,3.48,2.07,6.06,5.46,7.32,3.11,1.17,7.3-1.1,6.44-4.76a2.9,2.9,0,0,1,1.88-3.33,17.68,17.68,0,0,1,2.13-.7,4,4,0,0,0,3.08-3.14A5.06,5.06,0,0,0,23.17,33.5Z"/><path class="cls-26" d="M9.08,44.23C9,43.83,9,43.4,9,42.85c.19-3.85,1.7-7.14,5.27-9.1a11.2,11.2,0,0,1,6-1.45A10.82,10.82,0,0,0,12,33.38c-3.57,2-5.08,5.26-5.27,9.1,0,.55,0,1,.09,1.38.4,3.48,2.07,6.06,5.46,7.32a4.84,4.84,0,0,0,2.09.28C11.09,50.2,9.48,47.65,9.08,44.23Z"/><path class="cls-26" d="M23.78,33.9a5.16,5.16,0,0,1,1,4.46,4,4,0,0,1-3.08,3.14,17.68,17.68,0,0,0-2.13.7,2.91,2.91,0,0,0-1.88,3.33c.83,3.62-3.33,5.9-6.44,4.76A9.39,9.39,0,0,1,9,49a8.17,8.17,0,0,0,3.3,2.15c3.11,1.17,7.3-1.1,6.44-4.76a2.9,2.9,0,0,1,1.88-3.33,17.68,17.68,0,0,1,2.13-.7,4,4,0,0,0,3.08-3.14A5.14,5.14,0,0,0,23.78,33.9Z"/><path class="cls-27" d="M10.9,33.38C9.39,36,7.85,38.6,6.34,41.22Z"/><path class="cls-28" d="M13.89,32.12A87.2,87.2,0,0,0,6.4,44.6Z"/><path class="cls-29" d="M16.51,31.87q-4.91,7.52-9.4,15.29Z"/><path class="cls-30" d="M19.16,31.38C15,37,12,43.31,8.56,49.37Z"/><path class="cls-31" d="M21.75,32.24a70.38,70.38,0,0,0-6.07,8.95c-1.91,3.14-3.73,6.33-5.52,9.56"/><path class="cls-32" d="M24.12,32.88A189.26,189.26,0,0,0,11.73,51.71Z"/><path class="cls-33" d="M24.92,35.22c-4.22,5.35-7.45,11.38-11,17.13Z"/><path class="cls-34" d="M26.28,36.57A142.9,142.9,0,0,0,15.83,52.29Z"/><path class="cls-35" d="M7.2,47.62c2.62,1.53,5.06,3.44,7.74,4.83Z"/><path class="cls-36" d="M6.46,41.56q6.9,4,13.78,8.12Z"/><path class="cls-37" d="M6.65,39.71c4.84,2.86,9.64,5.72,14.48,8.55Z"/><path class="cls-38" d="M7.08,38.2,21.93,47Z"/><path class="cls-39" d="M7.76,36.57l15,8.89Z"/><path class="cls-40" d="M8.77,35.16c5,3,10,5.91,15,8.89Z"/><path class="cls-41" d="M10.22,33.78l14.67,8.67Z"/><path class="cls-42" d="M12,32.76l13.78,8.12Z"/><path class="cls-43" d="M14.08,32,26.56,39.4Z"/><path class="cls-44" d="M16.7,31.59,27.57,38Z"/><path class="cls-45" d="M6.34,43.53l12.85,7.59Z"/><path class="cls-46" d="M6.68,45.62,17.56,52Z"/><g class="cls-47"><g class="cls-47"><path class="cls-48" d="M19.28,37.1l-.18-1.29a1.14,1.14,0,0,0-.19-.56.89.89,0,0,0-.77-.24h0a1.72,1.72,0,0,0-.43-.16,2.33,2.33,0,0,0-.37-.46,1.3,1.3,0,0,0-.77-.43c-.55-.06-.95.62-.86,1.17a1.58,1.58,0,0,0,.21.52,1,1,0,0,0,0,.31,1.38,1.38,0,0,0,.5.83,1.28,1.28,0,0,0,.18.68,1.86,1.86,0,0,0,1.67.8c.43,0,.95-.22,1.07-.65A.92.92,0,0,0,19.28,37.1Z"/></g></g><path class="cls-49" d="M19.62,36.76l-.18-1.29a1.14,1.14,0,0,0-.19-.56.89.89,0,0,0-.77-.24h0a2.23,2.23,0,0,0-.43-.16,3.24,3.24,0,0,0-.37-.46,1.3,1.3,0,0,0-.77-.43c-.55-.06-.95.62-.86,1.17a1.5,1.5,0,0,0,.21.52,1,1,0,0,0,0,.31,1.38,1.38,0,0,0,.5.83,1.28,1.28,0,0,0,.18.68,1.86,1.86,0,0,0,1.67.8c.43,0,.95-.22,1.07-.65A1,1,0,0,0,19.62,36.76Z"/><path class="cls-12" d="M17.28,36.17a3.63,3.63,0,0,0,.19.44,2,2,0,0,0,.24.4,1.92,1.92,0,0,0,.34.3,2.08,2.08,0,0,0,.43.19.93.93,0,0,1-.49-.06,1.49,1.49,0,0,1-.4-.31,1.17,1.17,0,0,1-.22-.43A1.64,1.64,0,0,1,17.28,36.17Z"/><path class="cls-48" d="M14.75,38.6c-.09-.24-.24-.49-.3-.7a.8.8,0,0,1-.07-.25c0-.12,0-.28,0-.4a1.08,1.08,0,0,0-.24-.86,1.3,1.3,0,0,0-.34-.21c-.06,0-.15-.16-.22-.22l-.09-.06a.45.45,0,0,0-.46-.37,1.92,1.92,0,0,0-1.54.55,3.17,3.17,0,0,0-.74,1.63,1.63,1.63,0,0,0,.46,1.72,1.4,1.4,0,0,0,.86.25h.28s.06,0,0,0h0a.38.38,0,0,1,.13.15,1.29,1.29,0,0,0,1.63.28A1.27,1.27,0,0,0,14.75,38.6Zm-1.47-2Zm-.93.27Zm1,.09a.19.19,0,0,0,.12.07.66.66,0,0,1,0,.24A2,2,0,0,0,13.34,37Zm.15.07s0,0,0,0Zm-.8,1.66s0,0,.06,0A1.37,1.37,0,0,0,13,39a1,1,0,0,0-.31-.15A.13.13,0,0,0,12.69,38.7Z"/><path class="cls-9" d="M14.41,38.6a4.54,4.54,0,0,0-.3-.67.78.78,0,0,1-.07-.25c0-.12,0-.24,0-.4a1,1,0,0,0-.25-.83,1.88,1.88,0,0,0-.31-.21c-.06,0-.12-.13-.21-.22s-.07,0-.1-.06a.45.45,0,0,0-.43-.37,1.87,1.87,0,0,0-1.51.55,3,3,0,0,0-.71,1.6A1.66,1.66,0,0,0,11,39.4a1.32,1.32,0,0,0,.84.25h.24s.06,0,0,0h0a.38.38,0,0,1,.13.12,1.27,1.27,0,0,0,1.57.28A1.18,1.18,0,0,0,14.41,38.6ZM13,36.67s0,0,0,0Zm-.87.27Zm1,.1a.23.23,0,0,0,.12.06.66.66,0,0,1,0,.24C13.12,37.25,13.09,37.13,13.06,37Zm.12,0Zm-.74,1.63s0,0,.06,0a3.59,3.59,0,0,0,.25.33,1.08,1.08,0,0,0-.28-.15A.33.33,0,0,1,12.44,38.7Z"/><path class="cls-12" d="M11.27,38.14a.83.83,0,0,0,.25.53l.21.18A1,1,0,0,1,12,39a.21.21,0,0,1-.15,0l-.16-.06a.71.71,0,0,1-.27-.18.55.55,0,0,1-.16-.31A.38.38,0,0,1,11.27,38.14Z"/><g class="cls-47"><g class="cls-47"><path class="cls-48" d="M12.23,43h0a2.86,2.86,0,0,0-.28-.4,1.89,1.89,0,0,0,0-.58,1.51,1.51,0,0,0-.34-.8c-.4-.37-1.11-.06-1.36.43a1.88,1.88,0,0,0-.15.55,1.15,1.15,0,0,0-.22.22,1.29,1.29,0,0,0-.09.95v0a1.1,1.1,0,0,0-.25.65,1.88,1.88,0,0,0,.87,1.63,1.06,1.06,0,0,0,1.23.09,2,2,0,0,0,.31-.43c.21-.37.4-.77.62-1.14a1.32,1.32,0,0,0,.18-.55A.9.9,0,0,0,12.23,43Z"/></g></g><path class="cls-49" d="M11.89,42.94h0a1.91,1.91,0,0,0-.28-.4,1.89,1.89,0,0,0,0-.58,1.48,1.48,0,0,0-.34-.8c-.4-.37-1.11-.06-1.36.43a1.88,1.88,0,0,0-.15.55.77.77,0,0,0-.22.22,1.28,1.28,0,0,0-.09,1v0a1.09,1.09,0,0,0-.24.65A1.85,1.85,0,0,0,10,45.62a1.08,1.08,0,0,0,1.23.09,2.24,2.24,0,0,0,.31-.43c.22-.37.4-.77.62-1.14a1.32,1.32,0,0,0,.18-.55A1,1,0,0,0,11.89,42.94Z"/><path class="cls-12" d="M11.58,43.37c.12,0,.18.13.22.22a.43.43,0,0,1,0,.3,1,1,0,0,1-.12.28l-.18.25.09-.28.09-.28a.88.88,0,0,0,.06-.27A.8.8,0,0,0,11.58,43.37Z"/><path class="cls-48" d="M16.57,47.92c-.06-.18-.18-.4-.24-.55s-.07-.12-.07-.22,0-.21,0-.3a.77.77,0,0,0-.19-.68.67.67,0,0,0-.25-.18c-.06,0-.09-.13-.18-.19s0,0-.06,0a.4.4,0,0,0-.34-.31,1.45,1.45,0,0,0-1.17.46,2.64,2.64,0,0,0-.56,1.33,1.41,1.41,0,0,0,.34,1.38,1.21,1.21,0,0,0,.65.22h.18s.06,0,0,0h0a.42.42,0,0,1,.1.12,1,1,0,0,0,1.2.25A1.11,1.11,0,0,0,16.57,47.92Zm-1.11-1.6Zm.06.28s.07,0,.1.06a.64.64,0,0,1,0,.22A.72.72,0,0,0,15.52,46.6Zm.1.06ZM15.06,48l0,0c.06.1.13.19.19.28a.8.8,0,0,0-.22-.12Z"/><path class="cls-9" d="M16.29,47.8c-.06-.18-.18-.37-.24-.55s-.06-.13-.06-.19,0-.21,0-.31a.75.75,0,0,0-.19-.67,2.88,2.88,0,0,0-.24-.19c-.07,0-.13-.12-.19-.15s-.06,0-.06-.06A.37.37,0,0,0,15,45.4a1.61,1.61,0,0,0-1.2.43,2.52,2.52,0,0,0-.56,1.26,1.32,1.32,0,0,0,.34,1.33,1,1,0,0,0,.65.18h.22s.06,0,0,0h0a.41.41,0,0,1,.09.12,1,1,0,0,0,1.26.22A.9.9,0,0,0,16.29,47.8Zm-1-1.2Zm0,0a.58.58,0,0,1,0,.22,1.72,1.72,0,0,0-.09-.25C15.25,46.57,15.28,46.57,15.31,46.6Zm-.59,1.26,0,0c.07.09.13.19.19.28a.8.8,0,0,0-.22-.12Z"/><path class="cls-12" d="M15.06,45.89a1.8,1.8,0,0,0-.43.13,1.48,1.48,0,0,0-.37.21,1.82,1.82,0,0,0-.31.31,1.69,1.69,0,0,0-.21.4.88.88,0,0,1,.12-.46.87.87,0,0,1,.31-.37A1.17,1.17,0,0,1,15.06,45.89Z"/><path class="cls-48" d="M23.88,37.44c0-.22,0-.47-.1-.68a.66.66,0,0,0-.52-.43,3.5,3.5,0,0,0-1.29,0,1.49,1.49,0,0,0-.84.64,1.74,1.74,0,0,0-.34.37,1.24,1.24,0,0,0,.62,2,1.28,1.28,0,0,0,.68.55,1.45,1.45,0,0,0,1.72-1.13A2.83,2.83,0,0,0,23.88,37.44Zm-1.73,1.13Z"/><path class="cls-9" d="M23.94,37.53a3.34,3.34,0,0,0-.1-.62.71.71,0,0,0-.49-.4,3.09,3.09,0,0,0-1.17,0,1.19,1.19,0,0,0-.74.59,1.24,1.24,0,0,0-.31.33,1.21,1.21,0,0,0,.31,1.7,1,1,0,0,0,.25.12,1,1,0,0,0,.65.49,1.33,1.33,0,0,0,1.57-1A3.61,3.61,0,0,0,23.94,37.53Zm-1.6,1h0s0,0,0,0Zm.46-.89Z"/><path class="cls-12" d="M23,36.94a.91.91,0,0,1,.31.16,1,1,0,0,1,.22.27.82.82,0,0,1,.06.37.63.63,0,0,1-.12.34,1.29,1.29,0,0,0,0-.34.51.51,0,0,0-.1-.3,1.08,1.08,0,0,0-.15-.28A.75.75,0,0,0,23,36.94Z"/><path class="cls-50" d="M28.74,49.49l32.73,8.18"/><path class="cls-50" d="M64.17,17.68a14.21,14.21,0,1,0-17,10.71A14.18,14.18,0,0,0,64.17,17.68Z"/><path class="cls-9" d="M45,8.12s1.69-1.75,5.91-2.06a4.09,4.09,0,0,1,1.64-1.87,4,4,0,0,1,.8,2.61c.46,1,5,11.26,5.48,14-2.15,2-7.48,4.27-11.43,2.09-1.26-.58-1.29-.68-1.29-.68a6.83,6.83,0,0,0,1-4.3c-.58-.13-3.23-.68-3.88-4.37a34.81,34.81,0,0,1-.8-6.71A5.9,5.9,0,0,1,45,8.12Z"/><path class="cls-6" d="M47.17,18a5.31,5.31,0,0,0,3.24-1.08.06.06,0,1,0-.09-.09,5.13,5.13,0,0,1-3.15,1C47.08,17.84,47.08,18,47.17,18Z"/><path class="cls-25" d="M52.38,4.74a4.2,4.2,0,0,0-1,1.39,14.67,14.67,0,0,0,1.66.58,12.92,12.92,0,0,0-.56-2C52.47,4.62,52.38,4.74,52.38,4.74Z"/><path class="cls-26" d="M52.47,4.68a2.15,2.15,0,0,0-.37,1.69c-.34-.15-.7-.27-.7-.27A3.52,3.52,0,0,1,52.47,4.68Z"/><path class="cls-25" d="M43.32,9.82,44.86,8.4A5.15,5.15,0,0,0,42.8,7.29,11.12,11.12,0,0,0,43.32,9.82Z"/><path class="cls-26" d="M42.77,7.39s.61,1.47,1.54,1.54l-1,.89A14,14,0,0,1,42.77,7.39Z"/><path class="cls-6" d="M52.1,10.49a8.49,8.49,0,0,0,1.24-1c.06-.06,0-.12-.06-.06a9.59,9.59,0,0,1-1.21,1C52,10.46,52,10.52,52.1,10.49Z"/><path class="cls-6" d="M52.41,11.11a6.76,6.76,0,0,0,1.39-.52c.06,0,0-.13-.06-.1a7.51,7.51,0,0,1-1.36.53C52.32,11.05,52.35,11.14,52.41,11.11Z"/><path class="cls-6" d="M52.63,11.85l1.57,0a.05.05,0,0,0,0-.1c-.52,0-1.05,0-1.57,0C52.54,11.75,52.54,11.85,52.63,11.85Z"/><path class="cls-6" d="M44.22,12.86c.52-.06,1.07-.12,1.6-.21.06,0,0-.13,0-.1-.53.1-1,.16-1.57.22C44.15,12.77,44.15,12.89,44.22,12.86Z"/><path class="cls-6" d="M44.68,13.91c.49-.22,1-.4,1.51-.59.06,0,0-.12,0-.09-.53.19-1,.37-1.54.59C44.55,13.85,44.62,13.94,44.68,13.91Z"/><path class="cls-6" d="M46.28,13.79c-.43.46-.86.92-1.26,1.38,0,.06,0,.12.06.06.43-.46.83-.92,1.26-1.38C46.4,13.82,46.34,13.72,46.28,13.79Z"/><path class="cls-6" d="M48.07,11.88c.27.67,1.29.43,1-.31,0-.06-.12,0-.09,0,.16.77,1.54.37,1-.34,0-.06-.12,0-.09.06.37.56-.71.86-.87.28,0,0-.06,0-.09,0,.13.19,0,.34-.21.4-.22.31-.44.25-.62-.12C48.16,11.79,48.07,11.82,48.07,11.88Z"/><path class="cls-6" d="M49.45,9.82a.8.8,0,0,0,1,.64.7.7,0,0,0,.43-1c0-.06-.12,0-.09.06a.61.61,0,0,1-.49.86.68.68,0,0,1-.74-.58C49.55,9.72,49.45,9.76,49.45,9.82Z"/><path class="cls-6" d="M46,11a.81.81,0,0,0,1,.64.7.7,0,0,0,.43-1c0-.06-.12,0-.09.06a.62.62,0,0,1-.5.86A.67.67,0,0,1,46.1,11C46.06,10.86,46,10.89,46,11Z"/><path class="cls-25" d="M49,11.6s.5-.86.22-.89-.43.4-.43.4-.34-.34-.53,0S49,11.6,49,11.6Z"/><path class="cls-49" d="M47.67,12c.06.18-.22.4-.62.52s-.77.1-.8-.09.22-.4.62-.52S47.6,11.85,47.67,12Z"/><path class="cls-49" d="M51.67,10.68c.07.18-.21.43-.58.55s-.74.09-.8-.06.21-.43.58-.55S51.61,10.52,51.67,10.68Z"/><path class="cls-6" d="M48.75,13.78a1,1,0,0,0,1.51-.61s-.07-.06-.07,0a.91.91,0,0,1-1.41.55S48.71,13.75,48.75,13.78Z"/><path class="cls-11" d="M43,12.65c0-.13,2.44,6.7,8.42,2.39a6.28,6.28,0,0,0,1.26-1.41s-1.35,4.64-5.85,4.28C46.13,17.72,43.44,16.8,43,12.65Z"/><path class="cls-25" d="M48.07,17.84c.12,0,3.66,1.11,2.68,5.72-.09.25,0,.25,0,.25a8,8,0,0,1-4.59-1.6,7.13,7.13,0,0,0,1-4.24A2.5,2.5,0,0,1,48.07,17.84Z"/><path class="cls-51" d="M45,8.16A21.05,21.05,0,0,1,51.33,6.9c-.37-.8-.4-.83-.4-.83S47.23,6.16,45,8.16Z"/><path class="cls-25" d="M46.93,6.86C46.9,6.93,48.47,9,48.47,9V6.31S47.23,6.46,46.93,6.86Z"/><path class="cls-25" d="M48.81,5.73c-.06,0,.86,2.52.86,2.52l.77-2.59S49.21,5.45,48.81,5.73Z"/><path class="cls-51" d="M53.34,6.8c.27.16.49,6.28,1.38,10.09a8.23,8.23,0,0,0,3.18,5.17l1.32-1.32s-3.42-13.81-5.88-14"/><path class="cls-25" d="M56.73,14.55a5.57,5.57,0,0,1-2,3.17c2.47-.34,2.65-1.17,2.65-1.17Z"/><path class="cls-25" d="M56.3,13.29A5.11,5.11,0,0,1,54,15.6a23.49,23.49,0,0,0,1.51-4.15Z"/><path class="cls-25" d="M58,18a4.11,4.11,0,0,1-1.94,2.55c2.16-.4,2.37-1.11,2.37-1.11Z"/><path class="cls-25" d="M45.11,7c0,.06,1.79,2,1.79,2l-.31-2.68S45.39,6.56,45.11,7Z"/><path class="cls-50" d="M58.85,26.15,70.63,40.54"/><path class="cls-52" d="M175.92,110.24a15.48,15.48,0,1,0-20.36-8.11A15.46,15.46,0,0,0,175.92,110.24Z"/><path class="cls-53" d="M169.7,92.37a25.79,25.79,0,0,1,.87,3.72,32.11,32.11,0,0,1,.36,3.81,27.18,27.18,0,0,1-.15,3.82,22,22,0,0,1-.74,3.75l.16-1,.09-.46.06-.46.12-1,.1-1c0-.3,0-.64.06-1s0-.64,0-1c0-.65,0-1.26,0-1.91,0-1.26-.16-2.52-.31-3.78l-.12-1-.16-.95C170,93.6,169.83,93,169.7,92.37Z"/><path class="cls-53" d="M171,102.12s-1.75-4.19-3.57-4.43c-4.84.33-6.29.49-6.44.49s3.91,1.69,5.76,1.23C168.07,99.19,171,102.12,171,102.12Z"/><path class="cls-53" d="M170.63,103s1.69-6.15,3-6.43a33.16,33.16,0,0,0,4.4-1.82,8.16,8.16,0,0,1-3.57,3.82C172.91,100.3,172,102,170.63,103Z"/><g class="cls-54"><g class="cls-54"><path class="cls-55" d="M176.94,95.66a12.47,12.47,0,0,1-2.15,1,8.26,8.26,0,0,0-1.08.52,2.74,2.74,0,0,0-.46.34,4.16,4.16,0,0,0-.34.46,17.55,17.55,0,0,0-1,2.13c-.31.74-.59,1.47-.9,2.21l-.06,0c.31-.61.62-1.23,1-1.85s.68-1.19,1.08-1.78a2.79,2.79,0,0,1,1.54-1.32c.31-.16.65-.25,1-.4a5.56,5.56,0,0,0,.9-.55,5.68,5.68,0,0,1-.86.55c-.31.15-.65.28-1,.43a4.93,4.93,0,0,0-.89.52,3.86,3.86,0,0,0-.65.8,15.48,15.48,0,0,0-1.05,1.79c-.34.61-.65,1.23-.92,1.84l-.07,0c.28-.74.59-1.48.9-2.21A14.2,14.2,0,0,1,172.91,98a2.67,2.67,0,0,1,.37-.46,1.87,1.87,0,0,1,.49-.34c.34-.18.71-.36,1.08-.52A14.16,14.16,0,0,0,176.94,95.66Z"/></g><g class="cls-54"><path class="cls-55" d="M171.15,102.27a20.87,20.87,0,0,1,1.11-1.81,17.8,17.8,0,0,1,1.26-1.7,4.52,4.52,0,0,1,.77-.7c.31-.19.65-.31,1-.5a5,5,0,0,0,1.63-1.32,5.35,5.35,0,0,1-.74.77,5.28,5.28,0,0,1-.89.59c-.31.18-.65.3-.93.49a6.25,6.25,0,0,0-.77.7,18.07,18.07,0,0,0-1.29,1.7C171.92,101.07,171.52,101.65,171.15,102.27Z"/></g></g><g class="cls-54"><g class="cls-54"><path class="cls-55" d="M162.55,98.15a5.09,5.09,0,0,0,1.17,0c.4,0,.77-.1,1.17-.16s.78-.09,1.17-.12a3.09,3.09,0,0,1,1.18.09,4,4,0,0,1,1.88,1.36,12.1,12.1,0,0,1,1.35,1.9l.19.28-.22-.25a19.26,19.26,0,0,0-1.57-1.56,8.09,8.09,0,0,0-1.79-1.33,1.47,1.47,0,0,0-.52-.12H166c-.37,0-.74,0-1.11.06a7.79,7.79,0,0,1-2.21,0,9.08,9.08,0,0,0,2.21,0l1.11-.09h.56a1.22,1.22,0,0,1,.55.12,8.28,8.28,0,0,1,1.82,1.32c.56.5,1.08,1,1.6,1.57l-.06,0a13.68,13.68,0,0,0-1.35-1.9,4.3,4.3,0,0,0-1.85-1.36,2.94,2.94,0,0,0-1.14-.09c-.4,0-.77.06-1.17.12s-.77.1-1.18.13A3.49,3.49,0,0,1,162.55,98.15Z"/></g><g class="cls-54"><path class="cls-55" d="M170.57,101.56a17.82,17.82,0,0,0-1.64-1.35,7.17,7.17,0,0,0-1.85-1,2.37,2.37,0,0,0-1-.15c-.34,0-.71.09-1,.09A3.09,3.09,0,0,1,164,99c-.34-.12-.65-.28-1-.4a5.12,5.12,0,0,0,2,.55,6.26,6.26,0,0,0,1-.12,2.44,2.44,0,0,1,1,.15,8.31,8.31,0,0,1,1.85,1A12.45,12.45,0,0,1,170.57,101.56Z"/></g></g><path class="cls-56" d="M169.3,91.47a23.63,23.63,0,0,0,2.34-4.24c.22-1-.27-.89-.46-.74s-.28-.12-.68-.21-.83.61-1.29.58-1.14-.58-1.36-.34-.71.68-1.11.62-1,.15-.92.4-.62,1.44.65,2A15.52,15.52,0,0,1,169.3,91.47Z"/><path class="cls-56" d="M169.49,91.44s-4.44-2.55-6-2.12c-.86.22-.74.71-.93,1.05s-.67.37-.58.73a1.11,1.11,0,0,1-.09.93c-.19.27.18.67.15,1s0,.93,1.23.56S169.49,91.44,169.49,91.44Z"/><path class="cls-56" d="M169.58,91.84s-4.65,1.23-6.26,2.65c.1.18.34.15.31.8s0,1.35.52,1.29.56.52.9.68a1.43,1.43,0,0,0,1.29-.28c.46-.25.8.28,1.36.15s.58-.67,1.05-.86,1-.09,1.11-.61A25.73,25.73,0,0,0,169.58,91.84Z"/><path class="cls-56" d="M168.93,91.41s3.33-3.84,4.9-4c.9-.1,1,.4,1.23.67s.77.12.8.49a1,1,0,0,0,.41.83c.27.22.06.68.18,1s.34.86-1,.95S168.93,91.41,168.93,91.41Z"/><path class="cls-56" d="M169.76,91.57s4.81-.16,6.75.77c0,.21-.28.24-.06.86s.37,1.29-.15,1.38-.4.65-.68.92-.8.22-1.33.13-.67.49-1.26.52-.77-.49-1.26-.52-1,.21-1.24-.28A35.76,35.76,0,0,1,169.76,91.57Z"/><path class="cls-56" d="M168.47,90.21a18.85,18.85,0,0,1-2-2,4.68,4.68,0,0,0,1.85,2.21C168.5,90.55,168.47,90.21,168.47,90.21Z"/><path class="cls-56" d="M169.55,90.18a18.35,18.35,0,0,0,1.17-2.58,7.6,7.6,0,0,1-.89,2.67Z"/><path class="cls-56" d="M169.21,90.21a6.76,6.76,0,0,0-.62-3C168.5,87.94,168.56,89.69,169.21,90.21Z"/><path class="cls-56" d="M168.84,90.24a9.57,9.57,0,0,0-1.29-2.58A4.56,4.56,0,0,0,168.84,90.24Z"/><path class="cls-56" d="M169.49,90.12a6.25,6.25,0,0,1,.24-2.55A6.49,6.49,0,0,1,169.49,90.12Z"/><path class="cls-56" d="M171,92a17.61,17.61,0,0,1,2.8.18,4.89,4.89,0,0,0-2.87-.49C170.75,91.78,171,92,171,92Z"/><path class="cls-56" d="M170.38,92.49a22.45,22.45,0,0,0,.71,2.74,7.4,7.4,0,0,1-1-2.65Z"/><path class="cls-56" d="M170.66,92.34a6.23,6.23,0,0,0,2.22,2.12C172.51,93.81,171.46,92.4,170.66,92.34Z"/><path class="cls-56" d="M170.69,92a9.6,9.6,0,0,0,2.68,1A4.62,4.62,0,0,0,170.69,92Z"/><path class="cls-56" d="M170.53,92.34a6.3,6.3,0,0,1,1,2.36A5.72,5.72,0,0,1,170.53,92.34Z"/><path class="cls-56" d="M170.35,90.58a20.38,20.38,0,0,1,1.91-2.06,4.92,4.92,0,0,0-2.19,1.88C170,90.61,170.35,90.58,170.35,90.58Z"/><path class="cls-56" d="M171,91.44a20.8,20.8,0,0,1,2.83,0A5.07,5.07,0,0,0,171,91.1C170.75,91.23,171,91.44,171,91.44Z"/><path class="cls-56" d="M170.69,90.86a6.46,6.46,0,0,0,2.71-1.45C172.66,89.54,171,90.09,170.69,90.86Z"/><path class="cls-56" d="M170.87,90.89a6.21,6.21,0,0,1,2.53-.28A5.09,5.09,0,0,1,170.87,90.89Z"/><path class="cls-56" d="M170.53,90.67a10.54,10.54,0,0,0,2.19-1.87A5,5,0,0,0,170.53,90.67Z"/><path class="cls-56" d="M168.44,92.52a17.83,17.83,0,0,0-2.59,1.17,5,5,0,0,1,2.5-1.48C168.59,92.21,168.44,92.52,168.44,92.52Z"/><path class="cls-56" d="M169.18,92.74a18.14,18.14,0,0,1,.28,2.79,8,8,0,0,0,0-2.79Z"/><path class="cls-56" d="M168.81,92.61a6.49,6.49,0,0,1-1.33,2.77C167.58,94.64,168,93,168.81,92.61Z"/><path class="cls-56" d="M168.75,92.43s-1.61,1.78-2.16,1.9C167.17,93.41,168.32,92.43,168.75,92.43Z"/><path class="cls-56" d="M169,92.67a6.41,6.41,0,0,0-.09,2.56A6,6,0,0,0,169,92.67Z"/><path class="cls-56" d="M167.7,91a17.67,17.67,0,0,0-2.62-1,4.75,4.75,0,0,1,2.8.77C168,90.89,167.7,91,167.7,91Z"/><path class="cls-56" d="M167.48,92.06a17.11,17.11,0,0,0-2.55,1.2,5,5,0,0,1,2.46-1.51C167.61,91.75,167.48,92.06,167.48,92.06Z"/><path class="cls-56" d="M167.51,91.38a6.43,6.43,0,0,1-3.08-.15C165.17,91,166.9,90.83,167.51,91.38Z"/><path class="cls-56" d="M167.36,91.5a6.21,6.21,0,0,0-2.4.84A5.34,5.34,0,0,0,167.36,91.5Z"/><path class="cls-56" d="M167.58,91.17a9.84,9.84,0,0,1-2.78-.77A4.61,4.61,0,0,1,167.58,91.17Z"/><path class="cls-56" d="M171.15,91.29a1.7,1.7,0,0,1-1.73,1.6,1.72,1.72,0,0,1-2-1.26,1.94,1.94,0,0,1,3.73-.34Z"/><path class="cls-56" d="M176.51,92.37l-.21-.1c-.07.16-.22.25,0,.77s.37,1.29-.16,1.39-.4.64-.68.92-.8.21-1.32.12-.68.49-1.26.52-.78-.49-1.27-.52-.71.09-1,0c.27.37.73.16,1.2.19s.64.55,1.26.52.77-.65,1.26-.52a1.47,1.47,0,0,0,1.33-.13c.28-.27.15-.83.68-.92s.37-.77.15-1.38S176.48,92.58,176.51,92.37Z"/><path class="cls-56" d="M168,97c-.59.15-.93-.4-1.39-.15a1.63,1.63,0,0,1-1.29.27c-.34-.18-.41-.77-.93-.7s-.59-.65-.55-1.33-.22-.61-.31-.8a1.44,1.44,0,0,0-.22.19c.09.18.34.15.31.8s0,1.38.55,1.32.59.52.93.71a1.43,1.43,0,0,0,1.29-.28c.47-.25.8.31,1.39.15a.94.94,0,0,0,.46-.27C168.13,96.92,168.07,97,168,97Z"/><path class="cls-56" d="M169,96.12a.63.63,0,0,0-.3.24s.06,0,.09-.06c.4-.15.83-.12,1.05-.4C169.61,96,169.3,96,169,96.12Z"/><path class="cls-56" d="M162.49,93c0-.34-.34-.7-.15-1a1.11,1.11,0,0,0,.09-.93c-.09-.33.4-.36.58-.73s.07-.83.93-1.08l.12,0a3,3,0,0,0-.55,0c-.87.22-.74.71-.93,1.08s-.68.4-.58.73a1,1,0,0,1-.1.93c-.18.27.19.67.16,1s0,.8.86.65C162.46,93.63,162.46,93.26,162.49,93Z"/><path class="cls-56" d="M165.76,87.85c0-.22.55-.47.92-.4s.9-.34,1.11-.62.89.31,1.36.34.92-.68,1.32-.59.49.37.68.22.46-.25.49.18c.13-.83-.31-.7-.49-.55s-.28-.12-.68-.22-.83.62-1.32.59-1.14-.59-1.36-.34-.71.68-1.11.62-1,.15-.92.4a4.11,4.11,0,0,0-.13,1A5.3,5.3,0,0,0,165.76,87.85Z"/><path class="cls-56" d="M176.45,90.49c-.12-.31.09-.8-.18-1a1.15,1.15,0,0,1-.41-.87c0-.37-.52-.21-.8-.49s-.33-.8-1.23-.71a2.48,2.48,0,0,0-.74.25,1,1,0,0,1,.37-.09c.9-.09,1,.4,1.23.71s.78.15.81.49a1.09,1.09,0,0,0,.4.86c.27.21.06.71.18,1a.54.54,0,0,1-.09.71C176.73,91.17,176.57,90.74,176.45,90.49Z"/><path class="cls-56" d="M168.65,91.44a.22.22,0,0,0,0-.43A.22.22,0,0,0,168.65,91.44Z"/><path class="cls-56" d="M170.41,91.69a.22.22,0,0,0,0-.43A.22.22,0,0,0,170.41,91.69Z"/><path class="cls-56" d="M169.79,91a.22.22,0,0,0,0-.43A.22.22,0,0,0,169.79,91Z"/><path class="cls-56" d="M169.55,92c-.06,0-.06,0-.09,0a.11.11,0,0,0-.07,0s0,0,0,.06,0,.06,0,.09v.06a.15.15,0,0,0,.06.1l0,0a.18.18,0,0,0,.13,0h0a.11.11,0,0,0,.09,0,.1.1,0,0,0,.06,0s0,0,0-.06,0-.07,0-.1v-.06s0-.06-.06-.09l0,0A.4.4,0,0,0,169.55,92Z"/><path class="cls-56" d="M169.64,91.69c.12,0,.12-.22,0-.22A.11.11,0,1,0,169.64,91.69Z"/><path class="cls-56" d="M170.53,91a.11.11,0,0,0,0-.21A.11.11,0,1,0,170.53,91Z"/><path class="cls-56" d="M170.35,92.27c.12,0,.12-.21,0-.21S170.23,92.27,170.35,92.27Z"/><path class="cls-56" d="M169.09,90.58c.12,0,.12-.21,0-.21A.11.11,0,0,0,169.09,90.58Z"/><path class="cls-56" d="M168,91.72c.12,0,.12-.22,0-.22S167.82,91.72,168,91.72Z"/><path class="cls-56" d="M168.81,92.09c.12,0,.12-.22,0-.22S168.68,92.09,168.81,92.09Z"/><path class="cls-50" d="M129.61,85.6l25,7.17"/><path class="cls-57" d="M184.2,51.48a17.31,17.31,0,1,0-23.52,6.82A17.28,17.28,0,0,0,184.2,51.48Z"/><path class="cls-50" d="M154.08,52c-1,.86-16.8,9.23-16.8,9.23"/><path class="cls-58" d="M179.84,42.6s1.23.28,1,.56-12.82,8.55-12.82,8.55-10-4.86-10.57-6.25-.56-2.92,0-3S168,47.19,168,47.19Z"/><path class="cls-59" d="M170.32,35.37c-.25.07-12.88,6.89-12.88,6.89l10.07,5.2v.4L181,39.4Z"/><path class="cls-58" d="M158.21,43l9.3,4.83v-.4l-10.07-5.2s-1,.28-.16,2.74a3.56,3.56,0,0,0,1.94,1.82c.74.33,8.85,4.92,8.85,4.92l0-.31L158.52,46a2.71,2.71,0,0,1-1.08-2.34C157.41,42.42,158.21,43,158.21,43Z"/><path class="cls-18" d="M167.51,47.83c-.09,0-9.77-5-9.77-5a3.46,3.46,0,0,0,.68,3.07c1.24.62,9.49,5.23,9.49,5.23Z"/><path class="cls-60" d="M179.75,40.11l0,1.85.4,1L168,51.12a4.23,4.23,0,0,1-.37-3.44C169.55,46.42,179.75,40.11,179.75,40.11Z"/><path class="cls-61" d="M167.48,38c.06-.06,2.9-1.57,2.9-1.57l7.89,3-2.8,1.72Z"/><path class="cls-62" d="M178.58,39.37l-3.05,2L167.05,38l3.27-1.75Z"/></g></g></svg>