<svg xmlns="http://www.w3.org/2000/svg" xmlns:xlink="http://www.w3.org/1999/xlink" viewBox="0 0 330.81 187.51"><defs><style>.cls-1{fill:#fcdca4;}.cls-2,.cls-3{opacity:0.55;}.cls-10,.cls-12,.cls-16,.cls-19,.cls-24,.cls-27,.cls-28,.cls-3,.cls-31,.cls-34,.cls-38,.cls-4,.cls-42,.cls-43,.cls-46,.cls-48,.cls-5,.cls-52,.cls-53,.cls-54,.cls-56{fill:none;}.cls-3{stroke:#fcdca4;}.cls-10,.cls-12,.cls-16,.cls-19,.cls-24,.cls-25,.cls-27,.cls-28,.cls-3,.cls-31,.cls-34,.cls-38,.cls-4,.cls-43,.cls-46,.cls-48,.cls-5,.cls-52,.cls-53,.cls-54,.cls-56{stroke-miterlimit:10;}.cls-21,.cls-27,.cls-3,.cls-31{isolation:isolate;}.cls-4{stroke:#ef953c;}.cls-5{stroke:#b77539;stroke-width:2px;}.cls-6{fill:#fbbe49;}.cls-7{fill:#687fa9;}.cls-8{fill:#7ca1d8;}.cls-9{fill:#344b70;}.cls-10{stroke:#1d2f4f;}.cls-11{fill:#b77539;}.cls-12{stroke:#774318;}.cls-13{fill:#f7ca94;}.cls-14{fill:#eaa568;}.cls-15{fill:#efb378;}.cls-16{stroke:#ffe6c2;}.cls-17{fill:#995925;}.cls-18,.cls-21{fill:#b0cff4;}.cls-19{stroke:#7ca1d8;}.cls-20,.cls-21{opacity:0.35;}.cls-22{fill:#f79959;}.cls-23{fill:#fff;}.cls-24,.cls-25{stroke:#f4d39d;}.cls-25{fill:#fff6e1;}.cls-26{fill:#330404;}.cls-27,.cls-31{stroke:#773d33;stroke-width:5px;}.cls-27{opacity:0.15;}.cls-28{stroke:#933932;}.cls-29{fill:#ffd283;}.cls-30{fill:#480d0b;}.cls-31{opacity:0.25;}.cls-32{fill:#ffeed2;}.cls-33{fill:#633211;}.cls-34{stroke:#c99061;}.cls-34,.cls-42,.cls-46{stroke-width:0.75px;}.cls-35{fill:#c99061;}.cls-36{fill:#f9a369;}.cls-37{fill:#ef9456;}.cls-38,.cls-54{stroke:#c34a16;}.cls-38{stroke-width:0.5px;}.cls-39{fill:#ed875a;}.cls-40{fill:#000100;}.cls-41{fill:#5b2d1d;}.cls-42{stroke:#000100;stroke-linecap:round;stroke-linejoin:round;}.cls-43,.cls-46{stroke:#5b2d1d;}.cls-44{fill:#2c0b15;}.cls-45{fill:#5b252b;}.cls-47{fill:#c34a16;}.cls-48{stroke:#59230b;}.cls-49{fill:#dd672c;}.cls-50{fill:#dd8f1d;}.cls-51{fill:#f4aa34;}.cls-52{stroke:#dd8f1d;}.cls-53{stroke:#68341d;}.cls-55{fill:url(#Degradado_sin_nombre_21);}.cls-56{stroke:#f9d093;}</style><linearGradient id="Degradado_sin_nombre_21" x1="229.85" y1="8516.31" x2="182.08" y2="8450" gradientTransform="matrix(1, 0, 0, -1, 0, 8542.83)" gradientUnits="userSpaceOnUse"><stop offset="0" stop-color="#ffffe0" stop-opacity="0.5"/><stop offset="0.82" stop-color="#ffffe0" stop-opacity="0"/></linearGradient></defs><title>Recurso 12</title><g id="Capa_2" data-name="Capa 2"><g id="Capa_1-2" data-name="Capa 1"><path class="cls-1" d="M72.09,39.11S72,39,72,39c-3.06-4.61-10.1-1.32-13.44,1.13-7.23,5.33-11,13.62-16.53,20.36-5.68,7-24.56,15.45-20.38,26.94,2.87,7.87,13,9.76,20,7.12A25.08,25.08,0,0,0,56.07,80.38c2.07-5.32,2.17-11.44,3.86-17,1.92-6.31,6.71-10.78,10.33-16.11C72,44.86,73.59,41.61,72.09,39.11Z"/><path class="cls-1" d="M18.36,172c-8-9.1-9.2-26.53-1.31-36.61,10.85-13.9,27.1-21,35.64-36.93,8.74-16.26,15.08-35.81,28.14-49.33,16.9-17.48,39.44-22.57,62.08-16.87,12.73,3.21,22.5,8.58,32.36,17.29,11,9.71,20.9,20.54,31.33,30.86,14,13.8,29.25,26.95,47.52,33.87,9.58,3.63,19.73,5.47,29.45,8.72,20.33,6.83,45.65,24.21,43.72,49"/><g class="cls-2"><path class="cls-3" d="M9.39,172C-.09,157.74,4.46,139.79,16.72,129a154,154,0,0,0,22-23.61C48.51,92,53.16,75.67,62.65,62.15,79.7,37.75,113,22.3,141.22,37c16.34,8.53,28.7,22.66,42.83,34.2a259.73,259.73,0,0,0,113.51,53.57c18.65,3.67,31.8,25.53,28.93,42.87a36.4,36.4,0,0,1-.94,4.29"/></g><path class="cls-4" d="M17.47,172H330.81"/><path class="cls-4" d="M0,172H12.21"/><path class="cls-5" d="M238.06,23l12.3-14.7c2.07-2.45,5.88-7.21,10.52-7.26s8.65,3.25,8.65,9.09V169.75"/><path class="cls-6" d="M287.61,169.8H251.4V172h36.21Z"/><path class="cls-7" d="M305.12,104a14.48,14.48,0,0,0-2.39.33,9,9,0,0,0-3,1.23,7,7,0,0,0-3,4.57,10.73,10.73,0,0,0,0,3.53,4.5,4.5,0,0,0,.79,2.5,3.77,3.77,0,0,0,3,.94,9.16,9.16,0,0,0,3-.47c2.06-.75,3.66-2.4,5.25-4a24.48,24.48,0,0,1,7.75-5.56,16.54,16.54,0,0,0-4.13-2A20.62,20.62,0,0,0,305.12,104Z"/><path class="cls-8" d="M316.4,94.09a9.66,9.66,0,0,1,3.14,3.73,7.87,7.87,0,0,0-4.32,1.74c-5.07,3.81-11.41,10.13-18,6.55a4.17,4.17,0,0,1-2-2.36,2.44,2.44,0,0,1,.47-2.54,2,2,0,0,0,.28-.29,1.57,1.57,0,0,0,0-.66,3.72,3.72,0,0,1,.66-2.44,6.92,6.92,0,0,1,1.79-1.75c3.66-2.87,7.89-4.71,12.44-4.14A11.4,11.4,0,0,1,316.4,94.09Z"/><path class="cls-9" d="M313.81,70.07c.19,8.29-3.24,17.47-10.33,21.81-1.55.94-5.49,1.51-7,.42a4.3,4.3,0,0,1-.94-1.08A10.78,10.78,0,0,1,294.23,89a7.85,7.85,0,0,1,.61-6.84,17.11,17.11,0,0,1,4.84-5.08A49.27,49.27,0,0,1,313.81,70.07Z"/><path class="cls-7" d="M289.81,103.42c-5.82,3.3-13.52.71-17.42-3.82-1.17-1.36-2.11-2.92-3.38-4.19-1-1-4.27-4.8-8.69-5.89a25.45,25.45,0,0,1,12.21-3.25C281.5,86.18,293.38,92.87,289.81,103.42Z"/><path class="cls-7" d="M271.08,68.51q2.46,4.45,4.93,8.9a18.64,18.64,0,0,0,2.63,3.87,16,16,0,0,0,9.25,4.33,2.38,2.38,0,0,0,1,0,1.36,1.36,0,0,0,.85-1c1.08-3.81-.33-8-3.81-11s-9-5-14.56-5.14"/><path class="cls-9" d="M286.76,111.81c.09,1.46.28,2.78-.84,3.86A5.14,5.14,0,0,1,282,117a31.07,31.07,0,0,0-5.54,0,42.81,42.81,0,0,0-11.37,2.36,43.06,43.06,0,0,1,4.18-7.78,18.61,18.61,0,0,1,4-4.52,8.5,8.5,0,0,1,5.63-1.88,11,11,0,0,1,3.43.84,8.59,8.59,0,0,1,2,1A6.42,6.42,0,0,1,286.76,111.81Z"/><path class="cls-8" d="M276.81,60.83c2.72,2.55,3.94,8.25,5.58,10.65s4.37,5.09,7.52,4.66A2.64,2.64,0,0,0,292,74.83a4.06,4.06,0,0,0,.28-1.66,14,14,0,0,0-.19-3.1A9.32,9.32,0,0,0,288.88,65,18.47,18.47,0,0,0,276.81,60.83Z"/><path class="cls-8" d="M292.68,64a1.76,1.76,0,0,1-1-.14c-2.63-.85-4.51-3.39-5.4-6.13a29.27,29.27,0,0,1-.89-8.57V42.79A27.92,27.92,0,0,1,293.15,48a13.28,13.28,0,0,1,4,8.48A7.8,7.8,0,0,1,292.68,64Z"/><path class="cls-7" d="M311.32,66.63c-3.19,1.32-6.48,2.64-9.95,2.64a6,6,0,0,1-2.44-.43,3,3,0,0,1-1.65-1.79,3.37,3.37,0,0,1,1.65-3.44,7.6,7.6,0,0,1,6.66-.85,12.2,12.2,0,0,1,5.59,4.06"/><path class="cls-10" d="M287.18,46.13c5.73,7.12,5.88,17.06,5.73,26.15-.32,16.87-.09,34.44-1.08,51.26-.14,2.82,0,9.33,0,9.33"/><path class="cls-10" d="M291.93,121.56c-.61-4.34-2.77-8.53-6.58-10.6-1.83-1-4.13-.71-6.1-.19a26,26,0,0,0-12.31,6.83"/><path class="cls-10" d="M273.24,90.61a20.76,20.76,0,0,0-5.64-1"/><path class="cls-10" d="M292.35,110.3a19.94,19.94,0,0,0-4.32-9.52c-2.35-3-5-6-8.36-7.82a24.07,24.07,0,0,0-4.27-1.83"/><path class="cls-10" d="M292.21,107.52a14,14,0,0,1,4.51-7.35,16.92,16.92,0,0,1,8.36-3.25,38,38,0,0,1,14.6.71"/><path class="cls-10" d="M307.33,107.33a12.34,12.34,0,0,1,4.75-.42"/><path class="cls-10" d="M291.74,127.45c1.32-10,6.53-16.77,13.15-19.41"/><path class="cls-10" d="M292.49,101.68A30.27,30.27,0,0,1,296,89.81c3.8-7.68,11.64-12.44,17.19-18.94"/><path class="cls-10" d="M279,61.77c7.7,4.34,11.83,11.5,13.76,20.45"/><path class="cls-10" d="M273.24,69.45c12.86,5.84,17.89,18.8,19.39,26"/><path class="cls-10" d="M307.94,66.06c.61.14,1.22.33,1.79.47"/><path class="cls-10" d="M292.87,72.75c.8-3.53,3-5.18,5.3-6.45,2.49-1.37,5.45-1.27,8.36-.76"/><path class="cls-11" d="M276.1,130.23s.57,15.73,5.26,21.58h20.52c4.7-5.85,5.26-21.58,5.26-21.58Z"/><path class="cls-12" d="M308.6,172l-1.83-36.52H276.52L274.69,172"/><path class="cls-12" d="M291.65,135.5V172"/><path class="cls-12" d="M275.44,157.51h32.41"/><path class="cls-13" d="M71.62,58.29V166.08H248V58.29a7.37,7.37,0,0,0-7.37-7.4H79A7.37,7.37,0,0,0,71.62,58.29Z"/><path class="cls-14" d="M79,50.89a7.37,7.37,0,0,1,7.38,7.4v82H71.57v-82A7.45,7.45,0,0,1,79,50.89Z"/><path class="cls-15" d="M241.11,115.15a3.37,3.37,0,0,0-3.38,3.39l-.14,47.54h42.08V115.15Z"/><path class="cls-13" d="M279.48,115.15a7.36,7.36,0,0,1,7.37,7.4v43.53H272.06V122.55A7.45,7.45,0,0,1,279.48,115.15Z"/><path class="cls-13" d="M71.62,140.26H263.8a3.05,3.05,0,0,1,3.05,3.07V152a1,1,0,0,1-1,1H71.62Z"/><path class="cls-15" d="M71.62,152.93H265.86a1,1,0,0,1,1,1v12.15H71.62Z"/><path class="cls-16" d="M71.62,140.26h192a3.18,3.18,0,0,1,3.19,3.21V152a1,1,0,0,1-1,1H71.62"/><path class="cls-16" d="M265.82,152.93a1.05,1.05,0,0,1,1,1v12.11"/><path class="cls-17" d="M132.49,166.08,131.22,172h2.25l2.77-5.94"/><path class="cls-17" d="M76.22,166.08,75,172h2.21L80,166.08"/><path class="cls-17" d="M226.84,166.08l1.22,5.94H225.8l-2.72-5.94"/><path class="cls-17" d="M283.1,166.08l1.22,5.94h-2.25l-2.78-5.94"/><path class="cls-8" d="M241.82,140.4c-.75.19-25.13-.56-25.13-.56s-4.18-1.65-6.81-2.59c-4-1.42-8.92-2.36-12.58-4.48a17.66,17.66,0,0,1-2.78-2.54,33.73,33.73,0,0,0-5.35-3.54c-3.57-2-6.76-4.94-10-7.44-3.38-2.64-6.71-5.32-10.05-8-4.13-3.3-8.26-6.64-11.55-10.79-3.9-4.94-6.39-10.83-9-16.63C143.38,72,136.15,61.49,128.78,50.89h-37c3.85.14,7.14,3.06,8.87,6.5s2.21,7.35,2.63,11.22c.52,4.71,1.08,9.42,1.6,14.13.75,6.69,1.79,13.94,6.62,18.56,3.57,3.44,8.55,4.81,13.29,6.32,6.44,2.07,12.82,4.7,18,9a27.59,27.59,0,0,1,7.46,9.7,18.87,18.87,0,0,1,1.65,6c.23,2.21-.52,4,1.41,5.75a21.57,21.57,0,0,0,3.57,2.35c2.77,1.79,4.83,4.43,6.9,7,4,5,8.31,9.85,12.77,14.47a2.7,2.7,0,0,0,.66.52,1.76,1.76,0,0,0,1.32-.34c2.16-1.22,4.36-2.77,6.62-3.86s5.12-1.6,7.56-2.5c5.17-1.93,10.19-4.19,15.4-5.93,11-3.67,22.69-4.85,33.91-7.77.42-.1.89-.29.89-.71A.84.84,0,0,0,241.82,140.4Z"/><path class="cls-18" d="M100.17,51c2.21,1.22,3.48,3.39,4.61,5.56a34.32,34.32,0,0,1,2.34,5.93c1.41,4.76,2.68,9.57,4.18,14.28a92.1,92.1,0,0,0,5,13A27.4,27.4,0,0,0,124,99c6.53,5,14.61,7.82,20.62,13.57a24.87,24.87,0,0,1,7.14,11.68,13.55,13.55,0,0,1,.52,3.63,20.5,20.5,0,0,0,0,2.36c.29,1.79,1.65,2.87,3.1,3.77a27.1,27.1,0,0,1,6.06,4.85c1.79,2,3.38,4.14,5.12,6.17,3.76,4.43,7.75,8.67,11.55,13,.05,0,.19.1.24,0A54.85,54.85,0,0,1,189,152.89c3.53-1.27,7.14-2.54,10.76-3.49s7.28-1.46,10.89-2.21c4.09-.9,8.18-1.89,12.17-3,4.83-1.32,9.58-3.25,14.65-3.44a.21.21,0,1,0,0-.42,38.24,38.24,0,0,0-10.29,2.12c-3.52,1.08-7.09,2-10.66,2.87-3.05.71-6.05,1.51-9.11,2.08a79.94,79.94,0,0,0-9,1.93c-5.91,1.79-11.88,3.67-17.33,6.64a22.88,22.88,0,0,1-2.11,1.22c-.66.24-.52.24-1.08-.18a9.77,9.77,0,0,1-.89-1l-3.95-4.38c-2.44-2.69-4.83-5.37-7.14-8.15-2.16-2.59-4.13-5.42-6.76-7.59a30.67,30.67,0,0,0-3.62-2.4c-1.73-1.08-2.81-2.31-2.81-4.43a23.36,23.36,0,0,0-6.95-16c-8.36-8.62-21.7-11-28.14-21.71A60.54,60.54,0,0,1,113,80.38c-1.32-3.81-2.54-7.72-3.67-11.59a89.12,89.12,0,0,0-3.14-10.22c-1.23-3-2.92-6.31-5.83-7.87C100.13,50.8,100.08,50.94,100.17,51Z"/><path class="cls-19" d="M177.24,161.13a18.09,18.09,0,0,0,.75,3.49"/><path class="cls-19" d="M178.74,161c.52,1.08,1,2.12,1.51,3.21"/><path class="cls-19" d="M180.81,160.1a30.21,30.21,0,0,0,1.41,2.78"/><path class="cls-19" d="M182.08,158.87a11.22,11.22,0,0,1,2.11,3.25"/><path class="cls-19" d="M184.1,157.51a11.58,11.58,0,0,1,2,3.76"/><path class="cls-19" d="M186.73,156.37c.28,1.32.61,2.6.89,3.92"/><path class="cls-19" d="M188.42,156.28a10.11,10.11,0,0,1,1.5,2.92"/><path class="cls-19" d="M190.77,156.42a19.58,19.58,0,0,1,1,2.73"/><path class="cls-19" d="M192.65,155.48c.14,1,.32,2.12.56,3.16"/><path class="cls-19" d="M195,153.78a8.09,8.09,0,0,0,.52,3.49"/><path class="cls-19" d="M197.34,152.89a24.5,24.5,0,0,0,0,3.2c0,.14,0,.28.18.28"/><path class="cls-19" d="M199,152.79a6.66,6.66,0,0,0,.05,2.36"/><path class="cls-19" d="M200,152c0,1,0,2,.09,3.06"/><path class="cls-19" d="M202.93,150.58c.1,1.08.19,2.17.28,3.3"/><path class="cls-19" d="M205.84,149.26a8.22,8.22,0,0,0,.33,3.2"/><path class="cls-19" d="M207.67,149c.61,1.13.29,2.59.76,3.77"/><path class="cls-19" d="M211.43,148.27c-.05,0-.09-.09-.14-.09l.42,3"/><path class="cls-19" d="M213.64,148.13a14.45,14.45,0,0,0,.19,2.45"/><path class="cls-19" d="M216.88,146.86a6.78,6.78,0,0,0,.47,2.73"/><path class="cls-19" d="M220.12,148.46a20.18,20.18,0,0,1-.56-2.5"/><path class="cls-19" d="M222.56,145.49c0,.9,0,1.84.05,2.74"/><path class="cls-19" d="M224.58,144.88c.24.94.52,1.88.75,2.83"/><path class="cls-19" d="M228.15,144.6a7.61,7.61,0,0,0,.24,2.31"/><path class="cls-19" d="M230.87,143.89a11.5,11.5,0,0,1-.09,2.87"/><path class="cls-19" d="M234.26,143.28c0,.75,0,1.55-.1,2.31"/><path class="cls-19" d="M237.36,142.15c-.05,1-.1,2-.19,3.06"/><path class="cls-19" d="M239.66,142a11.34,11.34,0,0,0-.57,3.06"/><path class="cls-19" d="M240.78,141.58c.15,1,.29,1.93.43,2.92"/><path class="cls-19" d="M175.74,159.86a25,25,0,0,0-.09,3.77"/><path class="cls-19" d="M173.25,157.65a13.7,13.7,0,0,1,.52,3.06c0,.14,0,.38-.14.42"/><path class="cls-19" d="M171.61,155.1a18.2,18.2,0,0,1-.05,5"/><path class="cls-19" d="M169.87,153.64a30.89,30.89,0,0,1-.14,4.19"/><path class="cls-19" d="M167.8,152.13c0,1.28,0,2.55.1,3.82"/><path class="cls-19" d="M165.78,149a14.11,14.11,0,0,0,.33,4"/><path class="cls-19" d="M163.2,146.06a12,12,0,0,1,.52,4,.56.56,0,0,1-.14.38"/><path class="cls-19" d="M161.74,143.61c.19,1.32.47,2.59.76,3.91"/><path class="cls-19" d="M159.87,142.52a5.27,5.27,0,0,1,.09,3.77"/><path class="cls-19" d="M157.52,139.7a5.45,5.45,0,0,1,1.12,2.21,14.6,14.6,0,0,1,.29,2.5"/><path class="cls-19" d="M155.69,139.13a8.67,8.67,0,0,1,1.59,4.15"/><path class="cls-19" d="M105.2,83.07a.58.58,0,0,0-.28.38,12.8,12.8,0,0,0-1,4.14"/><path class="cls-19" d="M105.86,85.9a40.28,40.28,0,0,0-.9,4.66"/><path class="cls-19" d="M106.14,88.58a40.6,40.6,0,0,0-.47,4.71"/><path class="cls-19" d="M107,92.16a38.59,38.59,0,0,0-.37,4.19"/><path class="cls-19" d="M107.92,94.8c0,1.46,0,3,0,4.43"/><path class="cls-19" d="M109.52,98.05a31.62,31.62,0,0,0,0,3.77,1.6,1.6,0,0,0,.28.85"/><path class="cls-19" d="M110.83,100c.71,1.27.43,2.88.8,4.29"/><path class="cls-19" d="M112.85,102c.47,1.56.43,3.25,1.13,4.66"/><path class="cls-19" d="M115,103.42c.51,1.32.42,2.88,1.17,4.1"/><path class="cls-19" d="M117.13,104.27c.33,1.27.61,2.54.94,3.81"/><path class="cls-19" d="M120,104.69a.89.89,0,0,0,0,.52c.33.94.65,1.89,1,2.83.14.33.24.66.52.8"/><path class="cls-19" d="M122.53,106.11a10.55,10.55,0,0,0,1.46,3.25"/><path class="cls-19" d="M124.17,106.39c.94.94,1.13,2.4,1.83,3.58"/><path class="cls-19" d="M126,107a6.22,6.22,0,0,1,1.13,3.43"/><path class="cls-19" d="M128.54,108.42a13.05,13.05,0,0,0,1.36,3.48"/><path class="cls-19" d="M130.7,109.26c.42,1.23.89,2.5,1.41,3.68"/><path class="cls-19" d="M132.3,109.55a7.69,7.69,0,0,1,1.45,3.77"/><path class="cls-19" d="M135.87,111.67a13.28,13.28,0,0,0,1.22,2.92"/><path class="cls-19" d="M138.22,112.47a17.2,17.2,0,0,1,1.08,3"/><path class="cls-19" d="M140.19,113.83a5.86,5.86,0,0,1,.75,2.92"/><path class="cls-19" d="M143.47,116.38c.38,1.65.71,3.25,1.09,4.9"/><path class="cls-19" d="M146.06,119.2a47.48,47.48,0,0,1,1,5.19"/><path class="cls-19" d="M148.08,122c.23,1.46.47,2.92.65,4.43"/><path class="cls-19" d="M149.77,124.2a40.25,40.25,0,0,1,0,4.66"/><path class="cls-19" d="M151.6,128.39a41.54,41.54,0,0,1-1,5"/><path class="cls-19" d="M152.26,131.69a9.82,9.82,0,0,1-.61,2.82,5.37,5.37,0,0,0-.33,2.88"/><path class="cls-19" d="M153.2,135.55c0,1.32-.43,2.69-.24,4"/><path class="cls-19" d="M154.51,138.1c-.23,1.31.52,2.63.52,4"/><path class="cls-19" d="M104.87,80.53a35.26,35.26,0,0,1-2,4"/><path class="cls-19" d="M104.54,76.76c-.7,1.41-1.45,2.82-2.16,4.24"/><path class="cls-19" d="M104.59,70.68c-.42,2-.89,4-1.5,6"/><path class="cls-19" d="M103.93,65.4c-.94,1.75-1.78,3.49-2.58,5.33"/><path class="cls-19" d="M103,63.19a15.12,15.12,0,0,0-2.21,4.94"/><path class="cls-19" d="M101.91,58.29a17,17,0,0,0-1,4.57"/><path class="cls-19" d="M100.41,55.37a22.22,22.22,0,0,1-1.36,4.57"/><path class="cls-19" d="M98.3,53.25c-.1,1.36-.24,2.78-.43,4.14"/><path class="cls-19" d="M96.89,51.79a1.15,1.15,0,0,0-.47.75c-.24.9-.43,1.84-.66,2.73"/><path class="cls-19" d="M94.4,51.08A20.11,20.11,0,0,1,94.3,54"/><g class="cls-20"><g class="cls-20"><path class="cls-21" d="M175.5,154.58c1.79-.61,3.48-1.5,5.27-2.21s3.47-1.27,5.21-1.93c3.66-1.32,7.28-2.73,10.94-4a58.91,58.91,0,0,1,10.66-2.64c3.66-.51,7.42-.85,10.9-2.21.18-.1.14-.42-.1-.33-3.52,1.32-7.18,1.69-10.89,2.21a65.55,65.55,0,0,0-10.85,2.74c-3.67,1.27-7.33,2.63-10.94,4-1.79.66-3.62,1.32-5.36,2.07a26.17,26.17,0,0,0-4.79,2.26C175.46,154.58,175.5,154.63,175.5,154.58Z"/></g></g><g class="cls-20"><path class="cls-21" d="M180.86,151.9l-8.6-1.13a.35.35,0,0,1-.23-.1.32.32,0,0,1-.05-.28c.05-3.11.89-6.31,0-9.28,2.91,1.56,6.11,2.4,9.21,3.58.09.05.14.05.19.14a.42.42,0,0,1,0,.24c-.23,2.31-.42,4.66-.65,7"/></g><g class="cls-20"><path class="cls-21" d="M186.49,149.78c-2.72-.9-5.44-1.65-8.21-2.31.23-3,.51-6,.75-9,3.14,1.36,6.34,2.68,9.53,3.9a10.71,10.71,0,0,0-1,3c-.32,1.37-.61,2.74-.94,4.1"/></g><g class="cls-20"><path class="cls-21" d="M192.93,146.76c-2.77-.75-5.59-1.5-8.36-2.26-.09-.05-.19-.05-.24-.14a.68.68,0,0,1,0-.28c.47-3.06,1.73-6.13,1.26-9.23,2.68,1.93,5.73,3.2,8.65,4.75a.75.75,0,0,1,.18.14c.05.1,0,.15,0,.24-.51,2.26-1,4.57-1.55,6.83"/></g><g class="cls-20"><path class="cls-21" d="M198.85,145.45c-2.59-1.23-5.17-2.36-7.85-3.35.66-3,1.32-5.94,1.93-8.86,3,1.75,6,3.49,9,5.14a11.73,11.73,0,0,0-1.36,2.83c-.47,1.31-1,2.63-1.46,3.95"/></g><path class="cls-22" d="M241,116.33c.19.23,4.93,13,4.93,13L226,133l-7-14.09"/><path class="cls-23" d="M224.49,130.42l3.71,9.28a3.24,3.24,0,0,0,2.67,2l24,2.55a11,11,0,0,0,5.21-.76l2.16-.89a2.15,2.15,0,0,0,1.36-2.07,1.91,1.91,0,0,0-1.12-1.75l-16-9.09-2-4.71"/><path class="cls-24" d="M227,129.47l.76,1.94"/><path class="cls-24" d="M229.94,128.86l.75,1.93"/><path class="cls-24" d="M233.08,128l.75,1.89"/><path class="cls-24" d="M236.18,127.21l.75,1.93"/><path class="cls-24" d="M239.38,126.32l.75,1.93"/><path class="cls-24" d="M242.8,125.42l.76,1.93"/><path class="cls-25" d="M235.62,145.92a13.81,13.81,0,0,0-3.9-7.17,9.5,9.5,0,0,0-7.61-2.54L228,144.6Z"/><path class="cls-25" d="M260.79,136.4a21.54,21.54,0,0,0-5.26,3.2,5.1,5.1,0,0,0-1.6,1.89,5.45,5.45,0,0,0-.37,1.69,9.18,9.18,0,0,0,.52,3.77l12.3-1.36,1.74-5.09-3.24-2.5Z"/><path class="cls-26" d="M155.92,110.54s42.17-28.46,45.41-31a21.85,21.85,0,0,1,11.79-4.38c4.56,0,10.52,1.46,13.76,8,4.56,9.28,18.37,39.29,18.37,39.29l-24.05,7.12L210.49,107a.65.65,0,0,0-1-.24L168.37,136a17,17,0,0,1-11.23,4.24H135.21"/><path class="cls-27" d="M162.64,126.22c8.21-.09,16-4.14,22.45-9,4-3,24-16.62,26.06-16s2.49,2.07,4.27,6.36c3.29,7.77,10.2,23.51,10.2,23.51"/><path class="cls-27" d="M167,119.11c14.38-8,27.62-17.48,42.6-25.86,5.31-3,9.35,2.12,11.32,6.54,3.76,8.25,12.91,32.13,12.91,32.13"/><path class="cls-27" d="M241.07,126.74c-3.43-8.2-7.14-16.25-10.9-24.31-1.88-4-3.8-8-5.73-12-1.5-3.11-3-6.93-6.2-8.67s-7.75.28-10.42,1.79c-7.28,4.15-14.33,8.67-21.47,13.1-3.47,2.12-7,4.1-10.42,6.31s-6.62,4.52-10.43,5.89"/><path class="cls-27" d="M215.47,119.58a121.82,121.82,0,0,1,29.17-11.16"/><path class="cls-27" d="M211.43,115.15c8-6.31,17-13.33,26.4-17.15"/><path class="cls-27" d="M229,84c-6.81,5.89-16.44,17-19,28.41"/><path class="cls-27" d="M216.93,73.79c-6.86.23-9.82,26.71-8.27,39.53"/><path class="cls-27" d="M192.36,84a122.54,122.54,0,0,0,13.95,34.39"/><path class="cls-27" d="M179.4,87.64a174.34,174.34,0,0,0,19.21,36.6"/><path class="cls-27" d="M170.43,95.22a214.27,214.27,0,0,0,20.38,35.15"/><path class="cls-28" d="M218.9,124.72l23.72-7.45"/><path class="cls-29" d="M238.81,183.28h-28a18.7,18.7,0,0,1,6.44-1.14c3.71,0,5.16.66,7.14-.09a22,22,0,0,1,10-.75C238.06,182.19,238.81,183.28,238.81,183.28Z"/><path class="cls-22" d="M236.75,155.9c.28.15,10.47,9,10.47,9l-15.69,12.82-12.91-9"/><path class="cls-23" d="M229,176.16l7.7,6.36a3.21,3.21,0,0,0,3.29.47l22.26-6.92a10.75,10.75,0,0,0,4.18-3.16l1.45-1.84a2.22,2.22,0,0,0,.24-2.45,1.85,1.85,0,0,0-1.78-1L247.92,165l-3.94-3.2"/><path class="cls-24" d="M230.78,174.14l1.55,1.32"/><path class="cls-24" d="M233,172.2l1.59,1.32"/><path class="cls-24" d="M235.38,169.94l1.55,1.32"/><path class="cls-24" d="M237.73,167.73l1.55,1.32"/><path class="cls-24" d="M240.08,165.47l1.6,1.32"/><path class="cls-24" d="M242.66,163l1.6,1.32"/><path class="cls-25" d="M246.14,184.45a13.64,13.64,0,0,0-6.86-4.43,9.54,9.54,0,0,0-7.89,1.42l7.37,5.51Z"/><path class="cls-25" d="M263.7,166.32a20.94,20.94,0,0,0-3.1,5.32,5.32,5.32,0,0,0-.51,2.4,4.12,4.12,0,0,0,.51,1.65,10.31,10.31,0,0,0,2.26,3L273,171.59l-.89-5.27-4-.62Z"/><path class="cls-30" d="M109.57,109l0,17.53a14.15,14.15,0,0,0,14.14,14.22h57.72a3.27,3.27,0,0,1,2.2.85L223.69,178,243,161l-43-41.88a14.15,14.15,0,0,0-9.91-4H136.57"/><path class="cls-28" d="M238.53,156.75,219.32,174"/><path class="cls-28" d="M225.38,176.44,185.46,139.6a7.58,7.58,0,0,0-5.12-2H130.89a14.34,14.34,0,0,1-14.33-14.36V111.05"/><path class="cls-31" d="M113.79,105.35c-.14,4.05.19,8.15.38,12.21.19,4.42.09,9.65,3.66,12.86,3.34,3,8.13,4.24,17.24,4.19,14.23-.1,45.84-1.37,51,.89,5.31,2.31,35.51,32.94,41.7,38.82"/><path class="cls-31" d="M123.33,109.83c.47,4.1-.94,8.53.56,12.53,1.08,2.83,4,4.33,6.86,5,6.34,1.46,13.71.61,20.15.56,7.13,0,14.27-.09,21.41,0,5.54.09,12.26-.38,17.52,1.6,5.49,2,22.77,20.07,29.16,26.29,5.36,5.18,10.57,10.6,16.25,15.41"/><path class="cls-31" d="M131.55,114.21a13,13,0,0,0,7.79,5.42,38.73,38.73,0,0,0,9.63,1c7,.14,14.14.33,21.18.48,6.86.14,17.47-1.18,21.93,1.31,5.68,3.21,16.67,13.15,24.38,21.06q10.92,11.24,22.3,22"/><path class="cls-31" d="M208.52,169.09a157.14,157.14,0,0,0,24.94-21.2"/><path class="cls-31" d="M224.35,141.49c-3.76,4.24-9.21,6.59-13.25,10.5-3,2.83-5.16,6.5-8.69,8.53"/><path class="cls-31" d="M217.3,134.14a85.63,85.63,0,0,0-21.23,22.09"/><path class="cls-31" d="M208.33,127.87a81.69,81.69,0,0,0-14,14.14c-2.35,3.06-4.56,6.31-7.52,8.76"/><path class="cls-31" d="M202.56,119c-3,3.25-6.06,6.5-9.07,9.75a104.72,104.72,0,0,0-7.61,8.81c-1.78,2.45-3.43,5.27-3.19,8.29"/><path class="cls-31" d="M187.81,113.6a35.91,35.91,0,0,0-4.93,8.29c-3.81,8.1-7.7,16.39-8.41,25.3"/><path class="cls-31" d="M174.14,112a39.55,39.55,0,0,0-7,16.82,120.73,120.73,0,0,0-1.5,18.32"/><path class="cls-31" d="M160.33,111.48c-1.73,11-3.47,22.23-1.54,33.21"/><path class="cls-31" d="M150.28,112.28a31.25,31.25,0,0,0-1.87,10.41,158.59,158.59,0,0,0,.61,26"/><path class="cls-31" d="M140.14,113c-1.92,2.78-2,6.36-2,9.71-.05,6.93-.09,13.85-.19,20.78"/><path class="cls-31" d="M136.05,113.32c-6,2.77-8.68,9.32-11.45,14.88-2.45,4.9-2,11.83-.94,17.06"/><path class="cls-31" d="M131.31,109.08c-6.57.94-11,6.4-15.22,11-3.71,4-5.26,10.79-5.77,16.07"/><path class="cls-23" d="M158.69,46.13c0-.09-.05-.19-.05-.28a6.11,6.11,0,0,1-.18-.85,42.85,42.85,0,0,0,0-4.94c-.65.42-2.77,1.69-2.77,1.69a23.26,23.26,0,0,0-3.33-1.46,20.76,20.76,0,0,0-.1-3.86,22.88,22.88,0,0,0-2.53,2.21,22.66,22.66,0,0,0-7.94-4.76,26.49,26.49,0,0,0-12.68-.94,19.66,19.66,0,0,0-10.85,5.84c-3.71,4-3.75,9.19-4.18,14.37a2.63,2.63,0,0,0,.43,2.08,1.57,1.57,0,0,0,1.36.37,13,13,0,0,0,2.67-.7,12.13,12.13,0,0,0,1.79-.71c4.46-2.5,10-1.74,14.89-1.7a97.42,97.42,0,0,1,13.33,1,17,17,0,0,1,2.68.62,7.49,7.49,0,0,0,2.87,0,5.15,5.15,0,0,0,2.25-1,6.47,6.47,0,0,0,2.21-3.62A8.33,8.33,0,0,0,158.69,46.13Z"/><path class="cls-32" d="M154.65,46c.33-1-.37-2.22.19-3.11.14-.28.42-.47.56-.75a.9.9,0,0,0,.14-.52,19.76,19.76,0,0,0-3.19-1.37,20.76,20.76,0,0,0-.09-3.86,22.1,22.1,0,0,0-2.54,2.21l-.05,0a25.47,25.47,0,0,0-4.88,5.65,1,1,0,0,0-.23.71,1.46,1.46,0,0,0,.23.61c1,1.41,2.77,1.79,4.37,1.88a28.25,28.25,0,0,0,2.91,0C153.1,47.36,154.32,47.08,154.65,46Z"/><path class="cls-32" d="M119.62,37.46c-.47.43-.94.85-1.36,1.28-3.24,3.44-3.71,7.86-4,12.39a7.19,7.19,0,0,0,1.92-.52c1.41-.57,3-1.56,3-3.16s-1.12-2.68-1.22-4.14a6.52,6.52,0,0,1,.8-3A6.83,6.83,0,0,0,119.62,37.46Z"/><path class="cls-33" d="M157,47.55c-.05.37-.23.66-.42.66s-.33-.38-.24-.76.24-.66.43-.66S157.05,47.12,157,47.55Z"/><path class="cls-33" d="M152.87,45.76c-.05.37-.24.66-.42.66s-.33-.38-.24-.76.24-.66.42-.66S152.91,45.38,152.87,45.76Z"/><path class="cls-34" d="M120.32,43.12A6.22,6.22,0,0,1,126.15,45,17.47,17.47,0,0,1,129.76,51"/><path class="cls-34" d="M150,52.68a2.27,2.27,0,0,1,1.55,1.37"/><path class="cls-34" d="M144.18,49.15a25.48,25.48,0,0,1,5.21,1.6,5.27,5.27,0,0,1,2,1,1.89,1.89,0,0,1,.71,1.83.87.87,0,0,1-.28.43c-.14.09-.43.05-.47-.1"/><path class="cls-34" d="M150.24,40a16.5,16.5,0,0,1,1.17-1.41s.1,1.22.1,1.64"/><path class="cls-34" d="M156.91,42.55c.37-.42,1.08-1.13,1.08-1.13l-.19,2.12"/><path class="cls-35" d="M157.61,50.14a4.19,4.19,0,0,1,2-.38,3.61,3.61,0,0,1,1.93.66,15,15,0,0,0-2-.28A13,13,0,0,0,157.61,50.14Z"/><path class="cls-35" d="M157.47,50.8A3.27,3.27,0,0,1,160.71,52a15.66,15.66,0,0,0-1.6-.75A5.33,5.33,0,0,0,157.47,50.8Z"/><path class="cls-35" d="M157.24,51.27a3.12,3.12,0,0,1,1.55.66,3.06,3.06,0,0,1,1,1.36,14.75,14.75,0,0,0-1.27-1.08C158.17,51.88,157.7,51.6,157.24,51.27Z"/><path class="cls-35" d="M150.1,46.79c-.52-.47-1-.94-1.51-1.36A19.51,19.51,0,0,0,147,44.25a3.65,3.65,0,0,1,1.88.89A4.43,4.43,0,0,1,150.1,46.79Z"/><path class="cls-35" d="M149.77,47.36a13.46,13.46,0,0,0-1.55-.8,16,16,0,0,0-1.65-.57,2.9,2.9,0,0,1,1.79.24A3,3,0,0,1,149.77,47.36Z"/><path class="cls-35" d="M149.67,47.88c-.56-.1-1.08-.19-1.59-.24s-1,0-1.6,0a2.84,2.84,0,0,1,1.64-.28A3.3,3.3,0,0,1,149.67,47.88Z"/><path class="cls-34" d="M154.18,49.48a5,5,0,0,1-.89,2.21"/><path class="cls-34" d="M153,50.37a1.64,1.64,0,0,0,.33,1.42,1,1,0,0,0,1.27-.62"/><path class="cls-33" d="M155.17,48.91c0-.09-.24-.09-.38-.14s-.56-.14-.8-.23a1.62,1.62,0,0,0-.46-.14c-.38,0,.18,1,.23,1.17s.14.24.28.29a.68.68,0,0,0,.42,0,2,2,0,0,0,.52-.28.84.84,0,0,0,.24-.43C155.22,49,155.22,49,155.17,48.91Z"/><path class="cls-36" d="M127.84,43l-.94,9.61s2.77,2,9.44,2c4.93,0,6-1.93,6-1.93l.61-8.52"/><path class="cls-37" d="M144.7,36.9a1.07,1.07,0,0,1,1.17-.47,1.47,1.47,0,0,1,1,.85,4.1,4.1,0,0,1,.33,1.27,2.94,2.94,0,0,1-.52,2.35,1.93,1.93,0,0,1-1.65.57,1.85,1.85,0,0,1-1.4-1"/><path class="cls-38" d="M146.48,37h-2.82a2.3,2.3,0,0,0-1.22.38l-.61.42"/><path class="cls-36" d="M127.37,33.46a4.56,4.56,0,0,1,1.26-1.7c3.9-3.53,9.68-3.34,14.33-1.64a1.53,1.53,0,0,1,.75.47,14.31,14.31,0,0,1,.94,3.53,41.09,41.09,0,0,1,1.17,5.65,9.22,9.22,0,0,1-1.59,6.65c-2.07,3-8.64,3.39-11.65,1.32a9.77,9.77,0,0,1-3.24-4.62,30.38,30.38,0,0,1-2-5.89A6.81,6.81,0,0,1,127.37,33.46Z"/><path class="cls-39" d="M135.4,44.72a2.12,2.12,0,1,0-2.12-2.12A2.12,2.12,0,0,0,135.4,44.72Z"/><path class="cls-39" d="M143.29,41.23a2.11,2.11,0,0,0,2.11,2.12.43.43,0,0,0,.24,0,10.85,10.85,0,0,0,.14-3.49c-.05-.24-.05-.47-.1-.66-.09,0-.19,0-.33,0A2.1,2.1,0,0,0,143.29,41.23Z"/><path class="cls-40" d="M136.29,38.64a.75.75,0,1,1-.75-.75A.75.75,0,0,1,136.29,38.64Z"/><path class="cls-40" d="M143.43,38.41a.76.76,0,0,0,0-1.51.76.76,0,0,0,0,1.51Z"/><path class="cls-41" d="M141,39.82a13.8,13.8,0,0,1,.56,1.41,3.66,3.66,0,0,1,.23,1c0,.52-.84.28-1.22.33-.14,0-.18.23,0,.23.37,0,1.08.14,1.41-.14a.72.72,0,0,0,0-.75,11.07,11.07,0,0,0-.89-2C141,39.73,141,39.77,141,39.82Z"/><path class="cls-23" d="M139.06,43.87a6.5,6.5,0,0,0,.14,1.32,1.33,1.33,0,0,0,2.4.52,4.23,4.23,0,0,0,.47-1.74Z"/><path class="cls-42" d="M133.61,37.42a2.18,2.18,0,0,1,3.06-.57"/><path class="cls-42" d="M142.3,36.29a1.54,1.54,0,0,1,2.26-.1"/><path class="cls-43" d="M133.94,47.59a8.81,8.81,0,0,0,8.74.29"/><path class="cls-44" d="M126.1,27a12.4,12.4,0,0,1,4.22-2.92,10.69,10.69,0,0,1,8.27-.19,6.4,6.4,0,0,1,8.74,5.7c0,1.65-.29,3.15-1.69,4.1a22.83,22.83,0,0,0-6-3.44,15.39,15.39,0,0,1-4.27,4.24c-1.46,1-2.86,1.41-4.32,2.4-1,.66-3.43,8.57-3.43,8.57s-1.88-2.77-2.39-3.62a18.38,18.38,0,0,1-2-6.6A10.56,10.56,0,0,1,126.1,27Z"/><path class="cls-45" d="M137.65,28.23A79.72,79.72,0,0,1,130.84,36c-.09.15,0,.29.19.19a33.11,33.11,0,0,0,6.81-7.86C137.84,28.23,137.7,28.18,137.65,28.23Z"/><path class="cls-45" d="M133.89,29.32c-1,3.1-3.66,5.46-5.82,7.77,0,.09.05.19.09.09,2.4-1.93,5-4.85,5.83-7.86C134,29.27,133.94,29.22,133.89,29.32Z"/><path class="cls-45" d="M139.48,28.28c2.21.89,5.83,2.73,6.06,5.42,0,.14.24.14.24,0,0-1.37-1.13-2.41-2.12-3.21a13,13,0,0,0-4.18-2.26C139.44,28.18,139.44,28.28,139.48,28.28Z"/><path class="cls-44" d="M148.55,28.28c-.47-4.48-7-6.74-10.38-4.19a.19.19,0,0,0,.19.33,6.3,6.3,0,0,1,6-.48,6.47,6.47,0,0,1,4.09,4.39A0,0,0,0,0,148.55,28.28Z"/><path class="cls-44" d="M136.34,35c1.92-1,3.71-3.68,3.19-5.89a.12.12,0,0,0-.23.05,6.55,6.55,0,0,1-3,5.74C136.24,34.92,136.29,35,136.34,35Z"/><path class="cls-44" d="M142.35,33.46A10,10,0,0,0,138.87,29c-.09,0-.23.1-.14.19a17.18,17.18,0,0,1,3.48,4.34C142.25,33.6,142.39,33.56,142.35,33.46Z"/><path class="cls-38" d="M141,37.23a3,3,0,0,0,2.72,3.11A3.14,3.14,0,1,0,141,37.23Z"/><path class="cls-38" d="M132,38.74a3.15,3.15,0,0,0,3.15,3.11A3.11,3.11,0,1,0,132,38.74Z"/><path class="cls-38" d="M132,39h-2.82a2.3,2.3,0,0,0-1.22.38l-.61.42"/><path class="cls-36" d="M130.37,39.35c-1.45-.89-3-.61-3.38,1.18a3.12,3.12,0,0,0,.24,2.26A2.46,2.46,0,0,0,129,44.2a2,2,0,0,0,2.07-.75"/><path class="cls-41" d="M127.93,40.34c.28-.19.47-.38.85-.28a1.65,1.65,0,0,1,.7.56,2.2,2.2,0,0,1-.09,2.08c0,.09.09.18.18.09a2.13,2.13,0,0,0,0-2.5c-.47-.42-1.41-.71-1.64.05Z"/><path class="cls-41" d="M128.31,44.16a1.68,1.68,0,0,0,2.34-.24c0-.05,0-.14-.09-.1a2.17,2.17,0,0,1-2.21.19S128.26,44.11,128.31,44.16Z"/><path class="cls-38" d="M141,37.65a8.2,8.2,0,0,0-2.73.24"/><path class="cls-36" d="M198.66,74.87a59.33,59.33,0,0,1,8.83-3.11,21.93,21.93,0,0,1,4.93-.85,8,8,0,0,1,6.15,2.45c1.93,1.79,3.8,3.11,5,5.42-.52.8-1.5.52-2.11.1-1-.71-2-1.37-3.06-2a12.33,12.33,0,0,0-3-1.37,4.85,4.85,0,0,0-3.24.33,7.44,7.44,0,0,0-2.35,2.74,2.2,2.2,0,0,0-.33.75.7.7,0,0,0,.33.71,1.1,1.1,0,0,0,.66-.05,14.63,14.63,0,0,1,5.21-.94c1,0,2.54.94,1.83,1.36s-9.91,6-15.35,8.63"/><path class="cls-46" d="M212.18,72.56a9.77,9.77,0,0,1,7.52,1.84"/><path class="cls-47" d="M149.53,74s9.68,20.35,12.92,27.09A9.52,9.52,0,0,0,175,105.4c3.25-1.84,31.1-17.48,31.1-17.48l-6-14.84-25,9s-5.82-10.69-9.67-18a18.13,18.13,0,0,0-11.93-9.76c-2.73-.7-10.47-1.55-10.47-1.55"/><path class="cls-47" d="M154.09,66s4.08,7,5.12,12.77,6.2,32.74,6.2,32.74H109.9L111,69.08,122.53,55.6,143,52.68Z"/><path class="cls-48" d="M154.09,66s4.08,7,5.12,12.77,6.2,32.74,6.2,32.74"/><path class="cls-36" d="M138.64,115.2H167s-2.86-5.23-6.24-7.26c-6.67-4-19.16-6.07-19.16-6.07"/><path class="cls-41" d="M153.57,112.8a21.15,21.15,0,0,1,7,2.21c.14,0,.24-.14.1-.19a16.85,16.85,0,0,0-7.05-2S153.53,112.75,153.57,112.8Z"/><path class="cls-41" d="M154.14,110.06a22.61,22.61,0,0,1,9.2,4.86c.09.09.24,0,.14-.14a19.57,19.57,0,0,0-9.34-4.72S154.09,110,154.14,110.06Z"/><path class="cls-41" d="M156.3,107.94a17.82,17.82,0,0,1,9.29,7c.1.1.29,0,.19-.09a17.05,17.05,0,0,0-9.48-7C156.25,107.9,156.25,107.94,156.3,107.94Z"/><path class="cls-47" d="M143,52.73V50.56l-16.81-1-.38,2.64s-6.9,2.31-10.24,3.39c-5.07,1.7-9.06,4.95-11.08,11.59-3.24,10.6-6.53,23.32-9.68,37-1.41,6.17,1.93,11,5.73,11h41.33l3.48-13.33-28.23-5.8,6.2-23.55"/><path class="cls-48" d="M145.21,101.87,117,96.07l6.2-23.55"/><path class="cls-48" d="M128.49,49.67l-.28,2.49"/><path class="cls-48" d="M131.69,49.86l-.19,2.45"/><path class="cls-48" d="M134.69,50l-.14,2.41"/><path class="cls-48" d="M137.75,50.19l-.1,2.35"/><path class="cls-48" d="M140.84,50.37v2.17"/><path class="cls-48" d="M200.68,74.54l-2,.8"/><path class="cls-48" d="M201.57,76.71l-2,.8"/><path class="cls-48" d="M202.46,78.83l-2,.8"/><path class="cls-48" d="M203.31,81l-2.07.8"/><path class="cls-48" d="M204.25,83.21l-2.07.8"/><path class="cls-48" d="M205,85.19,203,86"/><path class="cls-48" d="M205.8,87.12l-1.79.8"/><path class="cls-49" d="M107.64,85a.19.19,0,0,1-.14,0c-.09-.1-.14-.24,0-.33a2.4,2.4,0,0,1,1.6-1c.14,0,.28.09.28.19s-.09.28-.19.28a2.07,2.07,0,0,0-1.26.75C107.78,84.91,107.74,85,107.64,85Z"/><path class="cls-49" d="M105.48,77.56a13.47,13.47,0,0,1-2.3-.52.25.25,0,0,1,.19-.47,9.18,9.18,0,0,0,2.16.47.26.26,0,0,1,.23.28A.3.3,0,0,1,105.48,77.56Z"/><path class="cls-49" d="M110.46,77.46a.41.41,0,0,1-.19-.09.24.24,0,0,1,0-.33,1.89,1.89,0,0,0,.52-1.6c0-.15.09-.29.19-.29s.28.1.28.19a2.44,2.44,0,0,1-.66,2C110.6,77.46,110.51,77.46,110.46,77.46Z"/><path class="cls-49" d="M119.57,75a.16.16,0,0,1-.14,0,8,8,0,0,1-1.69-1.37.22.22,0,0,1,0-.33.24.24,0,0,1,.33,0,6.18,6.18,0,0,0,1.55,1.27c.14.05.14.24.09.34A.15.15,0,0,1,119.57,75Z"/><path class="cls-49" d="M118.58,84.67a.17.17,0,0,1-.14,0l-2.16-1.36a.25.25,0,0,1,.24-.43l2.16,1.37a.31.31,0,0,1,.09.33C118.72,84.62,118.68,84.67,118.58,84.67Z"/><path class="cls-49" d="M110.93,94.47h-.1a.25.25,0,0,1-.14-.33,1.94,1.94,0,0,0,.14-1.27.21.21,0,0,1,.19-.28.2.2,0,0,1,.28.18,2.31,2.31,0,0,1-.14,1.61A.37.37,0,0,1,110.93,94.47Z"/><path class="cls-49" d="M104.82,89.19h0l-2-.33a.2.2,0,0,1-.18-.28.21.21,0,0,1,.28-.19l2,.33a.21.21,0,0,1,.19.29C105.06,89.1,104.92,89.19,104.82,89.19Z"/><path class="cls-49" d="M97.26,97.53a.36.36,0,0,1-.19-.09.24.24,0,0,1,0-.33A8.28,8.28,0,0,1,98.53,96a.25.25,0,0,1,.24.43,7.14,7.14,0,0,0-1.37,1A.2.2,0,0,1,97.26,97.53Z"/><path class="cls-49" d="M116.8,101h-.09l-1.41-.42a.25.25,0,0,1-.14-.34.24.24,0,0,1,.32-.14l1.41.43a.24.24,0,0,1,.14.33S116.89,101,116.8,101Z"/><path class="cls-49" d="M111,114.12h0c-.15-.05-.24-.15-.19-.29a5.13,5.13,0,0,0,.09-1.46.31.31,0,0,1,.24-.28.3.3,0,0,1,.28.23,4.38,4.38,0,0,1-.1,1.61A.32.32,0,0,1,111,114.12Z"/><path class="cls-49" d="M102.05,112.18a.2.2,0,0,1-.14,0c-.09-.1-.14-.24,0-.33a4.68,4.68,0,0,1,1.32-1.27.23.23,0,1,1,.28.37,4.69,4.69,0,0,0-1.17,1.18A.73.73,0,0,1,102.05,112.18Z"/><path class="cls-49" d="M116.52,107.57a.27.27,0,0,1-.24-.14c0-.15,0-.29.1-.33a14.87,14.87,0,0,1,2.06-.85.27.27,0,0,1,.14.52,12,12,0,0,0-2,.8Z"/><path class="cls-49" d="M123.33,100.88a.16.16,0,0,1-.14,0,.23.23,0,0,1,0-.33l.7-1c.1-.09.24-.14.33,0a.23.23,0,0,1,0,.33l-.7,1A.39.39,0,0,1,123.33,100.88Z"/><path class="cls-49" d="M128.26,113.83a.25.25,0,0,1-.24-.14l-.51-1a.28.28,0,0,1,.09-.34.28.28,0,0,1,.33.1l.52,1a.28.28,0,0,1-.1.33S128.31,113.83,128.26,113.83Z"/><path class="cls-49" d="M134.74,110.82a.35.35,0,0,1-.19-.1.24.24,0,0,1,0-.33,2.23,2.23,0,0,0,.66-.94.25.25,0,0,1,.47.19,3.12,3.12,0,0,1-.8,1.13A.42.42,0,0,1,134.74,110.82Z"/><path class="cls-49" d="M130.94,106.25c-.05,0-.15,0-.19,0a4.24,4.24,0,0,1-1-1.41.24.24,0,0,1,.14-.33.24.24,0,0,1,.33.14,4.56,4.56,0,0,0,.85,1.27.24.24,0,0,1,0,.33C131,106.2,131,106.25,130.94,106.25Z"/><path class="cls-49" d="M138.07,102.72a.26.26,0,0,1-.23-.15.27.27,0,0,1,.09-.33,3.34,3.34,0,0,0,1.22-1,.29.29,0,0,1,.33,0,.28.28,0,0,1,.05.33,4.42,4.42,0,0,1-1.36,1.08C138.17,102.72,138.12,102.72,138.07,102.72Z"/><path class="cls-49" d="M104.17,100.5a.26.26,0,0,1-.19-.09,3.46,3.46,0,0,1-.75-1.65c0-.14,0-.28.18-.28a.21.21,0,0,1,.29.18,3.44,3.44,0,0,0,.65,1.46.22.22,0,0,1,0,.33A.17.17,0,0,1,104.17,100.5Z"/><path class="cls-49" d="M107.45,67.62a.17.17,0,0,1-.14-.05,1.85,1.85,0,0,1-.84-1.41.26.26,0,1,1,.51,0,1.56,1.56,0,0,0,.61,1,.29.29,0,0,1,.1.32A.26.26,0,0,1,107.45,67.62Z"/><path class="cls-49" d="M120.74,66.67h0l-1.93-.51a.3.3,0,0,1-.19-.29.29.29,0,0,1,.29-.18l1.92.51a.3.3,0,0,1,.19.29A.31.31,0,0,1,120.74,66.67Z"/><path class="cls-49" d="M119.76,58.71a.18.18,0,0,1-.14,0,1.77,1.77,0,0,0-1.18-.43.24.24,0,0,1,0-.47,2.68,2.68,0,0,1,1.46.57.24.24,0,0,1,0,.33S119.85,58.71,119.76,58.71Z"/><path class="cls-49" d="M126.19,55.51a.22.22,0,0,1-.23-.24V53.86a.22.22,0,0,1,.23-.24.23.23,0,0,1,.24.24v1.41A.26.26,0,0,1,126.19,55.51Z"/><path class="cls-49" d="M129,63.05a.16.16,0,0,1-.14,0c-.09-.09-.14-.24-.05-.33l.66-1a.24.24,0,0,1,.33,0c.09.1.14.24.05.33l-.66,1A.26.26,0,0,1,129,63.05Z"/><path class="cls-49" d="M137,55.46a.16.16,0,0,1-.14-.05.22.22,0,0,1-.05-.32,10.09,10.09,0,0,1,1.17-1.37.23.23,0,0,1,.33.33,7.33,7.33,0,0,0-1.08,1.27C137.09,55.41,137,55.46,137,55.46Z"/><path class="cls-49" d="M136.62,63.23h-.1a2.4,2.4,0,0,1-1.5-1.5.25.25,0,1,1,.47-.19,1.83,1.83,0,0,0,1.18,1.18.25.25,0,0,1,.14.33C136.85,63.19,136.76,63.23,136.62,63.23Z"/><path class="cls-49" d="M143.94,61.54a.24.24,0,0,1-.18-.09A5,5,0,0,1,143,60a.24.24,0,0,1,.14-.33.23.23,0,0,1,.32.14,5.44,5.44,0,0,0,.66,1.27.24.24,0,0,1,0,.34A.14.14,0,0,1,143.94,61.54Z"/><path class="cls-49" d="M148.55,66.86c-.05,0-.1,0-.1,0a.2.2,0,0,1-.09-.33,8.67,8.67,0,0,1,1.08-1.65.23.23,0,0,1,.33,0c.09.09.14.24,0,.33a8.74,8.74,0,0,0-1,1.55C148.69,66.82,148.59,66.86,148.55,66.86Z"/><path class="cls-49" d="M154.65,62.39a.24.24,0,0,1-.23-.19.28.28,0,0,1,.14-.33,4.15,4.15,0,0,0,1.27-.66.22.22,0,0,1,.33,0,.24.24,0,0,1,0,.33,5,5,0,0,1-1.41.75S154.7,62.39,154.65,62.39Z"/><path class="cls-49" d="M147.65,56.78a.22.22,0,0,1-.23-.23V55.32a.22.22,0,0,1,.23-.23.22.22,0,0,1,.24.23v1.23A.22.22,0,0,1,147.65,56.78Z"/><path class="cls-49" d="M130.14,72.42a.26.26,0,0,1-.19-.09L129,70.82a.21.21,0,0,1,.09-.33.21.21,0,0,1,.33.1l.94,1.5a.21.21,0,0,1-.09.33Z"/><path class="cls-49" d="M140.52,73.18a.24.24,0,0,1-.19-.1.22.22,0,0,1,0-.33,10.38,10.38,0,0,0,1.69-1.5.23.23,0,0,1,.32.32,7.54,7.54,0,0,1-1.78,1.56C140.61,73.18,140.56,73.18,140.52,73.18Z"/><path class="cls-49" d="M135.26,81.09h0l-1.41-.38a.28.28,0,0,1-.19-.28.3.3,0,0,1,.28-.19l1.41.38a.3.3,0,0,1,.19.28C135.49,81,135.35,81.09,135.26,81.09Z"/><path class="cls-49" d="M149.63,73a.18.18,0,0,1-.14,0l-.9-.8a.24.24,0,0,1,0-.33.22.22,0,0,1,.33,0l.9.8a.24.24,0,0,1,0,.33S149.72,73,149.63,73Z"/><path class="cls-49" d="M150.75,79.72c-.18,0-.28-.14-.23-.28l.23-1.18c.05-.14.15-.23.29-.19s.23.15.18.29L151,79.54C151,79.68,150.9,79.72,150.75,79.72Z"/><path class="cls-49" d="M167.66,73.79a.16.16,0,0,1-.14-.05.24.24,0,0,1-.05-.33,1.82,1.82,0,0,0,.33-1.32.27.27,0,0,1,.24-.28.26.26,0,0,1,.28.24,2.56,2.56,0,0,1-.42,1.69A.35.35,0,0,1,167.66,73.79Z"/><path class="cls-49" d="M162.12,77.79a.33.33,0,0,1-.19-.09l-1.17-1.37a.2.2,0,0,1,0-.33.2.2,0,0,1,.33,0l1.18,1.36a.21.21,0,0,1-.05.34S162.17,77.79,162.12,77.79Z"/><path class="cls-49" d="M162.59,62.86h-.05a.3.3,0,0,1-.19-.28l.29-1.09a.28.28,0,0,1,.28-.19.3.3,0,0,1,.19.29l-.29,1.08A.24.24,0,0,1,162.59,62.86Z"/><path class="cls-49" d="M163.11,83.73c-.05,0-.1,0-.1,0a4.72,4.72,0,0,1-1.08-.85.2.2,0,0,1,0-.33.21.21,0,0,1,.33,0,3.69,3.69,0,0,0,.94.76.2.2,0,0,1,.09.32A.35.35,0,0,1,163.11,83.73Z"/><path class="cls-49" d="M169.92,88a.32.32,0,0,1-.19-.1,6,6,0,0,0-1.55-1.13.21.21,0,0,1-.1-.33.2.2,0,0,1,.33-.09,6.85,6.85,0,0,1,1.69,1.22.22.22,0,0,1,0,.33C170,88,170,88,169.92,88Z"/><path class="cls-49" d="M168.46,95.55c-.05,0-.09,0-.09,0l-.8-.38a.21.21,0,0,1-.1-.33.2.2,0,0,1,.33-.09l.8.37a.2.2,0,0,1,.09.33A.24.24,0,0,1,168.46,95.55Z"/><path class="cls-49" d="M178.42,85.8a.22.22,0,0,1,0-.33l.89-.89a.22.22,0,0,1,.33,0,.24.24,0,0,1,0,.33l-.9.89C178.7,85.9,178.51,85.9,178.42,85.8Z"/><path class="cls-49" d="M184.57,83.54a.16.16,0,0,1-.14-.05,3.12,3.12,0,0,1-1-1,.21.21,0,0,1,.1-.33.2.2,0,0,1,.32.1,2.19,2.19,0,0,0,.8.8.32.32,0,0,1,.1.33C184.76,83.49,184.66,83.54,184.57,83.54Z"/><path class="cls-49" d="M188,93.76a.22.22,0,0,1-.23-.23L187.72,92a.26.26,0,1,1,.51,0l.1,1.51a.28.28,0,0,1-.29.28Z"/><path class="cls-49" d="M194.9,92.59a.27.27,0,0,1-.19,0,.24.24,0,0,1,0-.33l1.18-1.32a.23.23,0,1,1,.33.33L195,92.54A.42.42,0,0,1,194.9,92.59Z"/><path class="cls-49" d="M199.13,85.52a.24.24,0,0,1-.19-.1l-.8-1a.24.24,0,0,1,.38-.29l.8,1a.23.23,0,0,1,0,.33A.16.16,0,0,1,199.13,85.52Z"/><path class="cls-49" d="M194.38,80.43h-.09a.24.24,0,0,1-.14-.33,5.6,5.6,0,0,0,.47-1.69.26.26,0,0,1,.28-.24.27.27,0,0,1,.24.28,7,7,0,0,1-.52,1.89A.4.4,0,0,1,194.38,80.43Z"/><path class="cls-49" d="M125.3,81.75h-.09l-1.41-.47a.24.24,0,0,1-.14-.33.23.23,0,0,1,.32-.14l1.41.47a.24.24,0,0,1,.14.33A.36.36,0,0,1,125.3,81.75Z"/><path class="cls-49" d="M121.5,93.62h-.1a.24.24,0,0,1-.14-.33,2.62,2.62,0,0,0,.19-1.36.3.3,0,0,1,.23-.29.32.32,0,0,1,.29.24,3.2,3.2,0,0,1-.24,1.6A.25.25,0,0,1,121.5,93.62Z"/><path class="cls-49" d="M130.75,93.9a.18.18,0,0,1-.14,0A4.37,4.37,0,0,1,129,92a.24.24,0,0,1,.14-.33.25.25,0,0,1,.33.14,4.07,4.07,0,0,0,1.41,1.7c.09.1.14.24.05.33S130.84,93.9,130.75,93.9Z"/><path class="cls-49" d="M136,98.43a.25.25,0,0,1-.23-.14,3.53,3.53,0,0,1-.43-1.94.26.26,0,0,1,.52.05,2.85,2.85,0,0,0,.38,1.65c0,.14,0,.28-.1.33A.16.16,0,0,1,136,98.43Z"/><path class="cls-49" d="M136.9,91.36h-.09a.24.24,0,0,1-.14-.33,3.13,3.13,0,0,0,.23-1.84.21.21,0,0,1,.19-.28c.14,0,.28,0,.28.19a3.31,3.31,0,0,1-.28,2.12C137.09,91.31,137,91.36,136.9,91.36Z"/><path class="cls-49" d="M147.19,86.27a.31.31,0,0,1-.19-.09,3.41,3.41,0,0,0-1.36-.94.25.25,0,0,1-.15-.33.24.24,0,0,1,.33-.14,4.2,4.2,0,0,1,1.51,1.08.24.24,0,0,1,0,.33C147.33,86.27,147.23,86.27,147.19,86.27Z"/><path class="cls-49" d="M156.48,85.85h-.09a.24.24,0,0,1-.14-.33,4.73,4.73,0,0,0,.28-1.6.23.23,0,0,1,.24-.24.22.22,0,0,1,.23.24,4.76,4.76,0,0,1-.33,1.79C156.67,85.8,156.58,85.85,156.48,85.85Z"/><path class="cls-49" d="M150.85,95.55a.22.22,0,0,1-.24-.23l-.14-1.79a.26.26,0,0,1,.52,0l.14,1.79C151.08,95.41,151,95.55,150.85,95.55Z"/><path class="cls-49" d="M157.56,95.27h-.09a.24.24,0,0,1-.14-.33,2.08,2.08,0,0,0,.14-1.08.29.29,0,0,1,.23-.28.3.3,0,0,1,.29.23,2.57,2.57,0,0,1-.19,1.32A.39.39,0,0,1,157.56,95.27Z"/><path class="cls-49" d="M146.39,99.75s-.1,0-.1,0a6.55,6.55,0,0,1-1.73-1.27.22.22,0,0,1,0-.33.21.21,0,0,1,.32,0,8,8,0,0,0,1.6,1.18c.14,0,.19.18.09.33A.25.25,0,0,1,146.39,99.75Z"/><path class="cls-49" d="M153.57,103.66a.17.17,0,0,1-.14,0,.31.31,0,0,1-.09-.33c.28-.47.51-.94.75-1.41a.25.25,0,0,1,.33-.15.25.25,0,0,1,.14.34,9.82,9.82,0,0,1-.8,1.5A.24.24,0,0,1,153.57,103.66Z"/><path class="cls-49" d="M128.12,86.74a.61.61,0,1,1-1.22,0,.61.61,0,0,1,1.22,0Z"/><path class="cls-49" d="M142.54,79.25a.62.62,0,1,1-1.23,0,.63.63,0,0,1,.62-.61A.57.57,0,0,1,142.54,79.25Z"/><path class="cls-49" d="M132,56.22a.61.61,0,0,0,.61-.62.61.61,0,1,0-1.22,0A.61.61,0,0,0,132,56.22Z"/><path class="cls-49" d="M151.74,60.31a.61.61,0,1,0-.61-.61A.61.61,0,0,0,151.74,60.31Z"/><path class="cls-49" d="M114.59,80.53a.61.61,0,1,1-.61-.62A.6.6,0,0,1,114.59,80.53Z"/><path class="cls-49" d="M109.1,103.84a.61.61,0,1,0,0-1.22.61.61,0,1,0,0,1.22Z"/><path class="cls-49" d="M156.53,75a.61.61,0,1,1-.61-.62A.6.6,0,0,1,156.53,75Z"/><path class="cls-49" d="M173.25,92.63a.61.61,0,1,0-.61-.61A.61.61,0,0,0,173.25,92.63Z"/><path class="cls-49" d="M168.88,80.67a.61.61,0,0,1-1.22,0,.63.63,0,0,1,.61-.62A.6.6,0,0,1,168.88,80.67Z"/><path class="cls-49" d="M137.75,106.58a.62.62,0,1,0-.62-.62A.62.62,0,0,0,137.75,106.58Z"/><path class="cls-49" d="M190.81,87.21a.61.61,0,0,0,.62-.61.62.62,0,0,0-1.23,0A.61.61,0,0,0,190.81,87.21Z"/><path class="cls-49" d="M121.35,110.72a.63.63,0,0,1-.61.62.63.63,0,0,1-.61-.62.63.63,0,0,1,.61-.61A.62.62,0,0,1,121.35,110.72Z"/><path class="cls-49" d="M98.58,106a.61.61,0,1,1-.61-.61A.62.62,0,0,1,98.58,106Z"/><path class="cls-49" d="M144.7,94.28a.61.61,0,0,0,0-1.22.61.61,0,0,0,0,1.22Z"/><path class="cls-49" d="M133.94,70.07a.62.62,0,1,0-.61-.62A.61.61,0,0,0,133.94,70.07Z"/><path class="cls-49" d="M161.51,70.07a.62.62,0,1,0-.61-.62A.61.61,0,0,0,161.51,70.07Z"/><path class="cls-49" d="M103.88,83.73a.62.62,0,0,1-.61.61.61.61,0,0,1,0-1.22A.62.62,0,0,1,103.88,83.73Z"/><path class="cls-49" d="M123.8,61.3a.61.61,0,1,1-1.22,0,.62.62,0,0,1,.61-.61A.59.59,0,0,1,123.8,61.3Z"/><path class="cls-48" d="M144.7,103.89l-2.77-.66"/><path class="cls-48" d="M144,106.62l-2.72-.66"/><path class="cls-48" d="M143.33,109.26l-2.72-.61"/><path class="cls-48" d="M142.68,111.62l-2.59-.61"/><path class="cls-48" d="M142.11,113.88l-2.63-.42"/><path class="cls-50" d="M134,113.55h45.08v1.65H132.34A1.61,1.61,0,0,1,134,113.55Z"/><path class="cls-51" d="M187.9,115.2H151.22l-.94-1.65,5.64-22.33a2.3,2.3,0,0,1,2.25-1.74h36.26a.87.87,0,0,1,.85,1.08l-5.92,23.51A1.55,1.55,0,0,1,187.9,115.2Z"/><path class="cls-6" d="M188.33,115.2H151.69l6-24a2.3,2.3,0,0,1,2.25-1.74h35a.87.87,0,0,1,.85,1.08l-6,23.51A1.51,1.51,0,0,1,188.33,115.2Z"/><path class="cls-52" d="M151.69,115.2l6.06-24A2.31,2.31,0,0,1,160,89.48"/><path class="cls-51" d="M178.42,102.06c0,1-1.46,1.88-3.24,1.88s-3.24-.85-3.24-1.88,1.45-1.89,3.24-1.89S178.42,101,178.42,102.06Z"/><path class="cls-23" d="M115.06,52.49c-5.16,2.12-3.1,9-2.68,13a8.25,8.25,0,0,1-.46,4.29c-.62,1.27-1.84,1.74-3.06,2.4-.7.38-1.55,1-1.27,1.69a1.16,1.16,0,0,0,.71.62c4.08,1.74,7-3.3,7.47-6.55.32-2.69-.57-5.7-.61-8.39a4.71,4.71,0,0,1,1.26-3.67,6.78,6.78,0,0,1,2.92-1.46"/><path class="cls-23" d="M152.63,54a27.67,27.67,0,0,1,3.81,3.11,16.23,16.23,0,0,1,1.17,1.32c.33.43.66.71.66,1.27a6,6,0,0,0,0,1,1.8,1.8,0,0,0,.42.94,1,1,0,0,0,.85.33c1.17-.14,1.31-1.41,1.22-2.4a8.84,8.84,0,0,0-1.27-3.35,11.46,11.46,0,0,0-3.1-3.44"/><path class="cls-32" d="M160.71,59.47a5.28,5.28,0,0,0-.52-1.89,7.46,7.46,0,0,0-2.44,1,1.51,1.51,0,0,1,.47,1,5.89,5.89,0,0,0,0,.94,1.76,1.76,0,0,0,.42.94,1,1,0,0,0,.85.33C160.66,61.68,160.8,60.46,160.71,59.47Z"/><path class="cls-32" d="M114,63.52a12.64,12.64,0,0,0,0,2.68,3.46,3.46,0,0,1-.7,2.55,1.5,1.5,0,0,0-.47.61,1.08,1.08,0,0,0,.19.85A6.81,6.81,0,0,0,114.26,72a9.47,9.47,0,0,0,1.51-4,23.84,23.84,0,0,0-.43-6A2,2,0,0,0,114,63.52Z"/><path class="cls-32" d="M111.21,74.59a1.84,1.84,0,0,0,0-.52,3.19,3.19,0,0,0-1.26-2.31.36.36,0,0,0-.19-.09,7.64,7.64,0,0,0-.89.47c-.71.38-1.55,1-1.27,1.69a1.12,1.12,0,0,0,.7.62A4.36,4.36,0,0,0,111.21,74.59Z"/><path class="cls-35" d="M114.12,53.06c.33-.19.61-.38.94-.57a10.47,10.47,0,0,1,1-.42c.09,0,0-.14,0-.14a3.65,3.65,0,0,0-1.92,1C114,53,114,53.11,114.12,53.06Z"/><path class="cls-35" d="M159.25,60.69a1.36,1.36,0,0,1-.32.94.13.13,0,0,0,.18.19,1.19,1.19,0,0,0,.14-1.13Z"/><path class="cls-35" d="M160.1,60.64a2.55,2.55,0,0,1-.19.66,3.13,3.13,0,0,0-.28.43.11.11,0,0,0,.09.09c.19,0,.33-.33.43-.47a1.23,1.23,0,0,0,0-.71S160.1,60.6,160.1,60.64Z"/><path class="cls-53" d="M113.37,76.43a6,6,0,0,0,3.38-3.3"/><path class="cls-53" d="M162.17,55.23a5.11,5.11,0,0,1,1.22,4"/><path class="cls-53" d="M164.09,55a4.94,4.94,0,0,1,1,3.44"/><path class="cls-53" d="M115.16,77.56a3.86,3.86,0,0,0,2.3-2.31"/><path class="cls-54" d="M90.12,102.1a15.59,15.59,0,0,0-.18,5.14,7.48,7.48,0,0,0,2.3,4.52"/><path class="cls-54" d="M87.45,107.1a6,6,0,0,0,2.35,4.75"/><path class="cls-54" d="M267.51,179.36c1.31-.42,2.77-1.22,3.14-2.63"/><path class="cls-54" d="M267.55,181.3a7.31,7.31,0,0,0,2.63-.8,2.52,2.52,0,0,0,1.37-2.26"/><path class="cls-55" d="M244.82,37.75,220.87,141.44,127.46,66.2l92.19-49.09"/><path class="cls-23" d="M256.47,16.08,238.58,1.38,219.65,17.11l25.17,20.64Z"/><path class="cls-56" d="M235.34,8.07,222.61,19.56"/><path class="cls-56" d="M240.74,3.17l-3.34,3"/><path class="cls-56" d="M243.37,5.33,226,22.34"/><path class="cls-56" d="M246,7.5l-16.25,18"/><path class="cls-56" d="M254.26,14.29l-12.4,21.05"/><path class="cls-56" d="M251.63,12.12,238.48,32.57"/><path class="cls-56" d="M249,10,234.68,29.46"/></g></g></svg>