<?xml version="1.0" encoding="utf-8"?>
<!-- Generator: Adobe Illustrator 22.0.0, SVG Export Plug-In . SVG Version: 6.00 Build 0)  -->
<svg version="1.1" id="Capa_1" xmlns="http://www.w3.org/2000/svg" xmlns:xlink="http://www.w3.org/1999/xlink" x="0px" y="0px"
	 viewBox="0 0 16 16" style="enable-background:new 0 0 16 16;" xml:space="preserve">
<style type="text/css">
	.st0{fill:#4FD290;}
</style>
<path class="st0" d="M10.4,6.1c0.2,0.2,0.2,0.5,0,0.7l0,0l-3,3C7.2,10,6.8,10,6.6,9.9l0,0L5.1,8.4C5,8.2,5,7.8,5.1,7.6
	s0.5-0.2,0.7,0L7,8.8l2.6-2.6C9.8,6,10.2,6,10.4,6.1L10.4,6.1z"/>
<path class="st0" d="M10.3,2.5L9.4,1.6l0.7-0.7l0.6,0.6h0.9c1.6,0,2.9,1.3,2.9,2.9c0,0,0,0,0,0.1v0.9L15.1,6c1.1,1.1,1.2,2.9,0,4.1
	l0,0l-0.6,0.6v0.9c0,1.6-1.3,2.9-2.9,2.9c0,0,0,0-0.1,0h-0.9L10,15.1c-1.1,1.1-2.9,1.2-4.1,0l0,0l-0.6-0.6H4.4
	c-1.6,0-2.9-1.3-2.9-2.9c0,0,0,0,0-0.1v-0.9L0.9,10c-1.2-1-1.2-2.9-0.1-4l0,0l0.6-0.6V4.5c0-1.6,1.3-2.9,2.9-2.9c0,0,0,0,0.1,0h0.9
	L5.9,1C7-0.3,8.9-0.3,10,0.8l0,0L9.4,1.6c-0.7-0.7-1.9-0.8-2.7,0l0,0l-1,0.9H4.4c-1,0-1.9,0.8-1.9,1.9l0,0v1.3L1.6,6.6
	c-0.7,0.7-0.8,1.9,0,2.7l0,0l0.9,0.9v1.3c0,1,0.8,1.9,1.9,1.9l0,0h1.3l0.9,0.9c0.7,0.7,1.9,0.8,2.7,0l0,0l0.9-0.9h1.3
	c1,0,1.9-0.8,1.9-1.9l0,0v-1.3l0.9-0.9c0.7-0.7,0.8-1.9,0-2.7l0,0l-0.9-0.9V4.4c0-1-0.8-1.9-1.9-1.9l0,0C11.6,2.5,10.3,2.5,10.3,2.5
	z"/>
</svg>
